<svg width="88" height="28" viewBox="0 0 88 28" fill="none" xmlns="http://www.w3.org/2000/svg">
<g clip-path="url(#clip0_2001_636)">
<path d="M77.6328 0.944463C77.34 1.9674 77.1213 2.8422 76.8391 3.69582C75.4423 7.88988 74.0313 12.0769 72.4017 16.9306C70.9766 13.0152 69.7879 9.74882 68.5568 6.37311C66.5039 6.37311 64.5815 6.37311 62.1864 6.37311C64.7861 12.3873 67.2588 18.1017 69.8091 23.9995C71.3294 23.9995 72.8461 23.9995 74.6627 23.9995C77.6116 16.7048 80.6099 9.29731 83.654 1.7734C86.0386 3.06089 87.0227 4.97626 87.0756 7.2479C87.1814 11.837 87.1567 16.4367 87.0439 21.0259C86.9521 24.8531 84.1937 27.481 80.3489 27.488C66.6415 27.5163 52.9305 27.5233 39.2231 27.4986C35.3536 27.4916 32.6798 24.8707 32.6022 20.9941C32.5105 16.4015 32.4893 11.8088 32.5317 7.21615C32.5634 3.98507 34.9514 1.03265 38.0485 1.0009C51.1774 0.86686 64.3063 0.944463 77.6328 0.944463ZM61.3116 9.27967C58.9235 6.11914 53.7665 4.97274 49.7241 6.52831C45.71 8.06978 43.4489 11.8194 43.8404 16.2921C44.2002 20.4297 47.2902 23.5938 51.964 24.6097C55.2692 25.3293 59.8971 23.5656 61.3116 20.913C60.3416 19.8301 59.3327 18.7048 58.3556 17.6149C54.8459 19.8477 52.4825 19.8936 50.673 17.9041C49.3291 16.4262 49.3008 13.8124 50.613 12.2392C52.1968 10.3379 54.7612 10.4367 58.3839 12.6095C58.9306 12.0275 59.5126 11.4314 60.0664 10.8106C60.4827 10.3379 60.8601 9.83347 61.3116 9.27967ZM41.7875 21.9571C41.7311 20.1017 40.3695 18.7507 38.567 18.7578C36.6481 18.7648 35.2865 20.1793 35.3218 22.1299C35.3571 24.1441 36.7081 25.4175 38.6975 25.3187C40.4295 25.234 41.8404 23.6961 41.7875 21.9571Z" fill="white"/>
</g>
<path d="M5.61364 5.54545V23H1.9233V5.54545H5.61364ZM14.8374 23H8.64986V5.54545H14.8885C16.6442 5.54545 18.1555 5.89489 19.4226 6.59375C20.6896 7.28693 21.6641 8.28409 22.3459 9.58523C23.0334 10.8864 23.3771 12.4432 23.3771 14.2557C23.3771 16.0739 23.0334 17.6364 22.3459 18.9432C21.6641 20.25 20.6839 21.2528 19.4055 21.9517C18.1328 22.6506 16.6101 23 14.8374 23ZM12.3402 19.8381H14.6839C15.7749 19.8381 16.6925 19.6449 17.4368 19.2585C18.1868 18.8665 18.7493 18.2614 19.1243 17.4432C19.505 16.6193 19.6953 15.5568 19.6953 14.2557C19.6953 12.9659 19.505 11.9119 19.1243 11.0938C18.7493 10.2756 18.1896 9.6733 17.4453 9.28693C16.701 8.90057 15.7834 8.70739 14.6925 8.70739H12.3402V19.8381Z" fill="white"/>
<defs>
<clipPath id="clip0_2001_636">
<rect width="55.5908" height="27.7954" fill="white" transform="translate(87.5908 27.8977) rotate(-180)"/>
</clipPath>
</defs>
</svg>
