<svg width="1441" height="471" viewBox="0 0 1441 471" fill="none" xmlns="http://www.w3.org/2000/svg">
<g clip-path="url(#clip0_2027_636)">
<rect x="0.419922" y="0.921875" width="1440" height="470" fill="black"/>
<g clip-path="url(#clip1_2027_636)">
<rect x="-630" y="540.624" width="4000" height="100" transform="rotate(-7.8887 -630 540.624)" fill="url(#paint0_linear_2027_636)"/>
<path d="M-302.391 556.813L-309.572 557.808L-303.022 524.595L-294.386 523.398L-279.067 553.581L-286.248 554.576L-297.576 531.223L-297.824 531.257L-302.391 556.813ZM-304.566 544.416L-287.603 542.066L-286.878 547.297L-303.841 549.647L-304.566 544.416ZM-273.174 520.459L-268.782 552.156L-275.375 553.07L-279.767 521.373L-273.174 520.459ZM-261.299 518.814L-256.907 550.511L-263.501 551.424L-267.893 519.727L-261.299 518.814ZM-236.233 556.732C-237.069 556.848 -237.862 556.89 -238.613 556.857C-239.353 556.833 -239.973 556.756 -240.475 556.626L-239.671 551.498C-238.864 551.628 -238.15 551.661 -237.528 551.596C-236.896 551.529 -236.374 551.31 -235.963 550.937C-235.542 550.563 -235.238 549.985 -235.052 549.202L-234.804 548.142L-246.721 524.87L-239.787 523.909L-232.446 540.686L-232.199 540.651L-229.649 522.505L-222.669 521.537L-228.259 549.16C-228.525 550.501 -228.975 551.699 -229.607 552.754C-230.227 553.818 -231.079 554.688 -232.163 555.364C-233.246 556.05 -234.603 556.506 -236.233 556.732ZM-205.962 543.925C-208.366 544.258 -210.516 544.035 -212.411 543.257C-214.298 542.467 -215.843 541.219 -217.047 539.514C-218.252 537.799 -219.024 535.723 -219.361 533.288C-219.701 530.833 -219.524 528.621 -218.829 526.653C-218.136 524.674 -216.988 523.053 -215.386 521.79C-213.775 520.515 -211.767 519.711 -209.363 519.378C-206.959 519.045 -204.814 519.274 -202.927 520.064C-201.031 520.842 -199.481 522.089 -198.276 523.805C-197.072 525.51 -196.3 527.59 -195.96 530.046C-195.622 532.481 -195.8 534.688 -196.494 536.666C-197.188 538.634 -198.341 540.256 -199.952 541.531C-201.555 542.794 -203.558 543.592 -205.962 543.925ZM-206.639 538.813C-205.545 538.662 -204.675 538.226 -204.028 537.505C-203.382 536.774 -202.949 535.841 -202.728 534.706C-202.496 533.57 -202.476 532.311 -202.668 530.928C-202.859 529.545 -203.221 528.339 -203.753 527.308C-204.274 526.276 -204.945 525.496 -205.765 524.969C-206.585 524.441 -207.541 524.253 -208.635 524.404C-209.739 524.557 -210.624 525 -211.29 525.734C-211.946 526.467 -212.39 527.401 -212.621 528.537C-212.843 529.672 -212.857 530.931 -212.666 532.313C-212.474 533.696 -212.118 534.903 -211.596 535.935C-211.064 536.966 -210.383 537.744 -209.553 538.271C-208.714 538.785 -207.743 538.966 -206.639 538.813ZM-176.196 529.011L-178.087 515.36L-171.494 514.447L-168.2 538.22L-174.53 539.097L-175.129 534.779L-175.376 534.813C-175.72 536.28 -176.457 537.523 -177.588 538.542C-178.709 539.56 -180.162 540.192 -181.947 540.44C-183.536 540.66 -184.984 540.493 -186.292 539.938C-187.599 539.383 -188.685 538.487 -189.551 537.25C-190.406 536.012 -190.967 534.465 -191.235 532.609L-193.332 517.473L-186.739 516.559L-184.805 530.519C-184.6 531.921 -184.07 532.978 -183.214 533.69C-182.358 534.403 -181.306 534.672 -180.057 534.499C-179.263 534.389 -178.545 534.106 -177.904 533.649C-177.264 533.181 -176.782 532.557 -176.459 531.777C-176.126 530.994 -176.038 530.072 -176.196 529.011ZM-162.926 537.489L-166.22 513.716L-159.828 512.83L-159.253 516.978L-159.006 516.944C-158.777 515.408 -158.204 514.193 -157.287 513.298C-156.371 512.393 -155.248 511.848 -153.917 511.664C-153.586 511.618 -153.228 511.59 -152.84 511.578C-152.453 511.566 -152.109 511.577 -151.811 511.609L-151 517.459C-151.322 517.409 -151.762 517.386 -152.319 517.39C-152.876 517.393 -153.381 517.426 -153.835 517.489C-154.805 517.624 -155.642 517.955 -156.347 518.484C-157.043 519.001 -157.562 519.662 -157.903 520.466C-158.233 521.269 -158.331 522.156 -158.197 523.126L-156.333 536.575L-162.926 537.489ZM-126.192 532.793C-127.998 533.043 -129.697 532.806 -131.291 532.08C-132.876 531.343 -134.223 530.125 -135.331 528.428C-136.43 526.719 -137.163 524.539 -137.53 521.887C-137.908 519.163 -137.783 516.837 -137.156 514.91C-136.531 512.973 -135.553 511.454 -134.222 510.355C-132.883 509.244 -131.342 508.568 -129.598 508.326C-128.267 508.142 -127.126 508.215 -126.176 508.546C-125.217 508.865 -124.417 509.322 -123.777 509.917C-123.129 510.5 -122.616 511.092 -122.238 511.691L-122.037 511.664L-123.688 499.746L-117.11 498.835L-112.718 530.532L-119.219 531.433L-119.746 527.625L-120.025 527.664C-120.243 528.367 -120.591 529.083 -121.068 529.812C-121.537 530.529 -122.191 531.161 -123.03 531.708C-123.858 532.254 -124.912 532.616 -126.192 532.793ZM-124.829 527.257C-123.767 527.11 -122.909 526.696 -122.256 526.017C-121.595 525.326 -121.141 524.427 -120.895 523.32C-120.638 522.212 -120.608 520.951 -120.804 519.538C-121 518.124 -121.366 516.923 -121.902 515.936C-122.439 514.948 -123.118 514.222 -123.939 513.757C-124.761 513.292 -125.703 513.134 -126.766 513.281C-127.849 513.431 -128.722 513.852 -129.383 514.543C-130.045 515.234 -130.494 516.127 -130.731 517.222C-130.969 518.317 -130.992 519.551 -130.802 520.923C-130.611 522.306 -130.25 523.502 -129.721 524.512C-129.183 525.51 -128.507 526.257 -127.691 526.754C-126.867 527.24 -125.913 527.407 -124.829 527.257ZM-100.456 529.29C-101.973 529.501 -103.361 529.425 -104.621 529.063C-105.882 528.691 -106.93 528.032 -107.766 527.085C-108.593 526.127 -109.115 524.864 -109.332 523.296C-109.515 521.975 -109.426 520.832 -109.066 519.867C-108.705 518.902 -108.145 518.089 -107.385 517.426C-106.625 516.763 -105.733 516.219 -104.708 515.793C-103.674 515.366 -102.577 515.014 -101.416 514.737C-100.053 514.401 -98.9576 514.113 -98.1287 513.872C-97.3012 513.62 -96.7144 513.339 -96.3684 513.029C-96.0224 512.718 -95.8844 512.309 -95.9544 511.804L-95.9673 511.711C-96.1031 510.731 -96.5177 510.015 -97.2112 509.565C-97.8943 509.112 -98.7982 508.964 -99.9228 509.12C-101.109 509.284 -102.017 509.678 -102.646 510.302C-103.276 510.915 -103.65 511.629 -103.769 512.445L-109.935 512.795C-109.826 511.307 -109.39 509.974 -108.628 508.796C-107.867 507.607 -106.809 506.63 -105.453 505.864C-104.089 505.086 -102.457 504.565 -100.559 504.302C-99.2381 504.119 -97.9527 504.099 -96.7026 504.241C-95.4422 504.382 -94.2974 504.712 -93.2684 505.232C-92.2291 505.751 -91.3652 506.483 -90.6768 507.429C-89.9899 508.364 -89.5485 509.539 -89.3526 510.952L-87.1309 526.987L-93.3836 527.853L-93.8404 524.556L-94.0261 524.582C-94.305 525.378 -94.7249 526.104 -95.286 526.76C-95.8485 527.406 -96.5565 527.951 -97.4098 528.395C-98.2646 528.829 -99.2801 529.127 -100.456 529.29ZM-99.1987 524.478C-98.2288 524.344 -97.3988 524.035 -96.7088 523.55C-96.0202 523.055 -95.5102 522.448 -95.1786 521.729C-94.8471 521.01 -94.7392 520.232 -94.855 519.397L-95.2046 516.874C-95.3924 517.037 -95.659 517.2 -96.0044 517.363C-96.3409 517.515 -96.7245 517.668 -97.1554 517.823C-97.5876 517.967 -98.0206 518.105 -98.4542 518.239C-98.8893 518.363 -99.2839 518.475 -99.6379 518.577C-100.396 518.797 -101.047 519.072 -101.59 519.399C-102.134 519.727 -102.536 520.124 -102.797 520.592C-103.06 521.049 -103.149 521.587 -103.063 522.206C-102.938 523.104 -102.518 523.745 -101.802 524.129C-101.078 524.502 -100.21 524.619 -99.1987 524.478ZM-72.6648 500.753L-71.9786 505.706L-86.2949 507.689L-86.9812 502.736L-72.6648 500.753ZM-84.5202 496.591L-77.9269 495.677L-74.856 517.84C-74.7716 518.449 -74.613 518.911 -74.3801 519.226C-74.1486 519.53 -73.8585 519.726 -73.5097 519.815C-73.1506 519.902 -72.7493 519.914 -72.3056 519.853C-71.996 519.81 -71.6901 519.741 -71.3877 519.647C-71.0867 519.542 -70.8558 519.463 -70.695 519.409L-68.9782 524.172C-69.2941 524.321 -69.742 524.504 -70.3219 524.721C-70.9003 524.948 -71.6156 525.136 -72.4677 525.286C-74.0481 525.568 -75.4703 525.55 -76.7344 525.231C-77.9882 524.91 -79.016 524.285 -79.8179 523.355C-80.6198 522.425 -81.1236 521.18 -81.3291 519.621L-84.5202 496.591ZM-58.2348 523.44C-59.7515 523.65 -61.1397 523.574 -62.3992 523.213C-63.6601 522.841 -64.7084 522.181 -65.5441 521.235C-66.3709 520.277 -66.893 519.014 -67.1103 517.445C-67.2933 516.125 -67.2045 514.982 -66.8439 514.017C-66.4834 513.052 -65.9231 512.238 -65.1631 511.576C-64.4031 510.913 -63.511 510.369 -62.4869 509.943C-61.4524 509.516 -60.3549 509.164 -59.1944 508.887C-57.8317 508.551 -56.736 508.263 -55.907 508.022C-55.0796 507.77 -54.4928 507.489 -54.1468 507.178C-53.8007 506.867 -53.6627 506.459 -53.7328 505.954L-53.7457 505.861C-53.8815 504.881 -54.2961 504.165 -54.9895 503.714C-55.6727 503.262 -56.5765 503.114 -57.7012 503.27C-58.8878 503.434 -59.7954 503.828 -60.4242 504.452C-61.0543 505.065 -61.4286 505.779 -61.5469 506.595L-67.7135 506.944C-67.6041 505.457 -67.1683 504.124 -66.4062 502.946C-65.6454 501.757 -64.5873 500.78 -63.2317 500.014C-61.8672 499.236 -60.2357 498.715 -58.3372 498.452C-57.0165 498.269 -55.7311 498.249 -54.481 498.391C-53.2205 498.532 -52.0758 498.862 -51.0468 499.382C-50.0075 499.901 -49.1436 500.633 -48.4552 501.579C-47.7682 502.514 -47.3268 503.688 -47.131 505.102L-44.9092 521.136L-51.162 522.003L-51.6188 518.706L-51.8045 518.732C-52.0833 519.528 -52.5033 520.254 -53.0644 520.91C-53.6269 521.555 -54.3349 522.101 -55.1882 522.545C-56.043 522.979 -57.0585 523.277 -58.2348 523.44ZM-56.9771 518.628C-56.0072 518.494 -55.1772 518.184 -54.4872 517.7C-53.7986 517.205 -53.2886 516.598 -52.957 515.879C-52.6255 515.16 -52.5176 514.382 -52.6334 513.546L-52.983 511.024C-53.1707 511.186 -53.4373 511.35 -53.7827 511.513C-54.1193 511.665 -54.5029 511.818 -54.9337 511.972C-55.366 512.116 -55.7989 512.255 -56.2326 512.389C-56.6677 512.512 -57.0622 512.625 -57.4162 512.726C-58.1744 512.947 -58.8252 513.221 -59.3687 513.549C-59.9122 513.877 -60.3145 514.274 -60.5758 514.742C-60.8385 515.199 -60.9269 515.737 -60.8411 516.356C-60.7167 517.253 -60.2967 517.895 -59.5809 518.279C-58.8562 518.652 -57.9882 518.768 -56.9771 518.628ZM-22.8657 518.539C-24.3824 518.75 -25.7705 518.674 -27.03 518.312C-28.291 517.94 -29.3393 517.281 -30.175 516.334C-31.0018 515.376 -31.5239 514.113 -31.7412 512.545C-31.9242 511.224 -31.8354 510.081 -31.4748 509.116C-31.1143 508.151 -30.554 507.338 -29.794 506.675C-29.034 506.012 -28.1419 505.468 -27.1178 505.042C-26.0833 504.615 -24.9858 504.263 -23.8252 503.986C-22.4626 503.65 -21.3669 503.362 -20.5379 503.121C-19.7104 502.869 -19.1237 502.588 -18.7776 502.278C-18.4316 501.967 -18.2936 501.558 -18.3637 501.053L-18.3765 500.96C-18.5124 499.98 -18.927 499.264 -19.6204 498.814C-20.3035 498.361 -21.2074 498.213 -22.3321 498.369C-23.5187 498.533 -24.4263 498.927 -25.055 499.551C-25.6852 500.164 -26.0594 500.878 -26.1778 501.694L-32.3444 502.044C-32.235 500.556 -31.7992 499.223 -31.0371 498.045C-30.2763 496.856 -29.2182 495.879 -27.8626 495.113C-26.4981 494.335 -24.8666 493.814 -22.9681 493.551C-21.6474 493.368 -20.362 493.348 -19.1119 493.49C-17.8514 493.631 -16.7067 493.961 -15.6777 494.481C-14.6384 495 -13.7745 495.732 -13.0861 496.678C-12.3991 497.613 -11.9577 498.788 -11.7618 500.201L-9.54013 516.236L-15.7929 517.102L-16.2497 513.805L-16.4354 513.831C-16.7142 514.627 -17.1342 515.353 -17.6953 516.009C-18.2578 516.655 -18.9657 517.2 -19.8191 517.644C-20.6739 518.078 -21.6894 518.376 -22.8657 518.539ZM-21.6079 513.727C-20.638 513.593 -19.8081 513.284 -19.1181 512.799C-18.4295 512.304 -17.9194 511.697 -17.5879 510.978C-17.2564 510.259 -17.1485 509.481 -17.2643 508.646L-17.6138 506.123C-17.8016 506.286 -18.0682 506.449 -18.4136 506.612C-18.7501 506.764 -19.1338 506.917 -19.5646 507.072C-19.9969 507.216 -20.4298 507.354 -20.8635 507.488C-21.2986 507.612 -21.6931 507.724 -22.0471 507.826C-22.8052 508.046 -23.4561 508.321 -23.9996 508.648C-24.5431 508.976 -24.9454 509.373 -25.2067 509.841C-25.4693 510.298 -25.5578 510.836 -25.472 511.455C-25.3476 512.353 -24.9275 512.994 -24.2117 513.378C-23.487 513.751 -22.6191 513.868 -21.6079 513.727ZM-4.42493 515.527L-7.71891 491.754L-1.32686 490.868L-0.752124 495.016L-0.50449 494.982C-0.275574 493.446 0.297446 492.231 1.21457 491.336C2.13026 490.431 3.25363 489.886 4.58466 489.702C4.91484 489.656 5.27367 489.628 5.66116 489.616C6.04865 489.604 6.39185 489.615 6.69077 489.647L7.50139 495.497C7.17898 495.447 6.73935 495.424 6.18248 495.428C5.62561 495.431 5.12018 495.464 4.66619 495.527C3.69629 495.662 2.85887 495.993 2.15395 496.522C1.45792 497.039 0.939532 497.7 0.598791 498.504C0.268368 499.307 0.170352 500.194 0.304741 501.164L2.16833 514.613L-4.42493 515.527ZM23.2003 512.172C20.7549 512.511 18.5814 512.307 16.6798 511.561C14.787 510.804 13.2395 509.577 12.0372 507.883C10.8334 506.177 10.0578 504.071 9.71042 501.564C9.37159 499.119 9.54885 496.907 10.2422 494.928C10.9355 492.95 12.0723 491.325 13.6525 490.055C15.2429 488.783 17.2041 487.985 19.536 487.662C21.1043 487.445 22.5994 487.495 24.0211 487.813C25.4517 488.12 26.7419 488.704 27.8918 489.564C29.052 490.424 30.0209 491.572 30.7985 493.011C31.5748 494.438 32.103 496.163 32.3832 498.186L32.6341 499.997L12.5603 502.778L11.9941 498.692L25.8616 496.771C25.7301 495.821 25.4072 495.009 24.893 494.334C24.3788 493.658 23.7268 493.165 22.937 492.854C22.1561 492.531 21.2859 492.436 20.3263 492.569C19.3254 492.707 18.4702 493.062 17.7607 493.634C17.0601 494.194 16.5467 494.891 16.2206 495.725C15.893 496.548 15.7891 497.43 15.9089 498.37L16.4472 502.255C16.6102 503.432 16.9677 504.418 17.5197 505.214C18.082 506.009 18.7978 506.583 19.6669 506.936C20.5361 507.289 21.5227 507.388 22.6267 507.235C23.3593 507.134 24.0157 506.938 24.5958 506.647C25.176 506.356 25.6542 505.975 26.0303 505.502C26.4065 505.029 26.6666 504.478 26.8107 503.848L32.9645 503.405C32.8579 504.913 32.4007 506.281 31.5926 507.507C30.7935 508.722 29.6829 509.739 28.2608 510.556C26.8476 511.362 25.1607 511.901 23.2003 512.172ZM48.561 508.185L44.1691 476.488L50.7623 475.574L52.4136 487.492L52.6148 487.464C52.8151 486.784 53.1429 486.076 53.5982 485.34C54.0625 484.592 54.7076 483.935 55.5334 483.368C56.3682 482.79 57.4511 482.408 58.7821 482.224C60.5156 481.984 62.1778 482.216 63.7688 482.921C65.3583 483.616 66.7174 484.81 67.8461 486.505C68.9733 488.189 69.7256 490.393 70.1031 493.117C70.4705 495.769 70.3526 498.067 69.7492 500.012C69.1547 501.945 68.19 503.483 66.8549 504.625C65.5287 505.755 63.9628 506.445 62.1571 506.695C60.8777 506.873 59.7598 506.812 58.8035 506.513C57.8576 506.213 57.0565 505.783 56.4004 505.222C55.7428 504.65 55.2187 504.055 54.8279 503.436L54.5339 503.477L55.0614 507.284L48.561 508.185ZM53.368 495.404C53.5639 496.818 53.9308 498.024 54.4687 499.022C55.0066 500.02 55.6878 500.762 56.5121 501.247C57.3351 501.722 58.278 501.886 59.3407 501.738C60.4138 501.59 61.2811 501.17 61.9425 500.479C62.6025 499.777 63.0504 498.874 63.2864 497.769C63.5312 496.651 63.5578 495.402 63.3662 494.019C63.1761 492.647 62.8179 491.466 62.2918 490.477C61.7656 489.487 61.0903 488.75 60.2659 488.265C59.4415 487.78 58.4876 487.612 57.4042 487.762C56.3312 487.911 55.4625 488.321 54.7982 488.991C54.1443 489.66 53.6934 490.543 53.4457 491.639C53.1981 492.736 53.1721 493.991 53.368 495.404ZM87.0435 503.326C84.5981 503.665 82.4246 503.461 80.5229 502.715C78.6302 501.957 77.0827 500.731 75.8803 499.036C74.6766 497.331 73.901 495.225 73.5536 492.718C73.2148 490.272 73.392 488.06 74.0854 486.082C74.7787 484.104 75.9155 482.479 77.4956 481.208C79.0861 479.936 81.0473 479.139 83.3792 478.816C84.9475 478.599 86.4426 478.649 87.8643 478.967C89.2949 479.274 90.5851 479.857 91.735 480.718C92.8951 481.578 93.8641 482.726 94.6417 484.164C95.4179 485.592 95.9462 487.317 96.2264 489.34L96.4773 491.15L76.4035 493.932L75.8373 489.846L89.7048 487.924C89.5733 486.975 89.2504 486.163 88.7362 485.487C88.2219 484.812 87.5699 484.319 86.7802 484.008C85.9993 483.685 85.1291 483.59 84.1695 483.723C83.1686 483.861 82.3134 484.216 81.6039 484.788C80.9033 485.348 80.3899 486.044 80.0638 486.878C79.7362 487.702 79.6323 488.584 79.7521 489.524L80.2904 493.409C80.4533 494.585 80.8108 495.572 81.3629 496.368C81.9252 497.163 82.641 497.737 83.5101 498.09C84.3792 498.442 85.3658 498.542 86.4699 498.389C87.2025 498.288 87.8588 498.092 88.439 497.801C89.0192 497.51 89.4974 497.129 89.8735 496.656C90.2497 496.183 90.5098 495.632 90.6539 495.002L96.8077 494.559C96.7011 496.067 96.2438 497.435 95.4358 498.661C94.6367 499.876 93.526 500.893 92.1039 501.71C90.6907 502.516 89.0039 503.054 87.0435 503.326ZM104.394 468.143L108.786 499.84L102.193 500.754L97.8012 469.057L104.394 468.143ZM124.873 498.084C122.469 498.417 120.319 498.195 118.424 497.416C116.537 496.626 114.992 495.379 113.788 493.673C112.583 491.958 111.812 489.883 111.474 487.448C111.134 484.992 111.311 482.78 112.006 480.812C112.699 478.833 113.847 477.213 115.449 475.95C117.061 474.675 119.068 473.871 121.472 473.538C123.876 473.205 126.022 473.433 127.909 474.223C129.804 475.002 131.355 476.249 132.56 477.964C133.763 479.669 134.535 481.75 134.876 484.205C135.213 486.64 135.035 488.847 134.342 490.826C133.647 492.794 132.494 494.415 130.883 495.69C129.281 496.953 127.278 497.751 124.873 498.084ZM124.197 492.973C125.29 492.821 126.161 492.385 126.808 491.664C127.453 490.933 127.886 490.001 128.108 488.866C128.339 487.729 128.359 486.47 128.168 485.087C127.976 483.705 127.614 482.498 127.083 481.468C126.561 480.436 125.89 479.656 125.07 479.128C124.251 478.6 123.294 478.412 122.2 478.563C121.096 478.716 120.211 479.16 119.545 479.894C118.889 480.626 118.446 481.56 118.214 482.696C117.993 483.831 117.978 485.09 118.169 486.473C118.361 487.855 118.718 489.063 119.239 490.095C119.771 491.125 120.452 491.904 121.282 492.43C122.121 492.945 123.093 493.126 124.197 492.973ZM145.486 480.747L147.39 494.491L140.797 495.405L137.503 471.632L143.787 470.761L144.368 474.956L144.647 474.917C144.981 473.461 145.712 472.245 146.838 471.269C147.964 470.282 149.408 469.667 151.173 469.422C152.824 469.194 154.313 469.355 155.641 469.907C156.969 470.46 158.066 471.359 158.933 472.606C159.799 473.843 160.359 475.385 160.615 477.231L162.713 492.368L156.119 493.282L154.185 479.321C153.994 477.865 153.465 476.782 152.599 476.071C151.731 475.35 150.637 475.081 149.316 475.264C148.429 475.387 147.671 475.686 147.043 476.162C146.425 476.637 145.976 477.267 145.696 478.053C145.425 478.826 145.355 479.725 145.486 480.747ZM179.923 499.574C177.787 499.87 175.915 499.83 174.307 499.453C172.71 499.086 171.393 498.464 170.357 497.587C169.32 496.711 168.582 495.667 168.14 494.455L174.125 492.79C174.376 493.239 174.732 493.642 175.191 493.999C175.651 494.356 176.228 494.613 176.923 494.769C177.629 494.934 178.462 494.95 179.422 494.817C180.856 494.618 181.989 494.104 182.82 493.273C183.663 492.452 183.972 491.226 183.746 489.596L183.143 485.247L182.865 485.285C182.667 485.986 182.321 486.67 181.824 487.338C181.328 488.006 180.651 488.589 179.795 489.086C178.938 489.584 177.881 489.919 176.622 490.094C174.837 490.341 173.155 490.154 171.575 489.531C170.004 488.897 168.667 487.784 167.563 486.191C166.468 484.586 165.738 482.469 165.373 479.837C165 477.144 165.127 474.834 165.754 472.907C166.381 470.98 167.36 469.467 168.69 468.367C170.031 467.267 171.573 466.596 173.317 466.354C174.648 466.17 175.794 466.242 176.754 466.572C177.713 466.891 178.513 467.348 179.153 467.943C179.801 468.526 180.32 469.117 180.707 469.715L180.955 469.681L180.402 465.688L186.949 464.781L190.275 488.786C190.555 490.808 190.294 492.569 189.492 494.068C188.691 495.567 187.46 496.779 185.8 497.703C184.152 498.636 182.193 499.26 179.923 499.574ZM178.025 484.852C179.088 484.704 179.949 484.317 180.609 483.689C181.277 483.05 181.739 482.207 181.994 481.163C182.258 480.106 182.293 478.881 182.1 477.488C181.907 476.095 181.544 474.915 181.01 473.948C180.475 472.971 179.797 472.25 178.975 471.785C178.154 471.321 177.211 471.162 176.149 471.309C175.065 471.459 174.193 471.88 173.531 472.571C172.869 473.252 172.418 474.134 172.179 475.219C171.94 476.304 171.914 477.522 172.102 478.874C172.292 480.246 172.647 481.406 173.168 482.354C173.697 483.29 174.366 483.981 175.174 484.426C175.991 484.86 176.942 485.002 178.025 484.852ZM214.927 460.904L215.614 465.857L201.297 467.84L200.611 462.888L214.927 460.904ZM203.072 456.742L209.665 455.828L212.736 477.991C212.821 478.6 212.979 479.062 213.212 479.377C213.444 479.681 213.734 479.878 214.083 479.966C214.442 480.053 214.843 480.066 215.287 480.004C215.596 479.961 215.902 479.893 216.205 479.798C216.506 479.693 216.736 479.614 216.897 479.56L218.614 484.323C218.298 484.472 217.85 484.655 217.27 484.872C216.692 485.099 215.977 485.288 215.125 485.437C213.544 485.719 212.122 485.701 210.858 485.382C209.604 485.061 208.576 484.436 207.774 483.506C206.972 482.576 206.469 481.331 206.263 479.772L203.072 456.742ZM233.066 483.093C230.662 483.426 228.512 483.204 226.617 482.425C224.73 481.635 223.185 480.387 221.981 478.682C220.776 476.967 220.005 474.892 219.667 472.456C219.327 470.001 219.504 467.789 220.199 465.821C220.892 463.842 222.04 462.221 223.642 460.958C225.253 459.683 227.261 458.879 229.665 458.546C232.069 458.213 234.215 458.442 236.101 459.232C237.997 460.01 239.547 461.257 240.753 462.973C241.956 464.678 242.728 466.758 243.069 469.214C243.406 471.649 243.228 473.856 242.535 475.834C241.84 477.802 240.687 479.424 239.076 480.699C237.474 481.962 235.47 482.76 233.066 483.093ZM232.39 477.981C233.483 477.83 234.354 477.394 235 476.673C235.646 475.942 236.079 475.009 236.3 473.874C236.532 472.738 236.552 471.479 236.361 470.096C236.169 468.713 235.807 467.507 235.275 466.476C234.754 465.444 234.083 464.665 233.263 464.137C232.444 463.609 231.487 463.421 230.393 463.572C229.289 463.725 228.404 464.168 227.738 464.902C227.082 465.635 226.639 466.569 226.407 467.705C226.186 468.84 226.171 470.099 226.362 471.481C226.554 472.864 226.911 474.071 227.432 475.103C227.964 476.134 228.645 476.912 229.475 477.439C230.314 477.953 231.286 478.134 232.39 477.981ZM264.383 487.367C263.547 487.482 262.754 487.524 262.002 487.491C261.263 487.468 260.642 487.391 260.141 487.26L260.944 482.133C261.751 482.263 262.466 482.295 263.088 482.23C263.72 482.164 264.241 481.944 264.653 481.572C265.074 481.198 265.378 480.619 265.564 479.836L265.811 478.777L253.895 455.505L260.829 454.544L268.169 471.32L268.417 471.286L270.966 453.139L277.946 452.172L272.357 479.794C272.09 481.135 271.641 482.333 271.009 483.388C270.389 484.452 269.536 485.322 268.452 485.998C267.37 486.685 266.013 487.141 264.383 487.367ZM294.654 474.56C292.25 474.893 290.1 474.67 288.204 473.892C286.317 473.101 284.772 471.854 283.568 470.149C282.363 468.433 281.592 466.358 281.255 463.923C280.914 461.467 281.092 459.255 281.786 457.287C282.48 455.309 283.628 453.688 285.23 452.425C286.841 451.15 288.848 450.346 291.253 450.013C293.657 449.68 295.802 449.908 297.689 450.698C299.584 451.477 301.135 452.724 302.34 454.439C303.544 456.144 304.316 458.225 304.656 460.68C304.993 463.115 304.815 465.322 304.122 467.301C303.427 469.269 302.274 470.89 300.663 472.165C299.061 473.428 297.058 474.226 294.654 474.56ZM293.977 469.448C295.071 469.296 295.941 468.86 296.588 468.14C297.233 467.409 297.667 466.476 297.888 465.341C298.12 464.205 298.14 462.945 297.948 461.563C297.756 460.18 297.395 458.973 296.863 457.943C296.341 456.911 295.671 456.131 294.851 455.603C294.031 455.075 293.074 454.887 291.98 455.039C290.876 455.192 289.991 455.635 289.325 456.369C288.67 457.101 288.226 458.035 287.994 459.172C287.773 460.307 287.758 461.565 287.95 462.948C288.141 464.331 288.498 465.538 289.019 466.57C289.551 467.6 290.232 468.379 291.062 468.905C291.901 469.42 292.873 469.601 293.977 469.448ZM324.42 459.646L322.528 445.995L329.122 445.081L332.416 468.854L326.085 469.731L325.487 465.413L325.239 465.447C324.896 466.915 324.159 468.158 323.027 469.177C321.906 470.195 320.453 470.827 318.668 471.074C317.079 471.294 315.631 471.127 314.324 470.572C313.017 470.017 311.93 469.121 311.065 467.885C310.21 466.646 309.648 465.1 309.381 463.244L307.283 448.107L313.877 447.193L315.811 461.154C316.016 462.556 316.546 463.613 317.402 464.325C318.258 465.037 319.31 465.307 320.558 465.134C321.353 465.024 322.071 464.74 322.712 464.283C323.352 463.816 323.833 463.192 324.156 462.411C324.489 461.629 324.577 460.707 324.42 459.646ZM345.568 470.141L389.152 464.102L383.113 420.518L339.529 426.557L345.568 470.141Z" fill="white"/>
<path d="M426.709 446.422C426.25 444.992 424.956 443.296 422.774 442.088C421.702 441.49 420.648 441.15 419.648 441.08L419.549 440.364C421.41 439.638 423.122 438.081 424.089 436.158C424.579 435.187 424.851 434.264 424.896 433.338L425.612 433.238C426.14 434.919 427.733 436.643 429.716 437.671C430.689 438.178 431.668 438.477 432.634 438.551L432.733 439.267C430.896 439.921 428.932 441.912 428.08 443.784C427.655 444.728 427.442 445.574 427.425 446.323L426.709 446.422Z" fill="white"/>
<path d="M476.171 448.935L468.99 449.93L475.54 416.717L484.176 415.52L499.495 445.703L492.314 446.698L480.986 423.345L480.738 423.379L476.171 448.935ZM473.996 436.538L490.959 434.188L491.684 439.419L474.721 441.769L473.996 436.538ZM505.388 412.581L509.78 444.278L503.186 445.192L498.794 413.495L505.388 412.581ZM517.263 410.936L521.654 442.633L515.061 443.546L510.669 411.849L517.263 410.936ZM542.329 448.854C541.493 448.97 540.7 449.012 539.949 448.979C539.209 448.955 538.589 448.878 538.087 448.748L538.891 443.62C539.697 443.75 540.412 443.783 541.034 443.718C541.666 443.651 542.188 443.432 542.599 443.059C543.02 442.685 543.324 442.107 543.51 441.324L543.757 440.264L531.841 416.992L538.775 416.031L546.116 432.808L546.363 432.773L548.912 414.627L555.893 413.66L550.303 441.282C550.036 442.623 549.587 443.821 548.955 444.876C548.335 445.94 547.483 446.81 546.398 447.486C545.316 448.172 543.959 448.628 542.329 448.854ZM572.6 436.047C570.196 436.38 568.046 436.158 566.15 435.379C564.264 434.589 562.718 433.341 561.515 431.636C560.309 429.921 559.538 427.846 559.201 425.41C558.86 422.955 559.038 420.743 559.732 418.775C560.426 416.796 561.574 415.175 563.176 413.912C564.787 412.637 566.795 411.833 569.199 411.5C571.603 411.167 573.748 411.396 575.635 412.186C577.531 412.964 579.081 414.211 580.286 415.927C581.49 417.632 582.262 419.712 582.602 422.168C582.94 424.603 582.762 426.81 582.068 428.788C581.373 430.756 580.221 432.378 578.609 433.653C577.007 434.916 575.004 435.714 572.6 436.047ZM571.923 430.935C573.017 430.784 573.887 430.348 574.534 429.627C575.179 428.896 575.613 427.963 575.834 426.828C576.066 425.692 576.086 424.433 575.894 423.05C575.703 421.667 575.341 420.461 574.809 419.43C574.287 418.398 573.617 417.619 572.797 417.091C571.977 416.563 571.02 416.375 569.927 416.526C568.823 416.679 567.938 417.122 567.272 417.856C566.616 418.589 566.172 419.523 565.941 420.659C565.719 421.794 565.704 423.053 565.896 424.435C566.087 425.818 566.444 427.025 566.966 428.057C567.497 429.088 568.178 429.866 569.009 430.393C569.848 430.907 570.819 431.088 571.923 430.935ZM602.366 421.133L600.474 407.482L607.068 406.569L610.362 430.342L604.032 431.219L603.433 426.901L603.186 426.935C602.842 428.402 602.105 429.645 600.973 430.664C599.852 431.682 598.399 432.315 596.614 432.562C595.025 432.782 593.577 432.615 592.27 432.06C590.963 431.505 589.876 430.609 589.011 429.372C588.156 428.134 587.594 426.587 587.327 424.731L585.229 409.595L591.823 408.681L593.757 422.641C593.962 424.043 594.492 425.1 595.348 425.812C596.204 426.525 597.256 426.794 598.504 426.621C599.299 426.511 600.017 426.228 600.658 425.771C601.298 425.304 601.779 424.679 602.102 423.899C602.436 423.116 602.523 422.194 602.366 421.133ZM615.636 429.611L612.342 405.838L618.734 404.952L619.308 409.1L619.556 409.066C619.785 407.53 620.358 406.315 621.275 405.42C622.191 404.515 623.314 403.971 624.645 403.786C624.975 403.74 625.334 403.712 625.722 403.7C626.109 403.688 626.452 403.699 626.751 403.731L627.562 409.581C627.239 409.531 626.8 409.508 626.243 409.512C625.686 409.515 625.181 409.548 624.727 409.611C623.757 409.746 622.919 410.077 622.214 410.606C621.518 411.123 621 411.784 620.659 412.588C620.329 413.391 620.231 414.278 620.365 415.248L622.229 428.697L615.636 429.611ZM652.37 424.915C650.564 425.165 648.865 424.928 647.271 424.202C645.686 423.465 644.339 422.247 643.231 420.55C642.132 418.841 641.399 416.661 641.031 414.009C640.654 411.285 640.779 408.959 641.405 407.032C642.031 405.095 643.009 403.576 644.339 402.477C645.679 401.366 647.22 400.69 648.964 400.448C650.295 400.264 651.436 400.337 652.386 400.668C653.345 400.987 654.145 401.444 654.784 402.039C655.433 402.622 655.946 403.214 656.324 403.814L656.525 403.786L654.874 391.868L661.451 390.957L665.843 422.654L659.343 423.555L658.815 419.747L658.537 419.786C658.319 420.489 657.971 421.205 657.494 421.934C657.025 422.651 656.371 423.283 655.532 423.83C654.703 424.376 653.649 424.738 652.37 424.915ZM653.732 419.379C654.795 419.232 655.653 418.818 656.305 418.139C656.967 417.448 657.421 416.549 657.667 415.442C657.923 414.334 657.954 413.073 657.758 411.66C657.562 410.246 657.196 409.045 656.659 408.058C656.123 407.07 655.444 406.344 654.622 405.879C653.801 405.415 652.859 405.256 651.796 405.403C650.712 405.553 649.84 405.974 649.179 406.665C648.517 407.356 648.068 408.249 647.83 409.344C647.593 410.439 647.569 411.673 647.76 413.045C647.951 414.428 648.312 415.624 648.841 416.634C649.378 417.632 650.055 418.379 650.871 418.876C651.695 419.362 652.649 419.529 653.732 419.379ZM678.105 421.412C676.589 421.623 675.2 421.547 673.941 421.185C672.68 420.813 671.632 420.154 670.796 419.207C669.969 418.249 669.447 416.986 669.23 415.418C669.047 414.097 669.136 412.954 669.496 411.989C669.857 411.024 670.417 410.211 671.177 409.548C671.937 408.885 672.829 408.341 673.853 407.915C674.888 407.488 675.985 407.136 677.146 406.86C678.508 406.524 679.604 406.235 680.433 405.994C681.261 405.743 681.847 405.461 682.193 405.151C682.539 404.84 682.677 404.432 682.607 403.926L682.594 403.833C682.459 402.853 682.044 402.137 681.351 401.687C680.667 401.234 679.764 401.086 678.639 401.242C677.452 401.406 676.545 401.8 675.916 402.424C675.286 403.037 674.912 403.751 674.793 404.567L668.627 404.917C668.736 403.429 669.172 402.096 669.934 400.918C670.695 399.73 671.753 398.752 673.108 397.986C674.473 397.208 676.104 396.687 678.003 396.424C679.324 396.241 680.609 396.221 681.859 396.363C683.12 396.504 684.264 396.835 685.293 397.354C686.333 397.873 687.197 398.605 687.885 399.551C688.572 400.486 689.013 401.661 689.209 403.074L691.431 419.109L685.178 419.975L684.721 416.678L684.536 416.704C684.257 417.5 683.837 418.226 683.276 418.882C682.713 419.528 682.005 420.073 681.152 420.517C680.297 420.951 679.282 421.249 678.105 421.412ZM679.363 416.601C680.333 416.466 681.163 416.157 681.853 415.672C682.542 415.177 683.052 414.57 683.383 413.851C683.715 413.132 683.823 412.355 683.707 411.519L683.357 408.996C683.169 409.159 682.903 409.322 682.557 409.485C682.221 409.637 681.837 409.79 681.406 409.945C680.974 410.089 680.541 410.227 680.108 410.361C679.672 410.485 679.278 410.597 678.924 410.699C678.166 410.919 677.515 411.194 676.971 411.521C676.428 411.849 676.026 412.247 675.764 412.714C675.502 413.171 675.413 413.709 675.499 414.328C675.623 415.226 676.043 415.867 676.759 416.251C677.484 416.624 678.352 416.741 679.363 416.601ZM705.897 392.875L706.583 397.828L692.267 399.811L691.581 394.859L705.897 392.875ZM694.042 388.713L700.635 387.799L703.706 409.962C703.79 410.571 703.949 411.033 704.182 411.348C704.413 411.652 704.703 411.848 705.052 411.937C705.411 412.024 705.813 412.037 706.256 411.975C706.566 411.932 706.872 411.864 707.174 411.769C707.475 411.664 707.706 411.585 707.867 411.531L709.584 416.294C709.268 416.443 708.82 416.626 708.24 416.843C707.661 417.07 706.946 417.259 706.094 417.408C704.514 417.69 703.091 417.672 701.827 417.353C700.574 417.032 699.546 416.407 698.744 415.477C697.942 414.547 697.438 413.302 697.233 411.743L694.042 388.713ZM720.327 415.562C718.81 415.772 717.422 415.697 716.163 415.335C714.902 414.963 713.853 414.303 713.018 413.357C712.191 412.399 711.669 411.136 711.451 409.567C711.268 408.247 711.357 407.104 711.718 406.139C712.078 405.174 712.639 404.36 713.399 403.698C714.159 403.035 715.051 402.491 716.075 402.065C717.109 401.638 718.207 401.286 719.367 401.009C720.73 400.673 721.826 400.385 722.655 400.144C723.482 399.892 724.069 399.611 724.415 399.3C724.761 398.99 724.899 398.581 724.829 398.076L724.816 397.983C724.68 397.003 724.266 396.287 723.572 395.836C722.889 395.384 721.985 395.236 720.861 395.392C719.674 395.556 718.766 395.95 718.138 396.574C717.507 397.187 717.133 397.901 717.015 398.717L710.848 399.066C710.958 397.579 711.393 396.246 712.156 395.068C712.916 393.879 713.974 392.902 715.33 392.136C716.695 391.358 718.326 390.837 720.225 390.574C721.545 390.391 722.831 390.371 724.081 390.513C725.341 390.654 726.486 390.984 727.515 391.504C728.554 392.023 729.418 392.755 730.107 393.701C730.794 394.636 731.235 395.81 731.431 397.224L733.653 413.258L727.4 414.125L726.943 410.828L726.757 410.854C726.478 411.65 726.058 412.376 725.497 413.032C724.935 413.678 724.227 414.223 723.374 414.667C722.519 415.101 721.503 415.399 720.327 415.562ZM721.585 410.75C722.555 410.616 723.385 410.306 724.075 409.822C724.763 409.327 725.273 408.72 725.605 408.001C725.936 407.282 726.044 406.504 725.928 405.669L725.579 403.146C725.391 403.308 725.124 403.472 724.779 403.635C724.443 403.787 724.059 403.94 723.628 404.094C723.196 404.238 722.763 404.377 722.329 404.511C721.894 404.634 721.5 404.747 721.146 404.848C720.387 405.069 719.737 405.343 719.193 405.671C718.65 405.999 718.247 406.396 717.986 406.864C717.723 407.321 717.635 407.859 717.721 408.478C717.845 409.376 718.265 410.017 718.981 410.401C719.706 410.774 720.574 410.89 721.585 410.75ZM755.696 410.661C754.179 410.872 752.791 410.796 751.532 410.434C750.271 410.062 749.222 409.403 748.387 408.456C747.56 407.498 747.038 406.235 746.821 404.667C746.638 403.346 746.726 402.203 747.087 401.238C747.448 400.273 748.008 399.46 748.768 398.797C749.528 398.134 750.42 397.59 751.444 397.164C752.478 396.737 753.576 396.385 754.737 396.109C756.099 395.773 757.195 395.484 758.024 395.243C758.851 394.992 759.438 394.71 759.784 394.4C760.13 394.089 760.268 393.681 760.198 393.175L760.185 393.082C760.049 392.102 759.635 391.386 758.941 390.936C758.258 390.483 757.354 390.335 756.23 390.491C755.043 390.655 754.135 391.049 753.507 391.673C752.877 392.286 752.502 393 752.384 393.816L746.217 394.166C746.327 392.678 746.763 391.345 747.525 390.167C748.285 388.979 749.344 388.001 750.699 387.235C752.064 386.457 753.695 385.936 755.594 385.673C756.914 385.49 758.2 385.47 759.45 385.612C760.71 385.753 761.855 386.084 762.884 386.603C763.923 387.122 764.787 387.854 765.476 388.8C766.163 389.735 766.604 390.91 766.8 392.323L769.022 408.358L762.769 409.224L762.312 405.927L762.126 405.953C761.848 406.749 761.428 407.475 760.866 408.131C760.304 408.777 759.596 409.322 758.743 409.766C757.888 410.2 756.872 410.498 755.696 410.661ZM756.954 405.85C757.924 405.715 758.754 405.406 759.444 404.921C760.132 404.426 760.642 403.819 760.974 403.1C761.305 402.381 761.413 401.604 761.297 400.768L760.948 398.245C760.76 398.408 760.494 398.571 760.148 398.734C759.812 398.886 759.428 399.039 758.997 399.194C758.565 399.338 758.132 399.476 757.698 399.61C757.263 399.734 756.869 399.846 756.515 399.948C755.757 400.168 755.106 400.443 754.562 400.77C754.019 401.098 753.616 401.496 753.355 401.963C753.092 402.42 753.004 402.958 753.09 403.577C753.214 404.475 753.634 405.116 754.35 405.5C755.075 405.873 755.943 405.99 756.954 405.85ZM774.137 407.649L770.843 383.876L777.235 382.99L777.81 387.138L778.057 387.104C778.286 385.568 778.859 384.353 779.776 383.458C780.692 382.553 781.815 382.009 783.146 381.824C783.477 381.778 783.835 381.75 784.223 381.738C784.61 381.726 784.954 381.737 785.253 381.769L786.063 387.619C785.741 387.569 785.301 387.546 784.744 387.55C784.187 387.553 783.682 387.586 783.228 387.649C782.258 387.784 781.421 388.115 780.716 388.644C780.02 389.161 779.501 389.822 779.161 390.626C778.83 391.429 778.732 392.316 778.867 393.286L780.73 406.735L774.137 407.649ZM801.762 404.294C799.317 404.633 797.143 404.43 795.242 403.683C793.349 402.926 791.801 401.699 790.599 400.005C789.395 398.299 788.62 396.193 788.272 393.686C787.933 391.241 788.111 389.029 788.804 387.05C789.497 385.072 790.634 383.447 792.214 382.177C793.805 380.905 795.766 380.107 798.098 379.784C799.666 379.567 801.161 379.617 802.583 379.936C804.013 380.242 805.304 380.826 806.454 381.686C807.614 382.546 808.583 383.694 809.36 385.133C810.137 386.56 810.665 388.285 810.945 390.308L811.196 392.119L791.122 394.9L790.556 390.814L804.423 388.893C804.292 387.943 803.969 387.131 803.455 386.456C802.941 385.78 802.289 385.287 801.499 384.976C800.718 384.653 799.848 384.558 798.888 384.691C797.887 384.829 797.032 385.185 796.322 385.756C795.622 386.316 795.108 387.013 794.782 387.847C794.455 388.67 794.351 389.552 794.471 390.493L795.009 394.377C795.172 395.554 795.529 396.54 796.081 397.336C796.644 398.131 797.36 398.705 798.229 399.058C799.098 399.411 800.084 399.511 801.188 399.358C801.921 399.256 802.577 399.06 803.158 398.769C803.738 398.479 804.216 398.097 804.592 397.624C804.968 397.151 805.228 396.6 805.372 395.97L811.526 395.527C811.42 397.036 810.962 398.403 810.154 399.63C809.355 400.844 808.245 401.861 806.823 402.678C805.409 403.484 803.723 404.023 801.762 404.294ZM827.123 400.307L822.731 368.61L829.324 367.696L830.975 379.614L831.177 379.586C831.377 378.906 831.705 378.198 832.16 377.462C832.624 376.714 833.269 376.057 834.095 375.49C834.93 374.912 836.013 374.53 837.344 374.346C839.077 374.106 840.74 374.338 842.331 375.043C843.92 375.738 845.279 376.932 846.408 378.627C847.535 380.311 848.287 382.515 848.665 385.239C849.032 387.891 848.914 390.189 848.311 392.134C847.717 394.067 846.752 395.605 845.417 396.747C844.09 397.877 842.525 398.567 840.719 398.818C839.439 398.995 838.322 398.934 837.365 398.635C836.419 398.335 835.618 397.905 834.962 397.344C834.305 396.772 833.78 396.177 833.39 395.558L833.096 395.599L833.623 399.406L827.123 400.307ZM831.93 387.526C832.126 388.94 832.493 390.146 833.03 391.144C833.568 392.142 834.25 392.884 835.074 393.369C835.897 393.844 836.84 394.008 837.903 393.86C838.976 393.712 839.843 393.292 840.504 392.601C841.164 391.899 841.612 390.996 841.848 389.891C842.093 388.773 842.12 387.524 841.928 386.141C841.738 384.769 841.38 383.588 840.854 382.599C840.327 381.609 839.652 380.872 838.828 380.387C838.003 379.902 837.049 379.734 835.966 379.884C834.893 380.033 834.024 380.443 833.36 381.113C832.706 381.782 832.255 382.665 832.008 383.761C831.76 384.858 831.734 386.113 831.93 387.526ZM865.605 395.448C863.16 395.787 860.986 395.583 859.085 394.837C857.192 394.08 855.644 392.853 854.442 391.158C853.238 389.453 852.463 387.347 852.115 384.84C851.777 382.394 851.954 380.183 852.647 378.204C853.34 376.226 854.477 374.601 856.057 373.331C857.648 372.059 859.609 371.261 861.941 370.938C863.509 370.721 865.004 370.771 866.426 371.089C867.857 371.396 869.147 371.98 870.297 372.84C871.457 373.7 872.426 374.848 873.203 376.286C873.98 377.714 874.508 379.439 874.788 381.462L875.039 383.273L854.965 386.054L854.399 381.968L868.267 380.047C868.135 379.097 867.812 378.285 867.298 377.61C866.784 376.934 866.132 376.441 865.342 376.13C864.561 375.807 863.691 375.712 862.731 375.845C861.73 375.983 860.875 376.338 860.166 376.91C859.465 377.47 858.952 378.167 858.626 379C858.298 379.824 858.194 380.706 858.314 381.646L858.852 385.531C859.015 386.707 859.373 387.694 859.925 388.49C860.487 389.285 861.203 389.859 862.072 390.212C862.941 390.564 863.928 390.664 865.032 390.511C865.764 390.41 866.421 390.214 867.001 389.923C867.581 389.632 868.059 389.251 868.435 388.778C868.811 388.305 869.072 387.754 869.216 387.124L875.369 386.681C875.263 388.189 874.806 389.557 873.998 390.783C873.198 391.998 872.088 393.015 870.666 393.832C869.253 394.638 867.566 395.177 865.605 395.448ZM882.956 360.265L887.348 391.962L880.755 392.876L876.363 361.179L882.956 360.265ZM903.435 390.206C901.031 390.54 898.881 390.317 896.986 389.538C895.099 388.748 893.554 387.501 892.35 385.796C891.145 384.08 890.373 382.005 890.036 379.57C889.696 377.114 889.873 374.902 890.568 372.934C891.261 370.956 892.409 369.335 894.011 368.072C895.622 366.797 897.63 365.993 900.034 365.66C902.438 365.327 904.584 365.555 906.47 366.345C908.366 367.124 909.916 368.371 911.121 370.086C912.325 371.791 913.097 373.872 913.437 376.327C913.775 378.762 913.597 380.969 912.904 382.948C912.209 384.916 911.056 386.537 909.445 387.812C907.843 389.075 905.839 389.873 903.435 390.206ZM902.759 385.095C903.852 384.943 904.722 384.507 905.369 383.786C906.015 383.056 906.448 382.123 906.669 380.988C906.901 379.852 906.921 378.592 906.729 377.209C906.538 375.827 906.176 374.62 905.644 373.59C905.123 372.558 904.452 371.778 903.632 371.25C902.812 370.722 901.856 370.534 900.762 370.685C899.658 370.838 898.773 371.282 898.107 372.016C897.451 372.748 897.008 373.682 896.776 374.819C896.555 375.953 896.54 377.212 896.731 378.595C896.923 379.977 897.279 381.185 897.801 382.217C898.333 383.247 899.014 384.026 899.844 384.552C900.683 385.067 901.654 385.248 902.759 385.095ZM924.048 372.87L925.952 386.613L919.359 387.527L916.065 363.754L922.349 362.883L922.93 367.078L923.208 367.039C923.543 365.583 924.274 364.367 925.4 363.391C926.525 362.404 927.97 361.789 929.735 361.544C931.386 361.316 932.875 361.477 934.203 362.029C935.531 362.582 936.628 363.481 937.495 364.728C938.36 365.965 938.921 367.507 939.177 369.354L941.274 384.49L934.681 385.404L932.747 371.443C932.556 369.987 932.027 368.904 931.161 368.193C930.293 367.472 929.199 367.203 927.878 367.386C926.991 367.509 926.233 367.808 925.605 368.284C924.987 368.759 924.538 369.389 924.258 370.175C923.987 370.948 923.916 371.847 924.048 372.87ZM958.485 391.696C956.349 391.992 954.477 391.952 952.868 391.575C951.271 391.208 949.955 390.586 948.919 389.709C947.882 388.833 947.143 387.789 946.702 386.577L952.686 384.912C952.938 385.361 953.293 385.764 953.753 386.121C954.213 386.478 954.79 386.735 955.484 386.891C956.191 387.056 957.024 387.072 957.983 386.939C959.418 386.74 960.55 386.226 961.382 385.395C962.225 384.574 962.534 383.348 962.308 381.718L961.705 377.369L961.427 377.407C961.229 378.108 960.882 378.792 960.386 379.46C959.89 380.128 959.213 380.711 958.357 381.208C957.5 381.706 956.443 382.041 955.184 382.216C953.399 382.463 951.716 382.276 950.137 381.653C948.566 381.019 947.229 379.906 946.125 378.313C945.03 376.708 944.3 374.591 943.935 371.96C943.562 369.267 943.689 366.956 944.316 365.029C944.943 363.102 945.921 361.589 947.252 360.49C948.593 359.389 950.135 358.718 951.879 358.476C953.21 358.292 954.355 358.364 955.316 358.694C956.275 359.013 957.075 359.47 957.714 360.065C958.363 360.648 958.881 361.239 959.269 361.837L959.517 361.803L958.964 357.81L965.51 356.903L968.837 380.908C969.117 382.93 968.856 384.691 968.054 386.19C967.252 387.689 966.022 388.901 964.362 389.825C962.714 390.758 960.755 391.382 958.485 391.696ZM956.587 376.974C957.65 376.826 958.511 376.439 959.171 375.811C959.839 375.172 960.301 374.33 960.556 373.285C960.819 372.228 960.855 371.003 960.662 369.61C960.469 368.217 960.105 367.037 959.572 366.07C959.037 365.093 958.358 364.372 957.537 363.907C956.715 363.443 955.773 363.284 954.71 363.431C953.627 363.581 952.755 364.002 952.093 364.693C951.43 365.374 950.98 366.256 950.741 367.341C950.502 368.426 950.476 369.644 950.663 370.996C950.854 372.368 951.209 373.528 951.729 374.476C952.259 375.412 952.928 376.103 953.736 376.548C954.553 376.982 955.503 377.124 956.587 376.974ZM993.489 353.026L994.175 357.979L979.859 359.962L979.173 355.01L993.489 353.026ZM981.634 348.864L988.227 347.95L991.298 370.113C991.382 370.722 991.541 371.184 991.774 371.499C992.005 371.803 992.296 372 992.644 372.088C993.003 372.175 993.405 372.188 993.848 372.126C994.158 372.083 994.464 372.015 994.766 371.92C995.067 371.815 995.298 371.736 995.459 371.682L997.176 376.445C996.86 376.594 996.412 376.777 995.832 376.994C995.254 377.221 994.538 377.41 993.686 377.559C992.106 377.841 990.684 377.823 989.42 377.504C988.166 377.183 987.138 376.558 986.336 375.628C985.534 374.698 985.03 373.453 984.825 371.894L981.634 348.864ZM1011.63 375.215C1009.22 375.548 1007.07 375.326 1005.18 374.547C1003.29 373.757 1001.75 372.509 1000.54 370.804C999.338 369.089 998.566 367.014 998.229 364.579C997.889 362.123 998.066 359.911 998.761 357.943C999.454 355.964 1000.6 354.344 1002.2 353.08C1003.82 351.806 1005.82 351.002 1008.23 350.668C1010.63 350.335 1012.78 350.564 1014.66 351.354C1016.56 352.133 1018.11 353.379 1019.31 355.095C1020.52 356.8 1021.29 358.88 1021.63 361.336C1021.97 363.771 1021.79 365.978 1021.1 367.956C1020.4 369.924 1019.25 371.546 1017.64 372.821C1016.04 374.084 1014.03 374.882 1011.63 375.215ZM1010.95 370.103C1012.05 369.952 1012.92 369.516 1013.56 368.795C1014.21 368.064 1014.64 367.131 1014.86 365.997C1015.09 364.86 1015.11 363.601 1014.92 362.218C1014.73 360.836 1014.37 359.629 1013.84 358.598C1013.32 357.567 1012.64 356.787 1011.83 356.259C1011.01 355.731 1010.05 355.543 1008.95 355.694C1007.85 355.847 1006.97 356.291 1006.3 357.024C1005.64 357.757 1005.2 358.691 1004.97 359.827C1004.75 360.962 1004.73 362.221 1004.92 363.604C1005.12 364.986 1005.47 366.193 1005.99 367.225C1006.53 368.256 1007.21 369.034 1008.04 369.561C1008.88 370.076 1009.85 370.256 1010.95 370.103ZM1042.94 379.489C1042.11 379.605 1041.32 379.646 1040.56 379.613C1039.82 379.59 1039.2 379.513 1038.7 379.382L1039.51 374.255C1040.31 374.385 1041.03 374.417 1041.65 374.352C1042.28 374.286 1042.8 374.066 1043.21 373.694C1043.64 373.32 1043.94 372.741 1044.13 371.959L1044.37 370.899L1032.46 347.627L1039.39 346.666L1046.73 363.442L1046.98 363.408L1049.53 345.261L1056.51 344.294L1050.92 371.916C1050.65 373.257 1050.2 374.455 1049.57 375.51C1048.95 376.574 1048.1 377.444 1047.01 378.12C1045.93 378.807 1044.57 379.263 1042.94 379.489ZM1073.22 366.682C1070.81 367.015 1068.66 366.792 1066.77 366.014C1064.88 365.223 1063.33 363.976 1062.13 362.271C1060.93 360.555 1060.15 358.48 1059.82 356.045C1059.48 353.589 1059.65 351.377 1060.35 349.409C1061.04 347.431 1062.19 345.81 1063.79 344.547C1065.4 343.272 1067.41 342.468 1069.81 342.135C1072.22 341.802 1074.36 342.03 1076.25 342.82C1078.15 343.599 1079.7 344.846 1080.9 346.561C1082.11 348.266 1082.88 350.347 1083.22 352.802C1083.56 355.238 1083.38 357.444 1082.68 359.423C1081.99 361.391 1080.84 363.012 1079.23 364.287C1077.62 365.55 1075.62 366.348 1073.22 366.682ZM1072.54 361.57C1073.63 361.418 1074.5 360.982 1075.15 360.262C1075.79 359.531 1076.23 358.598 1076.45 357.463C1076.68 356.327 1076.7 355.067 1076.51 353.685C1076.32 352.302 1075.96 351.095 1075.42 350.065C1074.9 349.033 1074.23 348.253 1073.41 347.725C1072.59 347.197 1071.64 347.009 1070.54 347.161C1069.44 347.314 1068.55 347.757 1067.89 348.491C1067.23 349.223 1066.79 350.157 1066.56 351.294C1066.33 352.429 1066.32 353.687 1066.51 355.07C1066.7 356.453 1067.06 357.66 1067.58 358.692C1068.11 359.722 1068.79 360.501 1069.62 361.027C1070.46 361.542 1071.43 361.723 1072.54 361.57ZM1102.98 351.768L1101.09 338.117L1107.68 337.203L1110.98 360.976L1104.65 361.853L1104.05 357.535L1103.8 357.569C1103.46 359.037 1102.72 360.28 1101.59 361.299C1100.47 362.317 1099.02 362.949 1097.23 363.196C1095.64 363.417 1094.19 363.249 1092.89 362.694C1091.58 362.139 1090.49 361.243 1089.63 360.007C1088.77 358.769 1088.21 357.222 1087.94 355.366L1085.85 340.229L1092.44 339.316L1094.37 353.276C1094.58 354.678 1095.11 355.735 1095.96 356.447C1096.82 357.159 1097.87 357.429 1099.12 357.256C1099.91 357.146 1100.63 356.862 1101.27 356.405C1101.91 355.938 1102.4 355.314 1102.72 354.533C1103.05 353.751 1103.14 352.829 1102.98 351.768ZM1124.13 362.263L1167.71 356.224L1161.67 312.641L1118.09 318.679L1124.13 362.263Z" fill="white"/>
<path d="M1205.27 338.545C1204.81 337.115 1203.52 335.419 1201.34 334.211C1200.26 333.613 1199.21 333.272 1198.21 333.203L1198.11 332.487C1199.97 331.76 1201.68 330.203 1202.65 328.281C1203.14 327.31 1203.41 326.387 1203.46 325.46L1204.17 325.361C1204.7 327.042 1206.29 328.766 1208.28 329.793C1209.25 330.301 1210.23 330.599 1211.2 330.674L1211.29 331.39C1209.46 332.043 1207.49 334.035 1206.64 335.906C1206.22 336.851 1206 337.696 1205.99 338.446L1205.27 338.545Z" fill="white"/>
<path d="M1254.73 341.057L1247.55 342.052L1254.1 308.839L1262.74 307.642L1278.06 337.825L1270.88 338.82L1259.55 315.467L1259.3 315.501L1254.73 341.057ZM1252.56 328.66L1269.52 326.31L1270.25 331.541L1253.28 333.892L1252.56 328.66ZM1283.95 304.703L1288.34 336.4L1281.75 337.314L1277.36 305.617L1283.95 304.703ZM1295.82 303.058L1300.22 334.755L1293.62 335.669L1289.23 303.971L1295.82 303.058ZM1320.89 340.976C1320.06 341.092 1319.26 341.134 1318.51 341.101C1317.77 341.077 1317.15 341 1316.65 340.87L1317.45 335.742C1318.26 335.872 1318.97 335.905 1319.6 335.84C1320.23 335.773 1320.75 335.554 1321.16 335.181C1321.58 334.807 1321.89 334.229 1322.07 333.446L1322.32 332.386L1310.4 309.114L1317.34 308.153L1324.68 324.93L1324.92 324.895L1327.47 306.749L1334.45 305.782L1328.86 333.404C1328.6 334.745 1328.15 335.943 1327.52 336.998C1326.9 338.062 1326.04 338.932 1324.96 339.608C1323.88 340.294 1322.52 340.75 1320.89 340.976ZM1351.16 328.169C1348.76 328.502 1346.61 328.28 1344.71 327.501C1342.83 326.711 1341.28 325.463 1340.08 323.758C1338.87 322.043 1338.1 319.968 1337.76 317.533C1337.42 315.077 1337.6 312.865 1338.29 310.897C1338.99 308.918 1340.14 307.297 1341.74 306.034C1343.35 304.76 1345.36 303.956 1347.76 303.622C1350.16 303.289 1352.31 303.518 1354.2 304.308C1356.09 305.086 1357.64 306.333 1358.85 308.049C1360.05 309.754 1360.82 311.834 1361.16 314.29C1361.5 316.725 1361.32 318.932 1360.63 320.91C1359.94 322.878 1358.78 324.5 1357.17 325.775C1355.57 327.038 1353.57 327.836 1351.16 328.169ZM1350.48 323.057C1351.58 322.906 1352.45 322.47 1353.1 321.749C1353.74 321.018 1354.17 320.085 1354.4 318.951C1354.63 317.814 1354.65 316.555 1354.46 315.172C1354.26 313.79 1353.9 312.583 1353.37 311.552C1352.85 310.521 1352.18 309.741 1351.36 309.213C1350.54 308.685 1349.58 308.497 1348.49 308.648C1347.38 308.801 1346.5 309.245 1345.83 309.978C1345.18 310.711 1344.73 311.645 1344.5 312.781C1344.28 313.916 1344.27 315.175 1344.46 316.558C1344.65 317.94 1345.01 319.147 1345.53 320.179C1346.06 321.21 1346.74 321.988 1347.57 322.515C1348.41 323.03 1349.38 323.21 1350.48 323.057ZM1380.93 313.255L1379.04 299.604L1385.63 298.691L1388.92 322.464L1382.59 323.341L1381.99 319.023L1381.75 319.057C1381.4 320.524 1380.67 321.767 1379.54 322.786C1378.41 323.804 1376.96 324.437 1375.18 324.684C1373.59 324.904 1372.14 324.737 1370.83 324.182C1369.52 323.627 1368.44 322.731 1367.57 321.494C1366.72 320.256 1366.16 318.709 1365.89 316.853L1363.79 301.717L1370.38 300.803L1372.32 314.764C1372.52 316.165 1373.05 317.222 1373.91 317.935C1374.77 318.647 1375.82 318.916 1377.07 318.743C1377.86 318.633 1378.58 318.35 1379.22 317.893C1379.86 317.426 1380.34 316.802 1380.66 316.021C1381 315.238 1381.09 314.317 1380.93 313.255ZM1394.2 321.733L1390.9 297.96L1397.3 297.074L1397.87 301.222L1398.12 301.188C1398.35 299.652 1398.92 298.437 1399.84 297.542C1400.75 296.637 1401.88 296.093 1403.21 295.908C1403.54 295.862 1403.9 295.834 1404.28 295.822C1404.67 295.811 1405.01 295.821 1405.31 295.853L1406.12 301.703C1405.8 301.653 1405.36 301.63 1404.8 301.634C1404.25 301.637 1403.74 301.67 1403.29 301.733C1402.32 301.868 1401.48 302.199 1400.78 302.728C1400.08 303.245 1399.56 303.906 1399.22 304.71C1398.89 305.513 1398.79 306.4 1398.93 307.37L1400.79 320.819L1394.2 321.733ZM1430.93 317.037C1429.13 317.288 1427.43 317.05 1425.83 316.324C1424.25 315.587 1422.9 314.369 1421.79 312.672C1420.69 310.963 1419.96 308.783 1419.59 306.131C1419.22 303.407 1419.34 301.081 1419.97 299.154C1420.59 297.217 1421.57 295.698 1422.9 294.599C1424.24 293.488 1425.78 292.812 1427.53 292.57C1428.86 292.386 1430 292.459 1430.95 292.79C1431.91 293.109 1432.71 293.566 1433.35 294.161C1433.99 294.745 1434.51 295.336 1434.89 295.936L1435.09 295.908L1433.44 283.99L1440.01 283.079L1444.41 314.776L1437.9 315.677L1437.38 311.869L1437.1 311.908C1436.88 312.611 1436.53 313.327 1436.06 314.056C1435.59 314.773 1434.93 315.405 1434.09 315.952C1433.27 316.498 1432.21 316.86 1430.93 317.037ZM1432.29 311.501C1433.36 311.354 1434.21 310.941 1434.87 310.261C1435.53 309.57 1435.98 308.671 1436.23 307.564C1436.49 306.456 1436.52 305.195 1436.32 303.782C1436.12 302.368 1435.76 301.168 1435.22 300.18C1434.68 299.192 1434.01 298.466 1433.18 298.001C1432.36 297.537 1431.42 297.378 1430.36 297.525C1429.27 297.675 1428.4 298.096 1427.74 298.787C1427.08 299.478 1426.63 300.371 1426.39 301.466C1426.15 302.561 1426.13 303.795 1426.32 305.167C1426.51 306.55 1426.87 307.746 1427.4 308.756C1427.94 309.754 1428.62 310.502 1429.43 310.998C1430.26 311.484 1431.21 311.651 1432.29 311.501ZM1456.67 313.535C1455.15 313.745 1453.76 313.669 1452.5 313.307C1451.24 312.935 1450.19 312.276 1449.36 311.329C1448.53 310.371 1448.01 309.108 1447.79 307.54C1447.61 306.219 1447.7 305.076 1448.06 304.111C1448.42 303.146 1448.98 302.333 1449.74 301.67C1450.5 301.007 1451.39 300.463 1452.42 300.037C1453.45 299.61 1454.55 299.258 1455.71 298.982C1457.07 298.646 1458.17 298.357 1458.99 298.116C1459.82 297.865 1460.41 297.584 1460.76 297.273C1461.1 296.962 1461.24 296.554 1461.17 296.048L1461.16 295.955C1461.02 294.975 1460.61 294.259 1459.91 293.809C1459.23 293.356 1458.33 293.208 1457.2 293.364C1456.01 293.529 1455.11 293.922 1454.48 294.546C1453.85 295.159 1453.47 295.873 1453.36 296.689L1447.19 297.039C1447.3 295.551 1447.73 294.218 1448.5 293.04C1449.26 291.852 1450.31 290.874 1451.67 290.108C1453.03 289.33 1454.67 288.81 1456.56 288.546C1457.89 288.363 1459.17 288.343 1460.42 288.485C1461.68 288.626 1462.83 288.957 1463.86 289.477C1464.89 289.995 1465.76 290.727 1466.45 291.673C1467.13 292.608 1467.58 293.783 1467.77 295.196L1469.99 311.231L1463.74 312.097L1463.28 308.8L1463.1 308.826C1462.82 309.622 1462.4 310.348 1461.84 311.004C1461.27 311.65 1460.57 312.195 1459.71 312.639C1458.86 313.073 1457.84 313.372 1456.67 313.535ZM1457.92 308.723C1458.89 308.588 1459.72 308.279 1460.41 307.794C1461.1 307.299 1461.61 306.692 1461.94 305.973C1462.28 305.254 1462.38 304.477 1462.27 303.641L1461.92 301.118C1461.73 301.281 1461.46 301.444 1461.12 301.607C1460.78 301.759 1460.4 301.912 1459.97 302.067C1459.54 302.211 1459.1 302.35 1458.67 302.483C1458.23 302.607 1457.84 302.719 1457.49 302.821C1456.73 303.042 1456.08 303.316 1455.53 303.643C1454.99 303.971 1454.59 304.369 1454.33 304.836C1454.06 305.293 1453.98 305.831 1454.06 306.45C1454.19 307.348 1454.61 307.989 1455.32 308.374C1456.05 308.746 1456.91 308.863 1457.92 308.723ZM1484.46 284.997L1485.14 289.95L1470.83 291.933L1470.14 286.981L1484.46 284.997ZM1472.6 280.835L1479.2 279.921L1482.27 302.084C1482.35 302.693 1482.51 303.155 1482.74 303.47C1482.97 303.774 1483.27 303.971 1483.61 304.059C1483.97 304.146 1484.37 304.159 1484.82 304.097C1485.13 304.054 1485.43 303.986 1485.74 303.891C1486.04 303.786 1486.27 303.707 1486.43 303.653L1488.15 308.416C1487.83 308.565 1487.38 308.748 1486.8 308.965C1486.22 309.192 1485.51 309.381 1484.66 309.53C1483.08 309.812 1481.65 309.794 1480.39 309.475C1479.14 309.154 1478.11 308.529 1477.31 307.599C1476.5 306.669 1476 305.424 1475.79 303.865L1472.6 280.835ZM1498.89 307.684C1497.37 307.894 1495.98 307.819 1494.72 307.457C1493.46 307.085 1492.42 306.425 1491.58 305.479C1490.75 304.521 1490.23 303.258 1490.01 301.689C1489.83 300.369 1489.92 299.226 1490.28 298.261C1490.64 297.296 1491.2 296.482 1491.96 295.82C1492.72 295.157 1493.61 294.613 1494.64 294.187C1495.67 293.76 1496.77 293.408 1497.93 293.131C1499.29 292.795 1500.39 292.507 1501.22 292.266C1502.04 292.014 1502.63 291.733 1502.98 291.422C1503.32 291.112 1503.46 290.703 1503.39 290.198L1503.38 290.105C1503.24 289.125 1502.83 288.409 1502.13 287.958C1501.45 287.506 1500.55 287.358 1499.42 287.514C1498.24 287.678 1497.33 288.072 1496.7 288.696C1496.07 289.309 1495.69 290.023 1495.58 290.839L1489.41 291.188C1489.52 289.701 1489.96 288.368 1490.72 287.19C1491.48 286.001 1492.54 285.024 1493.89 284.258C1495.26 283.48 1496.89 282.959 1498.79 282.696C1500.11 282.513 1501.39 282.493 1502.64 282.635C1503.9 282.776 1505.05 283.106 1506.08 283.626C1507.12 284.145 1507.98 284.877 1508.67 285.823C1509.36 286.758 1509.8 287.933 1509.99 289.346L1512.21 305.38L1505.96 306.247L1505.5 302.95L1505.32 302.976C1505.04 303.772 1504.62 304.498 1504.06 305.154C1503.5 305.8 1502.79 306.345 1501.94 306.789C1501.08 307.223 1500.07 307.521 1498.89 307.684ZM1500.15 302.872C1501.12 302.738 1501.95 302.428 1502.64 301.944C1503.32 301.449 1503.83 300.842 1504.17 300.123C1504.5 299.404 1504.61 298.626 1504.49 297.791L1504.14 295.268C1503.95 295.431 1503.69 295.594 1503.34 295.757C1503 295.909 1502.62 296.062 1502.19 296.216C1501.76 296.36 1501.32 296.499 1500.89 296.633C1500.46 296.756 1500.06 296.869 1499.71 296.971C1498.95 297.191 1498.3 297.465 1497.75 297.793C1497.21 298.121 1496.81 298.518 1496.55 298.986C1496.29 299.443 1496.2 299.981 1496.28 300.6C1496.41 301.498 1496.83 302.139 1497.54 302.523C1498.27 302.896 1499.14 303.012 1500.15 302.872ZM1534.26 302.784C1532.74 302.994 1531.35 302.918 1530.09 302.556C1528.83 302.184 1527.78 301.525 1526.95 300.578C1526.12 299.62 1525.6 298.357 1525.38 296.789C1525.2 295.468 1525.29 294.325 1525.65 293.36C1526.01 292.395 1526.57 291.582 1527.33 290.919C1528.09 290.256 1528.98 289.712 1530.01 289.286C1531.04 288.859 1532.14 288.507 1533.3 288.231C1534.66 287.895 1535.76 287.606 1536.59 287.365C1537.41 287.114 1538 286.833 1538.35 286.522C1538.69 286.211 1538.83 285.803 1538.76 285.297L1538.75 285.204C1538.61 284.224 1538.2 283.508 1537.5 283.058C1536.82 282.605 1535.92 282.457 1534.79 282.613C1533.6 282.778 1532.7 283.171 1532.07 283.795C1531.44 284.408 1531.06 285.122 1530.95 285.938L1524.78 286.288C1524.89 284.8 1525.32 283.467 1526.09 282.289C1526.85 281.101 1527.91 280.123 1529.26 279.357C1530.63 278.579 1532.26 278.059 1534.16 277.795C1535.48 277.612 1536.76 277.592 1538.01 277.734C1539.27 277.875 1540.42 278.206 1541.45 278.726C1542.49 279.244 1543.35 279.976 1544.04 280.922C1544.72 281.857 1545.17 283.032 1545.36 284.445L1547.58 300.48L1541.33 301.346L1540.87 298.049L1540.69 298.075C1540.41 298.871 1539.99 299.597 1539.43 300.253C1538.87 300.899 1538.16 301.444 1537.3 301.888C1536.45 302.322 1535.43 302.621 1534.26 302.784ZM1535.52 297.972C1536.49 297.837 1537.32 297.528 1538.01 297.043C1538.69 296.548 1539.2 295.941 1539.54 295.222C1539.87 294.503 1539.98 293.726 1539.86 292.89L1539.51 290.367C1539.32 290.53 1539.06 290.693 1538.71 290.856C1538.37 291.008 1537.99 291.161 1537.56 291.316C1537.13 291.46 1536.69 291.599 1536.26 291.732C1535.82 291.856 1535.43 291.968 1535.08 292.07C1534.32 292.291 1533.67 292.565 1533.12 292.892C1532.58 293.22 1532.18 293.618 1531.92 294.085C1531.65 294.542 1531.57 295.08 1531.65 295.699C1531.78 296.597 1532.2 297.238 1532.91 297.623C1533.64 297.995 1534.5 298.112 1535.52 297.972ZM1552.7 299.771L1549.4 275.998L1555.8 275.112L1556.37 279.26L1556.62 279.226C1556.85 277.69 1557.42 276.475 1558.34 275.58C1559.25 274.675 1560.38 274.131 1561.71 273.946C1562.04 273.9 1562.4 273.872 1562.78 273.86C1563.17 273.849 1563.52 273.859 1563.81 273.891L1564.62 279.741C1564.3 279.691 1563.86 279.668 1563.31 279.672C1562.75 279.675 1562.24 279.708 1561.79 279.771C1560.82 279.906 1559.98 280.237 1559.28 280.766C1558.58 281.283 1558.06 281.944 1557.72 282.748C1557.39 283.551 1557.29 284.438 1557.43 285.408L1559.29 298.857L1552.7 299.771ZM1580.32 296.416C1577.88 296.755 1575.7 296.552 1573.8 295.806C1571.91 295.048 1570.36 293.821 1569.16 292.127C1567.96 290.422 1567.18 288.315 1566.83 285.808C1566.5 283.363 1566.67 281.151 1567.37 279.172C1568.06 277.194 1569.2 275.569 1570.78 274.299C1572.37 273.027 1574.33 272.229 1576.66 271.906C1578.23 271.689 1579.72 271.739 1581.14 272.058C1582.58 272.364 1583.87 272.948 1585.02 273.809C1586.18 274.668 1587.14 275.817 1587.92 277.255C1588.7 278.682 1589.23 280.408 1589.51 282.43L1589.76 284.241L1569.68 287.022L1569.12 282.936L1582.99 281.015C1582.85 280.065 1582.53 279.253 1582.02 278.578C1581.5 277.902 1580.85 277.409 1580.06 277.098C1579.28 276.775 1578.41 276.68 1577.45 276.813C1576.45 276.951 1575.59 277.307 1574.88 277.878C1574.18 278.438 1573.67 279.135 1573.34 279.969C1573.02 280.792 1572.91 281.674 1573.03 282.615L1573.57 286.499C1573.73 287.676 1574.09 288.662 1574.64 289.458C1575.21 290.253 1575.92 290.827 1576.79 291.18C1577.66 291.533 1578.65 291.633 1579.75 291.48C1580.48 291.378 1581.14 291.182 1581.72 290.891C1582.3 290.601 1582.78 290.219 1583.15 289.746C1583.53 289.273 1583.79 288.722 1583.93 288.092L1590.09 287.65C1589.98 289.158 1589.52 290.525 1588.72 291.752C1587.92 292.967 1586.81 293.983 1585.38 294.8C1583.97 295.606 1582.28 296.145 1580.32 296.416ZM1605.68 292.429L1601.29 260.732L1607.89 259.818L1609.54 271.736L1609.74 271.708C1609.94 271.028 1610.27 270.32 1610.72 269.584C1611.19 268.836 1611.83 268.179 1612.66 267.612C1613.49 267.034 1614.57 266.653 1615.91 266.468C1617.64 266.228 1619.3 266.46 1620.89 267.165C1622.48 267.86 1623.84 269.055 1624.97 270.749C1626.1 272.433 1626.85 274.637 1627.23 277.361C1627.59 280.013 1627.48 282.311 1626.87 284.256C1626.28 286.189 1625.31 287.727 1623.98 288.869C1622.65 289.999 1621.09 290.689 1619.28 290.94C1618 291.117 1616.88 291.056 1615.93 290.758C1614.98 290.457 1614.18 290.027 1613.52 289.466C1612.87 288.894 1612.34 288.299 1611.95 287.68L1611.66 287.721L1612.18 291.528L1605.68 292.429ZM1610.49 279.648C1610.69 281.062 1611.05 282.268 1611.59 283.266C1612.13 284.264 1612.81 285.006 1613.64 285.491C1614.46 285.966 1615.4 286.13 1616.46 285.982C1617.54 285.834 1618.4 285.414 1619.07 284.723C1619.73 284.021 1620.17 283.118 1620.41 282.013C1620.65 280.896 1620.68 279.646 1620.49 278.263C1620.3 276.891 1619.94 275.71 1619.42 274.721C1618.89 273.732 1618.21 272.994 1617.39 272.509C1616.57 272.024 1615.61 271.856 1614.53 272.007C1613.45 272.155 1612.59 272.565 1611.92 273.235C1611.27 273.904 1610.82 274.787 1610.57 275.883C1610.32 276.98 1610.3 278.235 1610.49 279.648ZM1644.17 287.57C1641.72 287.909 1639.55 287.705 1637.65 286.959C1635.75 286.202 1634.21 284.975 1633 283.281C1631.8 281.575 1631.02 279.469 1630.68 276.962C1630.34 274.517 1630.52 272.305 1631.21 270.326C1631.9 268.348 1633.04 266.723 1634.62 265.453C1636.21 264.181 1638.17 263.383 1640.5 263.06C1642.07 262.843 1643.57 262.893 1644.99 263.211C1646.42 263.518 1647.71 264.102 1648.86 264.962C1650.02 265.822 1650.99 266.97 1651.77 268.409C1652.54 269.836 1653.07 271.561 1653.35 273.584L1653.6 275.395L1633.53 278.176L1632.96 274.09L1646.83 272.169C1646.7 271.219 1646.37 270.407 1645.86 269.732C1645.35 269.056 1644.69 268.563 1643.9 268.252C1643.12 267.929 1642.25 267.834 1641.29 267.967C1640.29 268.105 1639.44 268.46 1638.73 269.032C1638.03 269.592 1637.51 270.289 1637.19 271.123C1636.86 271.946 1636.76 272.828 1636.88 273.768L1637.41 277.653C1637.58 278.83 1637.93 279.816 1638.49 280.612C1639.05 281.407 1639.76 281.981 1640.63 282.334C1641.5 282.687 1642.49 282.786 1643.59 282.633C1644.33 282.532 1644.98 282.336 1645.56 282.045C1646.14 281.754 1646.62 281.373 1647 280.9C1647.37 280.427 1647.63 279.876 1647.78 279.246L1653.93 278.803C1653.82 280.311 1653.37 281.679 1652.56 282.906C1651.76 284.12 1650.65 285.137 1649.23 285.954C1647.81 286.76 1646.13 287.299 1644.17 287.57ZM1661.52 252.387L1665.91 284.084L1659.32 284.998L1654.92 253.301L1661.52 252.387ZM1682 282.328C1679.59 282.662 1677.44 282.439 1675.55 281.661C1673.66 280.87 1672.12 279.623 1670.91 277.918C1669.71 276.202 1668.94 274.127 1668.6 271.692C1668.26 269.236 1668.43 267.024 1669.13 265.056C1669.82 263.078 1670.97 261.457 1672.57 260.194C1674.18 258.919 1676.19 258.115 1678.6 257.782C1681 257.449 1683.15 257.677 1685.03 258.467C1686.93 259.246 1688.48 260.493 1689.68 262.208C1690.89 263.913 1691.66 265.994 1692 268.449C1692.34 270.884 1692.16 273.091 1691.47 275.07C1690.77 277.038 1689.62 278.659 1688.01 279.934C1686.4 281.197 1684.4 281.995 1682 282.328ZM1681.32 277.217C1682.41 277.065 1683.28 276.629 1683.93 275.909C1684.58 275.178 1685.01 274.245 1685.23 273.11C1685.46 271.974 1685.48 270.714 1685.29 269.331C1685.1 267.949 1684.74 266.742 1684.21 265.712C1683.68 264.68 1683.01 263.9 1682.19 263.372C1681.37 262.844 1680.42 262.656 1679.32 262.808C1678.22 262.961 1677.33 263.404 1676.67 264.138C1676.01 264.87 1675.57 265.804 1675.34 266.941C1675.12 268.075 1675.1 269.334 1675.29 270.717C1675.48 272.099 1675.84 273.307 1676.36 274.339C1676.89 275.369 1677.58 276.148 1678.41 276.674C1679.24 277.189 1680.22 277.37 1681.32 277.217ZM1702.61 264.992L1704.51 278.735L1697.92 279.649L1694.63 255.876L1700.91 255.005L1701.49 259.2L1701.77 259.161C1702.1 257.706 1702.84 256.49 1703.96 255.513C1705.09 254.526 1706.53 253.911 1708.3 253.666C1709.95 253.438 1711.44 253.599 1712.76 254.152C1714.09 254.704 1715.19 255.603 1716.06 256.85C1716.92 258.087 1717.48 259.629 1717.74 261.476L1719.84 276.612L1713.24 277.526L1711.31 263.565C1711.12 262.109 1710.59 261.026 1709.72 260.315C1708.85 259.594 1707.76 259.325 1706.44 259.508C1705.55 259.631 1704.79 259.93 1704.17 260.406C1703.55 260.881 1703.1 261.511 1702.82 262.297C1702.55 263.07 1702.48 263.969 1702.61 264.992ZM1737.05 283.818C1734.91 284.114 1733.04 284.074 1731.43 283.697C1729.83 283.33 1728.52 282.708 1727.48 281.831C1726.44 280.955 1725.71 279.911 1725.26 278.7L1731.25 277.034C1731.5 277.483 1731.86 277.886 1732.31 278.243C1732.77 278.6 1733.35 278.857 1734.05 279.013C1734.75 279.178 1735.59 279.194 1736.55 279.061C1737.98 278.862 1739.11 278.348 1739.94 277.517C1740.79 276.696 1741.1 275.47 1740.87 273.84L1740.27 269.491L1739.99 269.529C1739.79 270.23 1739.44 270.914 1738.95 271.582C1738.45 272.25 1737.78 272.833 1736.92 273.33C1736.06 273.828 1735 274.164 1733.75 274.338C1731.96 274.585 1730.28 274.398 1728.7 273.775C1727.13 273.141 1725.79 272.028 1724.69 270.435C1723.59 268.831 1722.86 266.713 1722.5 264.082C1722.12 261.389 1722.25 259.078 1722.88 257.151C1723.5 255.224 1724.48 253.711 1725.81 252.612C1727.15 251.511 1728.7 250.84 1730.44 250.598C1731.77 250.414 1732.92 250.486 1733.88 250.816C1734.84 251.135 1735.64 251.592 1736.28 252.187C1736.92 252.77 1737.44 253.361 1737.83 253.959L1738.08 253.925L1737.53 249.932L1744.07 249.025L1747.4 273.03C1747.68 275.052 1747.42 276.813 1746.62 278.312C1745.81 279.811 1744.58 281.023 1742.92 281.947C1741.28 282.88 1739.32 283.504 1737.05 283.818ZM1735.15 269.096C1736.21 268.948 1737.07 268.561 1737.73 267.933C1738.4 267.294 1738.86 266.452 1739.12 265.407C1739.38 264.35 1739.42 263.125 1739.22 261.732C1739.03 260.339 1738.67 259.159 1738.13 258.192C1737.6 257.215 1736.92 256.494 1736.1 256.029C1735.28 255.565 1734.33 255.406 1733.27 255.553C1732.19 255.703 1731.32 256.124 1730.65 256.815C1729.99 257.496 1729.54 258.379 1729.3 259.463C1729.06 260.548 1729.04 261.766 1729.23 263.118C1729.42 264.49 1729.77 265.65 1730.29 266.598C1730.82 267.534 1731.49 268.225 1732.3 268.671C1733.11 269.104 1734.07 269.246 1735.15 269.096ZM1772.05 245.148L1772.74 250.101L1758.42 252.084L1757.73 247.132L1772.05 245.148ZM1760.2 240.986L1766.79 240.072L1769.86 262.236C1769.94 262.844 1770.1 263.306 1770.34 263.621C1770.57 263.925 1770.86 264.122 1771.21 264.21C1771.57 264.297 1771.97 264.31 1772.41 264.248C1772.72 264.205 1773.03 264.137 1773.33 264.042C1773.63 263.937 1773.86 263.858 1774.02 263.804L1775.74 268.567C1775.42 268.716 1774.97 268.899 1774.39 269.116C1773.82 269.343 1773.1 269.532 1772.25 269.681C1770.67 269.963 1769.25 269.945 1767.98 269.626C1766.73 269.305 1765.7 268.68 1764.9 267.75C1764.1 266.82 1763.59 265.575 1763.39 264.016L1760.2 240.986ZM1790.19 267.337C1787.79 267.67 1785.64 267.448 1783.74 266.669C1781.85 265.879 1780.31 264.631 1779.1 262.926C1777.9 261.211 1777.13 259.136 1776.79 256.701C1776.45 254.245 1776.63 252.033 1777.32 250.065C1778.02 248.086 1779.16 246.466 1780.77 245.202C1782.38 243.928 1784.38 243.124 1786.79 242.791C1789.19 242.457 1791.34 242.686 1793.22 243.476C1795.12 244.255 1796.67 245.502 1797.88 247.217C1799.08 248.922 1799.85 251.002 1800.19 253.458C1800.53 255.893 1800.35 258.1 1799.66 260.078C1798.96 262.047 1797.81 263.668 1796.2 264.943C1794.6 266.206 1792.59 267.004 1790.19 267.337ZM1789.51 262.226C1790.61 262.074 1791.48 261.638 1792.12 260.917C1792.77 260.186 1793.2 259.253 1793.42 258.119C1793.66 256.982 1793.68 255.723 1793.48 254.34C1793.29 252.958 1792.93 251.751 1792.4 250.721C1791.88 249.689 1791.21 248.909 1790.39 248.381C1789.57 247.853 1788.61 247.665 1787.52 247.816C1786.41 247.969 1785.53 248.413 1784.86 249.146C1784.21 249.879 1783.76 250.813 1783.53 251.949C1783.31 253.084 1783.29 254.343 1783.49 255.726C1783.68 257.108 1784.03 258.316 1784.56 259.347C1785.09 260.378 1785.77 261.156 1786.6 261.683C1787.44 262.198 1788.41 262.378 1789.51 262.226ZM1821.51 271.611C1820.67 271.727 1819.88 271.768 1819.13 271.736C1818.39 271.712 1817.77 271.635 1817.26 271.505L1818.07 266.377C1818.87 266.507 1819.59 266.539 1820.21 266.474C1820.84 266.408 1821.36 266.188 1821.78 265.816C1822.2 265.442 1822.5 264.864 1822.69 264.081L1822.93 263.021L1811.02 239.749L1817.95 238.788L1825.29 255.564L1825.54 255.53L1828.09 237.383L1835.07 236.416L1829.48 264.038C1829.21 265.379 1828.76 266.577 1828.13 267.632C1827.51 268.696 1826.66 269.566 1825.58 270.242C1824.49 270.929 1823.14 271.385 1821.51 271.611ZM1851.78 258.804C1849.37 259.137 1847.22 258.914 1845.33 258.136C1843.44 257.345 1841.9 256.098 1840.69 254.393C1839.49 252.677 1838.72 250.602 1838.38 248.167C1838.04 245.711 1838.22 243.499 1838.91 241.531C1839.6 239.553 1840.75 237.932 1842.35 236.669C1843.96 235.394 1845.97 234.59 1848.38 234.257C1850.78 233.924 1852.93 234.152 1854.81 234.943C1856.71 235.721 1858.26 236.968 1859.46 238.683C1860.67 240.388 1861.44 242.469 1861.78 244.925C1862.12 247.36 1861.94 249.566 1861.25 251.545C1860.55 253.513 1859.4 255.134 1857.79 256.409C1856.18 257.672 1854.18 258.471 1851.78 258.804ZM1851.1 253.692C1852.19 253.54 1853.06 253.104 1853.71 252.384C1854.36 251.653 1854.79 250.72 1855.01 249.585C1855.24 248.449 1855.26 247.189 1855.07 245.807C1854.88 244.424 1854.52 243.217 1853.99 242.187C1853.46 241.155 1852.79 240.375 1851.97 239.847C1851.15 239.319 1850.2 239.131 1849.1 239.283C1848 239.436 1847.11 239.879 1846.45 240.613C1845.79 241.345 1845.35 242.279 1845.12 243.416C1844.9 244.551 1844.88 245.809 1845.07 247.192C1845.26 248.575 1845.62 249.782 1846.14 250.814C1846.67 251.844 1847.36 252.623 1848.19 253.149C1849.03 253.664 1850 253.845 1851.1 253.692ZM1881.54 243.89L1879.65 230.239L1886.25 229.325L1889.54 253.098L1883.21 253.975L1882.61 249.657L1882.36 249.691C1882.02 251.159 1881.28 252.402 1880.15 253.421C1879.03 254.439 1877.58 255.071 1875.79 255.318C1874.2 255.539 1872.75 255.371 1871.45 254.816C1870.14 254.261 1869.05 253.365 1868.19 252.129C1867.33 250.891 1866.77 249.344 1866.5 247.488L1864.41 232.351L1871 231.438L1872.93 245.398C1873.14 246.8 1873.67 247.857 1874.53 248.569C1875.38 249.281 1876.43 249.551 1877.68 249.378C1878.48 249.268 1879.19 248.984 1879.84 248.527C1880.48 248.06 1880.96 247.436 1881.28 246.655C1881.61 245.873 1881.7 244.951 1881.54 243.89ZM1902.69 254.385L1946.28 248.346L1940.24 204.763L1896.65 210.802L1902.69 254.385Z" fill="white"/>
</g>
</g>
<defs>
<linearGradient id="paint0_linear_2027_636" x1="1370" y1="540.624" x2="1370" y2="640.624" gradientUnits="userSpaceOnUse">
<stop stop-color="#4A2CD7"/>
<stop offset="1" stop-color="#0594E0"/>
</linearGradient>
<clipPath id="clip0_2027_636">
<rect width="1440" height="470" fill="white" transform="translate(0.419922 0.921875)"/>
</clipPath>
<clipPath id="clip1_2027_636">
<rect width="3990" height="90" fill="white" transform="translate(-630 540.624) rotate(-7.8887)"/>
</clipPath>
</defs>
</svg>
