<svg width="816" height="185" viewBox="0 0 816 185" fill="none" xmlns="http://www.w3.org/2000/svg">
<g clip-path="url(#clip0_3_8454)">
<rect x="-46" y="95.699" width="4000" height="100" transform="rotate(-7.8887 -46 95.699)" fill="url(#paint0_linear_3_8454)"/>
<path d="M-406.5 207.233L-410.892 175.536L-389.534 172.576L-388.768 178.101L-403.425 180.132L-402.378 187.685L-388.82 185.807L-388.055 191.332L-401.613 193.211L-400.564 200.779L-385.845 198.739L-385.08 204.265L-406.5 207.233ZM-361.068 176.708L-366.085 201.633L-373.514 202.662L-385.12 180.041L-378.155 179.076L-370.861 195.401L-370.613 195.367L-368.048 177.676L-361.068 176.708ZM-344.268 199.083C-346.713 199.422 -348.887 199.218 -350.789 198.472C-352.681 197.714 -354.229 196.488 -355.431 194.793C-356.635 193.088 -357.411 190.982 -357.758 188.475C-358.097 186.029 -357.919 183.817 -357.226 181.839C-356.533 179.861 -355.396 178.236 -353.816 176.965C-352.225 175.693 -350.264 174.896 -347.932 174.573C-346.364 174.355 -344.869 174.406 -343.447 174.724C-342.017 175.031 -340.726 175.614 -339.577 176.475C-338.416 177.335 -337.447 178.483 -336.67 179.921C-335.894 181.349 -335.365 183.074 -335.085 185.097L-334.834 186.907L-354.908 189.689L-355.474 185.603L-341.607 183.681C-341.738 182.732 -342.061 181.92 -342.575 181.244C-343.09 180.569 -343.742 180.076 -344.531 179.765C-345.312 179.442 -346.182 179.347 -347.142 179.479C-348.143 179.618 -348.998 179.973 -349.708 180.545C-350.408 181.105 -350.922 181.801 -351.248 182.635C-351.575 183.459 -351.679 184.341 -351.559 185.281L-351.021 189.166C-350.858 190.342 -350.501 191.329 -349.949 192.125C-349.386 192.92 -348.671 193.494 -347.801 193.847C-346.932 194.199 -345.946 194.299 -344.842 194.146C-344.109 194.045 -343.453 193.849 -342.873 193.558C-342.292 193.267 -341.814 192.886 -341.438 192.413C-341.062 191.94 -340.802 191.389 -340.658 190.759L-334.504 190.316C-334.61 191.824 -335.068 193.192 -335.876 194.418C-336.675 195.633 -337.785 196.649 -339.208 197.467C-340.621 198.273 -342.308 198.811 -344.268 199.083ZM-329.118 196.511L-332.412 172.738L-326.02 171.852L-325.446 176L-325.198 175.966C-324.969 174.43 -324.396 173.215 -323.479 172.32C-322.563 171.415 -321.44 170.87 -320.109 170.686C-319.779 170.64 -319.42 170.612 -319.032 170.6C-318.645 170.588 -318.302 170.599 -318.003 170.631L-317.192 176.481C-317.514 176.431 -317.954 176.408 -318.511 176.411C-319.068 176.415 -319.573 176.448 -320.027 176.511C-320.997 176.646 -321.835 176.977 -322.539 177.506C-323.235 178.023 -323.754 178.684 -324.095 179.488C-324.425 180.291 -324.523 181.178 -324.389 182.147L-322.525 195.597L-329.118 196.511ZM-305.256 202.29C-306.091 202.406 -306.885 202.448 -307.636 202.415C-308.375 202.391 -308.996 202.314 -309.498 202.184L-308.694 197.056C-307.887 197.186 -307.173 197.219 -306.551 197.154C-305.919 197.087 -305.397 196.868 -304.986 196.495C-304.564 196.121 -304.261 195.543 -304.075 194.76L-303.827 193.7L-315.743 170.428L-308.81 169.467L-301.469 186.244L-301.221 186.209L-298.672 168.063L-291.692 167.096L-297.282 194.718C-297.548 196.059 -297.997 197.257 -298.629 198.312C-299.25 199.376 -300.102 200.246 -301.186 200.922C-302.269 201.608 -303.625 202.064 -305.256 202.29ZM-274.985 189.483C-277.389 189.816 -279.539 189.594 -281.434 188.815C-283.321 188.025 -284.866 186.777 -286.07 185.072C-287.275 183.357 -288.046 181.282 -288.384 178.846C-288.724 176.391 -288.547 174.179 -287.852 172.211C-287.159 170.232 -286.011 168.611 -284.409 167.348C-282.798 166.073 -280.79 165.27 -278.386 164.936C-275.982 164.603 -273.836 164.832 -271.95 165.622C-270.054 166.4 -268.504 167.647 -267.298 169.363C-266.095 171.068 -265.323 173.148 -264.982 175.604C-264.645 178.039 -264.823 180.246 -265.516 182.224C-266.211 184.192 -267.364 185.814 -268.975 187.089C-270.577 188.352 -272.581 189.15 -274.985 189.483ZM-275.661 184.371C-274.568 184.22 -273.697 183.784 -273.051 183.063C-272.405 182.332 -271.972 181.399 -271.751 180.265C-271.519 179.128 -271.499 177.869 -271.69 176.486C-271.882 175.103 -272.244 173.897 -272.776 172.866C-273.297 171.835 -273.968 171.055 -274.788 170.527C-275.607 169.999 -276.564 169.811 -277.658 169.962C-278.762 170.115 -279.647 170.559 -280.313 171.292C-280.969 172.025 -281.412 172.959 -281.644 174.095C-281.865 175.23 -281.88 176.489 -281.689 177.871C-281.497 179.254 -281.14 180.461 -280.619 181.493C-280.087 182.524 -279.406 183.302 -278.576 183.829C-277.737 184.343 -276.765 184.524 -275.661 184.371ZM-254.372 172.146L-252.468 185.89L-259.061 186.804L-262.355 163.031L-256.071 162.16L-255.49 166.354L-255.212 166.316C-254.877 164.86 -254.146 163.644 -253.02 162.668C-251.894 161.681 -250.45 161.066 -248.685 160.821C-247.034 160.592 -245.545 160.754 -244.217 161.306C-242.889 161.858 -241.792 162.758 -240.925 164.005C-240.059 165.242 -239.499 166.783 -239.243 168.63L-237.145 183.767L-243.739 184.68L-245.673 170.72C-245.864 169.264 -246.393 168.18 -247.259 167.47C-248.127 166.748 -249.221 166.479 -250.542 166.662C-251.429 166.785 -252.187 167.085 -252.815 167.561C-253.433 168.036 -253.882 168.666 -254.162 169.451C-254.433 170.225 -254.503 171.123 -254.372 172.146ZM-221.051 182.01C-223.496 182.349 -225.67 182.145 -227.571 181.399C-229.464 180.641 -231.012 179.415 -232.214 177.72C-233.418 176.015 -234.193 173.909 -234.541 171.402C-234.879 168.956 -234.702 166.744 -234.009 164.766C-233.315 162.787 -232.179 161.163 -230.599 159.892C-229.008 158.62 -227.047 157.823 -224.715 157.5C-223.147 157.282 -221.652 157.333 -220.23 157.651C-218.799 157.958 -217.509 158.541 -216.359 159.402C-215.199 160.261 -214.23 161.41 -213.452 162.848C-212.676 164.276 -212.148 166.001 -211.868 168.024L-211.617 169.834L-231.691 172.616L-232.257 168.53L-218.389 166.608C-218.521 165.659 -218.844 164.847 -219.358 164.171C-219.872 163.496 -220.524 163.003 -221.314 162.691C-222.095 162.368 -222.965 162.273 -223.925 162.406C-224.926 162.545 -225.781 162.9 -226.49 163.472C-227.191 164.032 -227.704 164.728 -228.03 165.562C-228.358 166.386 -228.462 167.268 -228.342 168.208L-227.804 172.093C-227.641 173.269 -227.283 174.256 -226.731 175.052C-226.169 175.847 -225.453 176.421 -224.584 176.774C-223.715 177.126 -222.728 177.226 -221.624 177.073C-220.892 176.972 -220.235 176.776 -219.655 176.485C-219.075 176.194 -218.597 175.812 -218.221 175.34C-217.844 174.867 -217.584 174.316 -217.44 173.686L-211.287 173.243C-211.393 174.751 -211.85 176.119 -212.658 177.345C-213.458 178.56 -214.568 179.576 -215.99 180.394C-217.403 181.2 -219.09 181.738 -221.051 182.01ZM-195.814 178.04L-199.108 154.267L-192.515 153.354L-189.221 177.126L-195.814 178.04ZM-196.22 150.744C-197.2 150.879 -198.086 150.671 -198.878 150.118C-199.661 149.554 -200.116 148.812 -200.243 147.894C-200.369 146.986 -200.131 146.159 -199.53 145.413C-198.92 144.656 -198.125 144.209 -197.145 144.073C-196.164 143.937 -195.283 144.152 -194.5 144.716C-193.708 145.269 -193.25 145.999 -193.124 146.907C-192.997 147.826 -193.238 148.664 -193.848 149.421C-194.449 150.167 -195.24 150.608 -196.22 150.744ZM-166.514 156.66L-172.498 157.868C-172.673 157.366 -172.959 156.933 -173.357 156.567C-173.756 156.191 -174.251 155.918 -174.843 155.748C-175.425 155.565 -176.099 155.527 -176.862 155.633C-177.884 155.775 -178.715 156.111 -179.357 156.641C-180 157.161 -180.272 157.778 -180.173 158.49C-180.095 159.057 -179.801 159.505 -179.293 159.835C-178.785 160.164 -177.962 160.37 -176.825 160.455L-172.402 160.725C-170.025 160.88 -168.196 161.405 -166.915 162.3C-165.635 163.195 -164.876 164.499 -164.638 166.212C-164.422 167.77 -164.692 169.201 -165.447 170.504C-166.192 171.806 -167.314 172.897 -168.811 173.778C-170.3 174.647 -172.076 175.224 -174.139 175.51C-177.287 175.946 -179.885 175.638 -181.934 174.587C-183.974 173.523 -185.311 171.879 -185.946 169.653L-179.508 168.414C-179.179 169.346 -178.603 170.013 -177.78 170.414C-176.958 170.805 -175.959 170.919 -174.782 170.756C-173.627 170.596 -172.729 170.246 -172.089 169.705C-171.44 169.152 -171.159 168.519 -171.248 167.806C-171.341 167.209 -171.662 166.754 -172.21 166.441C-172.759 166.117 -173.564 165.924 -174.625 165.86L-178.855 165.61C-181.241 165.468 -183.081 164.902 -184.375 163.914C-185.658 162.925 -186.423 161.543 -186.669 159.768C-186.88 158.241 -186.65 156.868 -185.977 155.65C-185.295 154.43 -184.241 153.417 -182.818 152.609C-181.384 151.801 -179.651 151.256 -177.618 150.974C-174.616 150.558 -172.165 150.865 -170.266 151.895C-168.356 152.924 -167.106 154.513 -166.514 156.66ZM-144.689 170.956L-154.452 148.08L-147.782 147.155L-141.885 162.617L-141.668 162.587L-140.043 146.083L-133.496 145.176L-127.396 160.515L-127.195 160.487L-125.773 144.106L-119.118 143.184L-122.278 167.851L-129.258 168.818L-135.416 154.433L-135.71 154.474L-137.724 169.991L-144.689 170.956ZM-102.004 165.515C-104.45 165.854 -106.623 165.65 -108.525 164.904C-110.418 164.146 -111.965 162.92 -113.168 161.225C-114.371 159.52 -115.147 157.414 -115.494 154.907C-115.833 152.461 -115.656 150.249 -114.963 148.271C-114.269 146.292 -113.132 144.668 -111.552 143.397C-109.962 142.125 -108.001 141.328 -105.669 141.005C-104.1 140.787 -102.605 140.838 -101.184 141.156C-99.753 141.463 -98.4628 142.046 -97.313 142.907C-96.1528 143.766 -95.1839 144.915 -94.4062 146.353C-93.63 147.781 -93.1018 149.506 -92.8215 151.528L-92.5706 153.339L-112.644 156.121L-113.211 152.035L-99.3431 150.113C-99.4747 149.164 -99.7975 148.352 -100.312 147.676C-100.826 147.001 -101.478 146.508 -102.268 146.196C-103.049 145.873 -103.919 145.778 -104.878 145.911C-105.879 146.05 -106.735 146.405 -107.444 146.977C-108.145 147.536 -108.658 148.233 -108.984 149.067C-109.312 149.891 -109.416 150.773 -109.296 151.713L-108.758 155.598C-108.595 156.774 -108.237 157.761 -107.685 158.557C-107.123 159.352 -106.407 159.926 -105.538 160.278C-104.669 160.631 -103.682 160.731 -102.578 160.578C-101.845 160.477 -101.189 160.281 -100.609 159.99C-100.029 159.699 -99.5506 159.317 -99.1744 158.845C-98.7982 158.372 -98.5381 157.821 -98.394 157.191L-92.2403 156.748C-92.3468 158.256 -92.8041 159.624 -93.6121 160.85C-94.4113 162.065 -95.5219 163.081 -96.944 163.899C-98.3572 164.705 -100.044 165.243 -102.004 165.515ZM-84.6535 130.332L-80.2615 162.029L-86.8548 162.943L-91.2467 131.245L-84.6535 130.332ZM-64.1745 160.273C-66.6095 160.611 -68.7756 160.385 -70.6726 159.596C-72.5608 158.796 -74.1023 157.537 -75.2971 155.82C-76.4817 154.102 -77.2405 152.041 -77.5736 149.637C-77.911 147.201 -77.7375 145.001 -77.053 143.034C-76.3597 141.055 -75.2126 139.429 -73.6118 138.156C-72.0125 136.872 -70.0107 136.064 -67.6066 135.731C-65.5327 135.443 -63.6645 135.568 -62.0021 136.106C-60.3397 136.643 -58.9602 137.53 -57.8635 138.766C-56.7667 140.002 -56.0447 141.532 -55.6974 143.356L-61.9192 144.218C-62.259 143.056 -62.8556 142.166 -63.7089 141.548C-64.5533 140.918 -65.5791 140.687 -66.7863 140.854C-67.8078 140.996 -68.6617 141.398 -69.348 142.061C-70.0255 142.712 -70.5028 143.593 -70.78 144.704C-71.0572 145.815 -71.0922 147.119 -70.8849 148.615C-70.6747 150.132 -70.2897 151.393 -69.7297 152.399C-69.1594 153.403 -68.4539 154.131 -67.6131 154.582C-66.7724 155.033 -65.8413 155.188 -64.8198 155.047C-64.0666 154.942 -63.4122 154.694 -62.8566 154.301C-62.2907 153.908 -61.8525 153.389 -61.5419 152.747C-61.2224 152.093 -61.0587 151.339 -61.0507 150.486L-54.8288 149.624C-54.6804 151.454 -54.9541 153.122 -55.6498 154.628C-56.3367 156.122 -57.4004 157.363 -58.8409 158.351C-60.2814 159.339 -62.0593 159.98 -64.1745 160.273ZM-38.5946 156.729C-40.9987 157.062 -43.1486 156.839 -45.0442 156.061C-46.9309 155.271 -48.4762 154.023 -49.6799 152.318C-50.8851 150.603 -51.6564 148.527 -51.9938 146.092C-52.3341 143.636 -52.1568 141.425 -51.462 139.456C-50.7687 137.478 -49.6209 135.857 -48.0187 134.594C-46.4076 133.319 -44.3999 132.515 -41.9958 132.182C-39.5917 131.849 -37.4463 132.078 -35.5596 132.868C-33.664 133.646 -32.1136 134.893 -30.9084 136.608C-29.7046 138.314 -28.9326 140.394 -28.5924 142.85C-28.255 145.285 -28.4329 147.492 -29.1263 149.47C-29.8211 151.438 -30.974 153.06 -32.5851 154.335C-34.1873 155.598 -36.1905 156.396 -38.5946 156.729ZM-39.2714 151.617C-38.1776 151.466 -37.3074 151.029 -36.6606 150.309C-36.0152 149.578 -35.5819 148.645 -35.3605 147.51C-35.1289 146.374 -35.1088 145.114 -35.3004 143.732C-35.492 142.349 -35.8537 141.143 -36.3856 140.112C-36.9072 139.08 -37.5778 138.3 -38.3976 137.772C-39.2174 137.245 -40.1742 137.056 -41.2679 137.208C-42.3719 137.361 -43.257 137.804 -43.923 138.538C-44.5787 139.27 -45.0223 140.205 -45.254 141.341C-45.4753 142.476 -45.4902 143.735 -45.2986 145.117C-45.1071 146.5 -44.7505 147.707 -44.2289 148.739C-43.697 149.77 -43.016 150.548 -42.1859 151.074C-41.3469 151.589 -40.3754 151.77 -39.2714 151.617ZM-22.6711 154.049L-25.9651 130.276L-19.6813 129.406L-19.1002 133.6L-18.8216 133.561C-18.5193 132.1 -17.8461 130.887 -16.802 129.922C-15.7579 128.957 -14.4311 128.363 -12.8214 128.14C-11.1912 127.914 -9.74692 128.129 -8.48867 128.786C-7.23185 129.432 -6.31676 130.42 -5.74341 131.749L-5.49578 131.715C-5.19955 130.286 -4.47334 129.076 -3.31716 128.085C-2.15209 127.082 -0.69768 126.46 1.04608 126.218C3.26447 125.911 5.16291 126.368 6.7414 127.59C8.32877 128.8 9.30117 130.695 9.65859 133.275L11.8739 149.263L5.2961 150.174L3.26095 135.486C3.07795 134.166 2.58989 133.224 1.79676 132.661C1.00363 132.097 0.0808416 131.889 -0.971604 132.035C-2.1685 132.2 -3.04939 132.712 -3.61427 133.568C-4.18058 134.414 -4.37795 135.456 -4.20639 136.694L-2.19483 151.212L-8.58689 152.098L-10.6413 137.271C-10.8029 136.105 -11.2669 135.223 -12.0334 134.624C-12.7895 134.024 -13.7093 133.799 -14.7927 133.95C-15.5253 134.051 -16.1599 134.328 -16.6966 134.781C-17.2243 135.222 -17.6127 135.797 -17.8617 136.504C-18.1121 137.202 -18.1766 137.989 -18.0551 138.866L-16.0778 153.136L-22.6711 154.049ZM27.9803 147.504C25.5349 147.843 23.3614 147.639 21.4597 146.893C19.567 146.136 18.0194 144.909 16.8171 143.214C15.6134 141.509 14.8378 139.403 14.4904 136.896C14.1515 134.451 14.3288 132.239 15.0222 130.26C15.7155 128.282 16.8523 126.657 18.4324 125.387C20.0229 124.115 21.9841 123.317 24.3159 122.994C25.8843 122.777 27.3793 122.827 28.8011 123.145C30.2317 123.452 31.5219 124.036 32.6718 124.896C33.8319 125.756 34.8008 126.904 35.5785 128.343C36.3547 129.77 36.8829 131.495 37.1632 133.518L37.4141 135.329L17.3402 138.11L16.7741 134.024L30.6416 132.103C30.5101 131.153 30.1872 130.341 29.6729 129.666C29.1587 128.99 28.5067 128.497 27.7169 128.186C26.9361 127.863 26.0658 127.768 25.1062 127.901C24.1054 128.039 23.2502 128.394 22.5407 128.966C21.84 129.526 21.3267 130.223 21.0005 131.057C20.673 131.88 20.5691 132.762 20.6889 133.702L21.2271 137.587C21.3901 138.763 21.7476 139.75 22.2996 140.546C22.862 141.341 23.5777 141.915 24.4469 142.268C25.316 142.621 26.3026 142.72 27.4066 142.567C28.1392 142.466 28.7956 142.27 29.3758 141.979C29.956 141.688 30.4341 141.307 30.8103 140.834C31.1865 140.361 31.4466 139.81 31.5907 139.18L37.7444 138.737C37.6379 140.245 37.1806 141.613 36.3726 142.839C35.5734 144.054 34.4628 145.071 33.0407 145.888C31.6275 146.694 29.9407 147.233 27.9803 147.504ZM57.9061 128.877L59.8104 142.621L53.2172 143.534L48.8252 111.837L55.2327 110.949L56.9119 123.068L57.1905 123.029C57.5326 121.552 58.247 120.333 59.3339 119.372C60.4192 118.402 61.8648 117.791 63.6704 117.541C65.3213 117.312 66.8107 117.474 68.1387 118.026C69.4755 118.566 70.5773 119.46 71.4442 120.707C72.3199 121.942 72.8813 123.489 73.1283 125.348L75.2257 140.485L68.6324 141.398L66.698 127.438C66.5053 125.971 65.9759 124.883 65.1098 124.172C64.2539 123.46 63.1553 123.196 61.814 123.382C60.9163 123.507 60.1482 123.808 59.5098 124.285C58.8817 124.761 58.4224 125.393 58.1318 126.18C57.8501 126.955 57.7749 127.854 57.9061 128.877ZM91.3127 138.729C88.8673 139.068 86.6938 138.864 84.7922 138.118C82.8994 137.36 81.3519 136.134 80.1495 134.439C78.9458 132.734 78.1702 130.628 77.8228 128.121C77.484 125.675 77.6612 123.463 78.3546 121.485C79.0479 119.506 80.1847 117.882 81.7648 116.611C83.3553 115.339 85.3165 114.542 87.6484 114.219C89.2167 114.001 90.7118 114.052 92.1335 114.37C93.5641 114.677 94.8543 115.26 96.0042 116.121C97.1644 116.98 98.1333 118.129 98.9109 119.567C99.6872 120.995 100.215 122.72 100.496 124.742L100.747 126.553L80.6727 129.335L80.1065 125.249L93.974 123.327C93.8425 122.378 93.5196 121.566 93.0054 120.89C92.4911 120.215 91.8391 119.721 91.0494 119.41C90.2685 119.087 89.3983 118.992 88.4387 119.125C87.4378 119.264 86.5826 119.619 85.8731 120.191C85.1725 120.75 84.6591 121.447 84.333 122.281C84.0054 123.105 83.9015 123.987 84.0213 124.927L84.5596 128.812C84.7225 129.988 85.0801 130.974 85.6321 131.771C86.1944 132.566 86.9102 133.14 87.7793 133.492C88.6485 133.845 89.635 133.945 90.7391 133.792C91.4717 133.691 92.128 133.494 92.7082 133.204C93.2884 132.913 93.7666 132.531 94.1427 132.059C94.5189 131.586 94.779 131.034 94.9231 130.405L101.077 129.962C100.97 131.47 100.513 132.837 99.705 134.064C98.9059 135.279 97.7952 136.295 96.3732 137.113C94.96 137.918 93.2731 138.457 91.3127 138.729ZM106.462 136.156L103.168 112.384L109.56 111.498L110.135 115.646L110.383 115.611C110.612 114.076 111.185 112.861 112.102 111.966C113.018 111.061 114.141 110.516 115.472 110.332C115.802 110.286 116.161 110.257 116.548 110.246C116.936 110.234 117.279 110.244 117.578 110.277L118.389 116.127C118.066 116.077 117.627 116.054 117.07 116.057C116.513 116.061 116.007 116.094 115.554 116.157C114.584 116.291 113.746 116.623 113.041 117.152C112.345 117.669 111.827 118.33 111.486 119.134C111.156 119.937 111.058 120.823 111.192 121.793L113.056 135.243L106.462 136.156ZM134.088 132.802C131.642 133.141 129.469 132.937 127.567 132.191C125.674 131.433 124.127 130.207 122.924 128.512C121.721 126.807 120.945 124.701 120.598 122.194C120.259 119.748 120.436 117.536 121.13 115.558C121.823 113.579 122.96 111.955 124.54 110.684C126.13 109.412 128.091 108.615 130.423 108.292C131.992 108.074 133.487 108.125 134.908 108.443C136.339 108.75 137.629 109.333 138.779 110.194C139.939 111.053 140.908 112.202 141.686 113.64C142.462 115.068 142.99 116.793 143.271 118.815L143.521 120.626L123.448 123.408L122.881 119.322L136.749 117.4C136.617 116.451 136.295 115.639 135.78 114.963C135.266 114.288 134.614 113.795 133.824 113.483C133.043 113.16 132.173 113.065 131.214 113.198C130.213 113.337 129.358 113.692 128.648 114.264C127.947 114.823 127.434 115.52 127.108 116.354C126.78 117.178 126.676 118.06 126.796 119L127.334 122.885C127.497 124.061 127.855 125.047 128.407 125.844C128.969 126.639 129.685 127.213 130.554 127.565C131.423 127.918 132.41 128.018 133.514 127.865C134.247 127.764 134.903 127.568 135.483 127.277C136.063 126.986 136.541 126.604 136.918 126.132C137.294 125.659 137.554 125.108 137.698 124.478L143.852 124.035C143.745 125.543 143.288 126.911 142.48 128.137C141.681 129.352 140.57 130.368 139.148 131.186C137.735 131.992 136.048 132.53 134.088 132.802ZM157.116 132.247L200.7 126.208L194.661 82.6247L151.077 88.6637L157.116 132.247Z" fill="white"/>
<path d="M238.091 108.552C237.632 107.122 236.338 105.426 234.156 104.218C233.083 103.62 232.029 103.279 231.03 103.21L230.931 102.494C232.792 101.767 234.504 100.21 235.47 98.288C235.961 97.317 236.232 96.3938 236.278 95.4673L236.993 95.3681C237.521 97.0487 239.114 98.7728 241.097 99.8003C242.071 100.308 243.05 100.606 244.015 100.681L244.114 101.397C242.277 102.05 240.313 104.042 239.461 105.914C239.037 106.858 238.824 107.704 238.806 108.453L238.091 108.552Z" fill="white"/>
<path d="M281.923 111.845L277.531 80.1476L298.889 77.1882L299.655 82.7135L284.998 84.7444L286.045 92.2972L299.603 90.4186L300.368 95.944L286.81 97.8226L287.859 105.391L302.578 103.351L303.343 108.877L281.923 111.845ZM327.355 81.3204L322.338 106.245L314.908 107.274L303.303 84.653L310.268 83.688L317.562 100.013L317.81 99.9789L320.375 82.2876L327.355 81.3204ZM344.155 103.695C341.71 104.034 339.536 103.83 337.634 103.084C335.742 102.326 334.194 101.1 332.992 99.4054C331.788 97.7003 331.012 95.5941 330.665 93.0868C330.326 90.6414 330.503 88.4295 331.197 86.451C331.89 84.4726 333.027 82.8481 334.607 81.5775C336.198 80.3055 338.159 79.5079 340.491 79.1848C342.059 78.9675 343.554 79.018 344.976 79.3363C346.406 79.6429 347.697 80.2265 348.846 81.0873C350.007 81.9466 350.976 83.0953 351.753 84.5334C352.529 85.9612 353.058 87.6863 353.338 89.7087L353.589 91.5195L333.515 94.3009L332.949 90.215L346.816 88.2935C346.685 87.3442 346.362 86.5319 345.848 85.8565C345.333 85.1811 344.681 84.6878 343.892 84.3766C343.111 84.0536 342.241 83.9586 341.281 84.0916C340.28 84.2302 339.425 84.5853 338.715 85.1569C338.015 85.7167 337.501 86.4135 337.175 87.2474C336.848 88.071 336.744 88.953 336.864 89.8934L337.402 93.7781C337.565 94.9544 337.922 95.9407 338.474 96.7371C339.037 97.532 339.752 98.1058 340.622 98.4586C341.491 98.8114 342.477 98.9114 343.581 98.7584C344.314 98.6569 344.97 98.4608 345.55 98.17C346.131 97.8793 346.609 97.4976 346.985 97.0248C347.361 96.5521 347.621 96.0007 347.765 95.3708L353.919 94.9283C353.813 96.4363 353.355 97.8037 352.547 99.0304C351.748 100.245 350.637 101.262 349.215 102.079C347.802 102.885 346.115 103.423 344.155 103.695ZM359.305 101.123L356.011 77.3499L362.403 76.4642L362.977 80.6121L363.225 80.5777C363.454 79.0422 364.027 77.8271 364.944 76.9323C365.86 76.0272 366.983 75.4825 368.314 75.298C368.644 75.2523 369.003 75.2236 369.391 75.212C369.778 75.2004 370.121 75.2106 370.42 75.2428L371.231 81.0932C370.909 81.0432 370.469 81.02 369.912 81.0236C369.355 81.0271 368.85 81.0603 368.396 81.1232C367.426 81.2576 366.588 81.5892 365.884 82.1181C365.187 82.6352 364.669 83.2959 364.328 84.1003C363.998 84.9032 363.9 85.7896 364.034 86.7595L365.898 100.209L359.305 101.123ZM383.167 106.902C382.332 107.018 381.538 107.06 380.787 107.027C380.048 107.003 379.427 106.926 378.925 106.796L379.729 101.668C380.536 101.799 381.25 101.831 381.872 101.766C382.504 101.699 383.026 101.48 383.437 101.107C383.859 100.733 384.162 100.155 384.348 99.3721L384.596 98.3125L372.68 75.0402L379.613 74.0795L386.954 90.8557L387.202 90.8214L389.751 72.6748L396.731 71.7076L391.141 99.33C390.875 100.671 390.426 101.869 389.794 102.924C389.173 103.988 388.321 104.858 387.237 105.534C386.154 106.22 384.798 106.676 383.167 106.902ZM413.438 94.0952C411.034 94.4283 408.884 94.2056 406.989 93.4272C405.102 92.637 403.557 91.3894 402.353 89.6843C401.148 87.9689 400.377 85.8936 400.039 83.4585C399.699 81.0028 399.876 78.7909 400.571 76.8228C401.264 74.8443 402.412 73.2235 404.014 71.9604C405.625 70.6855 407.633 69.8816 410.037 69.5484C412.441 69.2153 414.587 69.4439 416.473 70.2341C418.369 71.0125 419.919 72.2594 421.125 73.9748C422.328 75.6799 423.1 77.7603 423.441 80.216C423.778 82.6511 423.6 84.8579 422.907 86.8363C422.212 88.8045 421.059 90.426 419.448 91.7009C417.846 92.964 415.842 93.7621 413.438 94.0952ZM412.762 88.9834C413.855 88.8319 414.726 88.3958 415.372 87.6752C416.018 86.9443 416.451 86.0114 416.672 84.8766C416.904 83.7403 416.924 82.4808 416.733 81.0982C416.541 79.7156 416.179 78.509 415.647 77.4785C415.126 76.4466 414.455 75.6667 413.635 75.1388C412.816 74.6109 411.859 74.4227 410.765 74.5742C409.661 74.7272 408.776 75.1706 408.11 75.9043C407.454 76.6367 407.011 77.571 406.779 78.7073C406.558 79.8422 406.543 81.1009 406.734 82.4835C406.926 83.8662 407.282 85.0734 407.804 86.1054C408.336 87.1359 409.017 87.9144 409.847 88.4408C410.686 88.9555 411.658 89.1364 412.762 88.9834ZM434.051 76.7583L435.955 90.502L429.362 91.4156L426.068 67.6427L432.352 66.772L432.933 70.9663L433.211 70.9277C433.546 69.4722 434.277 68.2562 435.403 67.2799C436.529 66.2932 437.973 65.6776 439.738 65.4331C441.389 65.2044 442.878 65.3661 444.206 65.9182C445.534 66.4703 446.631 67.3699 447.498 68.6169C448.364 69.8536 448.924 71.3954 449.18 73.2423L451.278 88.3789L444.684 89.2925L442.75 75.3321C442.559 73.8759 442.03 72.7923 441.164 72.0816C440.296 71.3605 439.202 71.0915 437.881 71.2744C436.994 71.3974 436.236 71.6969 435.608 72.1731C434.99 72.6478 434.541 73.2779 434.261 74.0633C433.99 74.8371 433.92 75.7354 434.051 76.7583ZM467.372 86.6221C464.927 86.9609 462.753 86.7573 460.852 86.0112C458.959 85.2534 457.411 84.0271 456.209 82.3324C455.005 80.6273 454.23 78.5211 453.882 76.0138C453.544 73.5684 453.721 71.3565 454.414 69.378C455.108 67.3995 456.244 65.775 457.824 64.5044C459.415 63.2325 461.376 62.4349 463.708 62.1118C465.276 61.8945 466.771 61.945 468.193 62.2633C469.624 62.5698 470.914 63.1535 472.064 64.0142C473.224 64.8735 474.193 66.0223 474.971 67.4604C475.747 68.8882 476.275 70.6133 476.555 72.6356L476.806 74.4464L456.732 77.2279L456.166 73.1419L470.034 71.2204C469.902 70.2712 469.579 69.4588 469.065 68.7834C468.551 68.108 467.899 67.6147 467.109 67.3035C466.328 66.9806 465.458 66.8856 464.498 67.0185C463.497 67.1572 462.642 67.5123 461.933 68.0838C461.232 68.6436 460.719 69.3405 460.393 70.1744C460.065 70.998 459.961 71.88 460.081 72.8203L460.619 76.7051C460.782 77.8814 461.14 78.8677 461.692 79.664C462.254 80.4589 462.97 81.0328 463.839 81.3856C464.708 81.7384 465.695 81.8383 466.799 81.6853C467.531 81.5838 468.188 81.3877 468.768 81.097C469.348 80.8063 469.826 80.4246 470.202 79.9518C470.578 79.479 470.839 78.9277 470.983 78.2978L477.136 77.8552C477.03 79.3633 476.573 80.7307 475.765 81.9573C474.965 83.1723 473.855 84.1885 472.433 85.006C471.02 85.8117 469.333 86.3504 467.372 86.6221ZM492.609 82.652L489.315 58.8791L495.908 57.9656L499.202 81.7384L492.609 82.652ZM492.203 55.3557C491.222 55.4916 490.337 55.2831 489.545 54.7302C488.762 54.1657 488.307 53.4242 488.18 52.5059C488.054 51.5979 488.292 50.771 488.893 50.0252C489.503 49.2676 490.298 48.8209 491.278 48.6851C492.259 48.5493 493.14 48.7636 493.923 49.3282C494.715 49.881 495.173 50.6114 495.299 51.5194C495.426 52.4377 495.185 53.2757 494.575 54.0333C493.974 54.7791 493.183 55.2199 492.203 55.3557ZM521.909 61.272L515.925 62.4799C515.75 61.9782 515.464 61.5447 515.066 61.1791C514.667 60.8033 514.172 60.5301 513.58 60.3597C512.997 60.1775 512.324 60.1393 511.561 60.2451C510.539 60.3867 509.708 60.7227 509.066 61.2533C508.423 61.7735 508.151 62.3897 508.25 63.1016C508.328 63.6691 508.622 64.1174 509.13 64.4466C509.638 64.7758 510.461 64.9826 511.598 65.0669L516.021 65.3374C518.398 65.4918 520.227 66.0166 521.507 66.9118C522.788 67.807 523.547 69.111 523.785 70.8238C524.001 72.3818 523.731 73.8126 522.976 75.1161C522.231 76.4181 521.109 77.5094 519.612 78.39C518.123 79.2587 516.347 79.8361 514.283 80.122C511.136 80.5581 508.538 80.2503 506.489 79.1987C504.449 78.1353 503.112 76.4908 502.477 74.2651L508.915 73.0261C509.244 73.9585 509.82 74.6253 510.643 75.0265C511.465 75.4174 512.464 75.5314 513.641 75.3684C514.796 75.2083 515.694 74.8578 516.334 74.3169C516.983 73.7642 517.264 73.1312 517.175 72.4179C517.082 71.8208 516.761 71.3658 516.213 71.0526C515.664 70.7291 514.859 70.5357 513.798 70.4723L509.568 70.2225C507.182 70.0798 505.342 69.5145 504.048 68.5265C502.765 67.537 502 66.1549 501.754 64.3802C501.543 62.8531 501.773 61.4804 502.446 60.262C503.128 59.0421 504.182 58.0286 505.605 57.2214C507.039 56.4128 508.772 55.8677 510.805 55.586C513.807 55.17 516.258 55.4772 518.157 56.5075C520.066 57.5365 521.317 59.1246 521.909 61.272ZM543.734 75.5681L533.971 52.6917L540.641 51.7674L546.538 67.2294L546.755 67.1994L548.38 50.6951L554.927 49.788L561.027 65.1271L561.228 65.0992L562.65 48.7179L569.305 47.7957L566.145 72.4629L559.165 73.4301L553.007 59.0453L552.713 59.086L550.699 74.6031L543.734 75.5681ZM586.419 70.127C583.973 70.4658 581.8 70.2622 579.898 69.5161C578.005 68.7583 576.458 67.532 575.255 65.8373C574.052 64.1322 573.276 62.026 572.929 59.5187C572.59 57.0733 572.767 54.8614 573.46 52.8829C574.154 50.9044 575.291 49.2799 576.871 48.0094C578.461 46.7374 580.422 45.9398 582.754 45.6167C584.323 45.3994 585.818 45.4499 587.239 45.7682C588.67 46.0747 589.96 46.6584 591.11 47.5191C592.27 48.3784 593.239 49.5272 594.017 50.9653C594.793 52.3931 595.321 54.1182 595.601 56.1405L595.852 57.9514L575.778 60.7328L575.212 56.6468L589.08 54.7253C588.948 53.7761 588.625 52.9637 588.111 52.2883C587.597 51.613 586.945 51.1196 586.155 50.8084C585.374 50.4855 584.504 50.3905 583.545 50.5234C582.544 50.6621 581.688 51.0172 580.979 51.5887C580.278 52.1485 579.765 52.8454 579.439 53.6793C579.111 54.5029 579.007 55.3849 579.127 56.3252L579.665 60.21C579.828 61.3863 580.186 62.3726 580.738 63.1689C581.3 63.9638 582.016 64.5377 582.885 64.8905C583.754 65.2433 584.741 65.3432 585.845 65.1902C586.577 65.0887 587.234 64.8926 587.814 64.6019C588.394 64.3112 588.872 63.9295 589.249 63.4567C589.625 62.9839 589.885 62.4326 590.029 61.8027L596.183 61.3601C596.076 62.8682 595.619 64.2356 594.811 65.4623C594.012 66.6772 592.901 67.6934 591.479 68.5109C590.066 69.3166 588.379 69.8553 586.419 70.127ZM603.77 34.9439L608.161 66.641L601.568 67.5546L597.176 35.8574L603.77 34.9439ZM624.249 64.8852C621.813 65.2226 619.647 64.997 617.75 64.2082C615.862 63.4077 614.321 62.149 613.126 60.4322C611.941 58.7139 611.182 56.6527 610.849 54.2486C610.512 51.8135 610.685 49.6126 611.37 47.6459C612.063 45.6675 613.21 44.0415 614.811 42.7681C616.411 41.4843 618.412 40.6759 620.816 40.3428C622.89 40.0554 624.758 40.1804 626.421 40.7178C628.083 41.2551 629.463 42.1419 630.56 43.378C631.656 44.6142 632.378 46.1442 632.726 47.9679L626.504 48.83C626.164 47.6677 625.567 46.7777 624.714 46.1598C623.87 45.5301 622.844 45.2989 621.637 45.4662C620.615 45.6077 619.761 46.01 619.075 46.673C618.397 47.3242 617.92 48.2053 617.643 49.3164C617.366 50.4275 617.331 51.731 617.538 53.2272C617.748 54.7439 618.133 56.0051 618.693 57.0107C619.264 58.0148 619.969 58.7426 620.81 59.194C621.651 59.6453 622.582 59.8003 623.603 59.6587C624.356 59.5544 625.011 59.3059 625.566 58.9135C626.132 58.5196 626.57 58.0014 626.881 57.359C627.201 56.7047 627.364 55.9512 627.372 55.0983L633.594 54.2362C633.743 56.0664 633.469 57.7344 632.773 59.24C632.086 60.7338 631.023 61.9748 629.582 62.9632C628.142 63.9515 626.364 64.5922 624.249 64.8852ZM649.828 61.3409C647.424 61.674 645.274 61.4513 643.379 60.6729C641.492 59.8827 639.947 58.6351 638.743 56.93C637.538 55.2146 636.767 53.1393 636.429 50.7043C636.089 48.2486 636.266 46.0366 636.961 44.0685C637.654 42.09 638.802 40.4692 640.404 39.2061C642.015 37.9313 644.023 37.1273 646.427 36.7942C648.831 36.461 650.977 36.6896 652.863 37.4798C654.759 38.2582 656.309 39.5051 657.515 41.2206C658.718 42.9256 659.49 45.006 659.831 47.4617C660.168 49.8968 659.99 52.1036 659.297 54.0821C658.602 56.0502 657.449 57.6717 655.838 58.9466C654.236 60.2097 652.232 61.0078 649.828 61.3409ZM649.152 56.2292C650.245 56.0776 651.116 55.6415 651.762 54.9209C652.408 54.19 652.841 53.2571 653.062 52.1223C653.294 50.986 653.314 49.7265 653.123 48.3439C652.931 46.9613 652.569 45.7547 652.037 44.7242C651.516 43.6923 650.845 42.9124 650.025 42.3845C649.206 41.8566 648.249 41.6684 647.155 41.8199C646.051 41.9729 645.166 42.4163 644.5 43.1501C643.844 43.8824 643.401 44.8167 643.169 45.953C642.948 47.0879 642.933 48.3466 643.124 49.7293C643.316 51.1119 643.672 52.3192 644.194 53.3511C644.726 54.3816 645.407 55.1601 646.237 55.6865C647.076 56.2013 648.048 56.3821 649.152 56.2292ZM665.752 58.6613L662.458 34.8884L668.742 34.0177L669.323 38.212L669.601 38.1734C669.904 36.7119 670.577 35.4986 671.621 34.5337C672.665 33.5688 673.992 32.9748 675.602 32.7517C677.232 32.5259 678.676 32.7411 679.934 33.3976C681.191 34.0437 682.106 35.0316 682.68 36.3613L682.927 36.327C683.223 34.8978 683.95 33.6877 685.106 32.6968C686.271 31.694 687.725 31.0719 689.469 30.8303C691.687 30.5229 693.586 30.9802 695.164 32.2022C696.752 33.4124 697.724 35.3073 698.082 37.8868L700.297 53.8747L693.719 54.7861L691.684 40.0983C691.501 38.7776 691.013 37.8357 690.22 37.2726C689.427 36.7094 688.504 36.5008 687.451 36.6466C686.254 36.8124 685.374 37.3236 684.809 38.1801C684.242 39.0262 684.045 40.0684 684.217 41.3065L686.228 55.8241L679.836 56.7098L677.782 41.8827C677.62 40.7167 677.156 39.8346 676.39 39.2362C675.633 38.6364 674.714 38.4115 673.63 38.5617C672.898 38.6632 672.263 38.9404 671.726 39.3933C671.199 39.8345 670.81 40.4089 670.561 41.1164C670.311 41.8136 670.246 42.6008 670.368 43.4778L672.345 57.7477L665.752 58.6613ZM716.403 52.1163C713.958 52.4551 711.784 52.2515 709.883 51.5054C707.99 50.7476 706.442 49.5213 705.24 47.8265C704.036 46.1214 703.261 44.0153 702.913 41.508C702.575 39.0626 702.752 36.8506 703.445 34.8722C704.138 32.8937 705.275 31.2692 706.855 29.9986C708.446 28.7266 710.407 27.9291 712.739 27.606C714.307 27.3887 715.802 27.4392 717.224 27.7575C718.655 28.064 719.945 28.6477 721.095 29.5084C722.255 30.3677 723.224 31.5164 724.001 32.9546C724.778 34.3824 725.306 36.1075 725.586 38.1298L725.837 39.9406L705.763 42.7221L705.197 38.6361L719.065 36.7146C718.933 35.7653 718.61 34.953 718.096 34.2776C717.582 33.6022 716.93 33.1089 716.14 32.7977C715.359 32.4747 714.489 32.3797 713.529 32.5127C712.528 32.6514 711.673 33.0065 710.964 33.578C710.263 34.1378 709.75 34.8347 709.424 35.6686C709.096 36.4921 708.992 37.3741 709.112 38.3145L709.65 42.1993C709.813 43.3755 710.171 44.3618 710.723 45.1582C711.285 45.9531 712.001 46.527 712.87 46.8798C713.739 47.2326 714.726 47.3325 715.83 47.1795C716.562 47.078 717.219 46.8819 717.799 46.5912C718.379 46.3005 718.857 45.9187 719.233 45.446C719.609 44.9732 719.87 44.4219 720.014 43.7919L726.167 43.3494C726.061 44.8575 725.604 46.2248 724.796 47.4515C723.996 48.6664 722.886 49.6827 721.464 50.5002C720.05 51.3059 718.364 51.8446 716.403 52.1163ZM746.329 33.4889L748.233 47.2326L741.64 48.1462L737.248 16.449L743.656 15.5612L745.335 27.6798L745.613 27.6412C745.956 26.1636 746.67 24.9446 747.757 23.9843C748.842 23.0136 750.288 22.4032 752.093 22.153C753.744 21.9243 755.234 22.0859 756.562 22.6381C757.898 23.1785 759 24.0722 759.867 25.3192C760.743 26.5544 761.304 28.1014 761.551 29.96L763.649 45.0967L757.055 46.0102L755.121 32.0499C754.928 30.5833 754.399 29.4946 753.533 28.7838C752.677 28.0716 751.578 27.8085 750.237 27.9943C749.339 28.1187 748.571 28.4197 747.933 28.8972C747.305 29.3734 746.845 30.0049 746.555 30.7918C746.273 31.567 746.198 32.466 746.329 33.4889ZM779.736 43.3409C777.29 43.6797 775.117 43.4761 773.215 42.73C771.322 41.9722 769.775 40.7459 768.573 39.0512C767.369 37.3461 766.593 35.2399 766.246 32.7326C765.907 30.2872 766.084 28.0753 766.778 26.0968C767.471 24.1183 768.608 22.4938 770.188 21.2233C771.778 19.9513 773.739 19.1537 776.071 18.8306C777.64 18.6133 779.135 18.6638 780.556 18.9821C781.987 19.2886 783.277 19.8723 784.427 20.733C785.587 21.5924 786.556 22.7411 787.334 24.1792C788.11 25.607 788.638 27.3321 788.919 29.3544L789.169 31.1653L769.096 33.9467L768.529 29.8607L782.397 27.9392C782.265 26.99 781.943 26.1776 781.428 25.5023C780.914 24.8269 780.262 24.3335 779.472 24.0223C778.691 23.6994 777.821 23.6044 776.862 23.7373C775.861 23.876 775.006 24.2311 774.296 24.8027C773.595 25.3624 773.082 26.0593 772.756 26.8932C772.428 27.7168 772.324 28.5988 772.444 29.5391L772.983 33.4239C773.146 34.6002 773.503 35.5865 774.055 36.3828C774.617 37.1777 775.333 37.7516 776.202 38.1044C777.071 38.4572 778.058 38.5571 779.162 38.4041C779.895 38.3026 780.551 38.1065 781.131 37.8158C781.711 37.5251 782.19 37.1434 782.566 36.6706C782.942 36.1978 783.202 35.6465 783.346 35.0166L789.5 34.574C789.393 36.0821 788.936 37.4495 788.128 38.6762C787.329 39.8911 786.218 40.9073 784.796 41.7248C783.383 42.5306 781.696 43.0692 779.736 43.3409ZM794.885 40.7685L791.591 16.9956L797.983 16.1099L798.558 20.2578L798.806 20.2235C799.035 18.688 799.608 17.4728 800.525 16.5781C801.441 15.673 802.564 15.1282 803.895 14.9438C804.225 14.8981 804.584 14.8694 804.971 14.8577C805.359 14.8461 805.702 14.8564 806.001 14.8886L806.812 20.739C806.489 20.689 806.05 20.6658 805.493 20.6693C804.936 20.6729 804.43 20.7061 803.976 20.769C803.007 20.9034 802.169 21.235 801.464 21.7638C800.768 22.2809 800.25 22.9417 799.909 23.746C799.579 24.549 799.481 25.4354 799.615 26.4053L801.479 39.8549L794.885 40.7685ZM822.511 37.414C820.065 37.7528 817.892 37.5492 815.99 36.8031C814.097 36.0453 812.55 34.819 811.347 33.1243C810.144 31.4192 809.368 29.313 809.021 26.8057C808.682 24.3603 808.859 22.1484 809.552 20.1699C810.246 18.1914 811.383 16.5669 812.963 15.2963C814.553 14.0244 816.514 13.2268 818.846 12.9037C820.415 12.6864 821.91 12.7369 823.331 13.0552C824.762 13.3617 826.052 13.9454 827.202 14.8061C828.362 15.6654 829.331 16.8142 830.109 18.2523C830.885 19.6801 831.413 21.4052 831.693 23.4275L831.944 25.2383L811.871 28.0198L811.304 23.9338L825.172 22.0123C825.04 21.0631 824.718 20.2507 824.203 19.5753C823.689 18.8999 823.037 18.4066 822.247 18.0954C821.466 17.7725 820.596 17.6775 819.637 17.8104C818.636 17.9491 817.781 18.3042 817.071 18.8757C816.37 19.4355 815.857 20.1324 815.531 20.9663C815.203 21.7899 815.099 22.6719 815.219 23.6122L815.757 27.497C815.92 28.6732 816.278 29.6596 816.83 30.4559C817.392 31.2508 818.108 31.8247 818.977 32.1775C819.846 32.5303 820.833 32.6302 821.937 32.4772C822.67 32.3757 823.326 32.1796 823.906 31.8889C824.486 31.5982 824.964 31.2165 825.341 30.7437C825.717 30.2709 825.977 29.7196 826.121 29.0897L832.275 28.6471C832.168 30.1552 831.711 31.5226 830.903 32.7492C830.104 33.9642 828.993 34.9804 827.571 35.7979C826.158 36.6036 824.471 37.1423 822.511 37.414ZM845.539 36.8593L889.123 30.8204L883.084 -12.7632L839.5 -6.72428L845.539 36.8593Z" fill="white"/>
</g>
<defs>
<linearGradient id="paint0_linear_3_8454" x1="1954" y1="95.699" x2="1954" y2="195.699" gradientUnits="userSpaceOnUse">
<stop stop-color="#4A2CD7"/>
<stop offset="1" stop-color="#0594E0"/>
</linearGradient>
<clipPath id="clip0_3_8454">
<rect width="857" height="90" fill="white" transform="translate(-46 95.699) rotate(-7.8887)"/>
</clipPath>
</defs>
</svg>
