<svg width="1440" height="478" viewBox="0 0 1440 478" fill="none" xmlns="http://www.w3.org/2000/svg">
<g clip-path="url(#clip0_1_2327)">
<rect x="-630.42" y="547.702" width="4000" height="100" transform="rotate(-7.8887 -630.42 547.702)" fill="url(#paint0_linear_1_2327)"/>
<path d="M-302.811 563.891L-309.992 564.886L-303.442 531.673L-294.805 530.476L-279.486 560.659L-286.668 561.655L-297.996 538.301L-298.244 538.335L-302.811 563.891ZM-304.986 551.494L-288.023 549.144L-287.298 554.375L-304.261 556.726L-304.986 551.494ZM-273.594 527.537L-269.202 559.234L-275.795 560.148L-280.187 528.451L-273.594 527.537ZM-261.719 525.892L-257.327 557.589L-263.92 558.503L-268.312 526.805L-261.719 525.892ZM-236.653 563.81C-237.488 563.926 -238.282 563.968 -239.033 563.935C-239.772 563.911 -240.393 563.834 -240.895 563.704L-240.091 558.577C-239.284 558.707 -238.57 558.739 -237.948 558.674C-237.316 558.607 -236.794 558.388 -236.383 558.015C-235.961 557.642 -235.658 557.063 -235.472 556.28L-235.224 555.221L-247.14 531.948L-240.207 530.988L-232.866 547.764L-232.618 547.73L-230.069 529.583L-223.089 528.616L-228.679 556.238C-228.945 557.579 -229.394 558.777 -230.027 559.832C-230.647 560.896 -231.499 561.766 -232.583 562.442C-233.666 563.128 -235.022 563.584 -236.653 563.81ZM-206.382 551.003C-208.786 551.336 -210.936 551.114 -212.831 550.335C-214.718 549.545 -216.263 548.297 -217.467 546.592C-218.672 544.877 -219.443 542.802 -219.781 540.367C-220.121 537.911 -219.944 535.699 -219.249 533.731C-218.556 531.752 -217.408 530.132 -215.806 528.868C-214.195 527.594 -212.187 526.79 -209.783 526.457C-207.379 526.123 -205.233 526.352 -203.347 527.142C-201.451 527.921 -199.901 529.168 -198.695 530.883C-197.492 532.588 -196.72 534.668 -196.379 537.124C-196.042 539.559 -196.22 541.766 -196.913 543.744C-197.608 545.713 -198.761 547.334 -200.372 548.609C-201.974 549.872 -203.978 550.67 -206.382 551.003ZM-207.058 545.892C-205.965 545.74 -205.094 545.304 -204.448 544.583C-203.802 543.852 -203.369 542.92 -203.148 541.785C-202.916 540.648 -202.896 539.389 -203.087 538.006C-203.279 536.624 -203.641 535.417 -204.173 534.387C-204.694 533.355 -205.365 532.575 -206.185 532.047C-207.004 531.519 -207.961 531.331 -209.055 531.482C-210.159 531.635 -211.044 532.079 -211.71 532.812C-212.366 533.545 -212.809 534.479 -213.041 535.615C-213.262 536.75 -213.277 538.009 -213.086 539.392C-212.894 540.774 -212.538 541.982 -212.016 543.013C-211.484 544.044 -210.803 544.822 -209.973 545.349C-209.134 545.864 -208.162 546.045 -207.058 545.892ZM-176.616 536.089L-178.507 522.438L-171.914 521.525L-168.62 545.298L-174.95 546.175L-175.548 541.857L-175.796 541.891C-176.14 543.358 -176.877 544.602 -178.008 545.621C-179.129 546.638 -180.582 547.271 -182.367 547.518C-183.956 547.738 -185.404 547.571 -186.712 547.016C-188.019 546.461 -189.105 545.565 -189.971 544.328C-190.826 543.09 -191.387 541.543 -191.655 539.687L-193.752 524.551L-187.159 523.637L-185.224 537.598C-185.02 538.999 -184.489 540.056 -183.634 540.769C-182.778 541.481 -181.726 541.75 -180.477 541.577C-179.683 541.467 -178.965 541.184 -178.323 540.727C-177.684 540.26 -177.202 539.636 -176.879 538.855C-176.546 538.072 -176.458 537.151 -176.616 536.089ZM-163.346 544.567L-166.64 520.794L-160.248 519.908L-159.673 524.056L-159.426 524.022C-159.197 522.486 -158.624 521.271 -157.707 520.377C-156.791 519.471 -155.667 518.927 -154.336 518.742C-154.006 518.697 -153.647 518.668 -153.26 518.656C-152.872 518.645 -152.529 518.655 -152.23 518.687L-151.42 524.537C-151.742 524.487 -152.182 524.464 -152.739 524.468C-153.296 524.471 -153.801 524.505 -154.255 524.568C-155.225 524.702 -156.062 525.034 -156.767 525.562C-157.463 526.079 -157.982 526.74 -158.322 527.545C-158.653 528.347 -158.751 529.234 -158.616 530.204L-156.753 543.653L-163.346 544.567ZM-126.612 539.871C-128.417 540.122 -130.117 539.884 -131.711 539.158C-133.296 538.421 -134.642 537.204 -135.75 535.506C-136.849 533.797 -137.583 531.617 -137.95 528.965C-138.328 526.241 -138.203 523.916 -137.576 521.988C-136.951 520.051 -135.973 518.532 -134.642 517.433C-133.303 516.322 -131.761 515.646 -130.018 515.404C-128.687 515.22 -127.546 515.293 -126.596 515.624C-125.637 515.943 -124.837 516.401 -124.197 516.995C-123.549 517.579 -123.035 518.17 -122.658 518.77L-122.457 518.742L-124.108 506.824L-117.53 505.913L-113.138 537.61L-119.639 538.511L-120.166 534.704L-120.445 534.742C-120.663 535.445 -121.011 536.161 -121.488 536.89C-121.957 537.607 -122.61 538.239 -123.449 538.787C-124.278 539.333 -125.332 539.694 -126.612 539.871ZM-125.249 534.335C-124.186 534.188 -123.329 533.775 -122.676 533.095C-122.015 532.404 -121.561 531.505 -121.315 530.399C-121.058 529.29 -121.028 528.029 -121.224 526.616C-121.42 525.202 -121.786 524.002 -122.322 523.014C-122.859 522.026 -123.538 521.3 -124.359 520.835C-125.181 520.371 -126.123 520.212 -127.186 520.359C-128.269 520.509 -129.142 520.93 -129.803 521.621C-130.464 522.312 -130.914 523.205 -131.151 524.3C-131.388 525.395 -131.412 526.629 -131.222 528.001C-131.03 529.384 -130.67 530.58 -130.141 531.59C-129.603 532.588 -128.926 533.336 -128.111 533.833C-127.287 534.318 -126.333 534.485 -125.249 534.335ZM-100.876 536.369C-102.393 536.579 -103.781 536.503 -105.041 536.141C-106.301 535.769 -107.35 535.11 -108.186 534.163C-109.012 533.205 -109.534 531.942 -109.752 530.374C-109.935 529.053 -109.846 527.91 -109.485 526.945C-109.125 525.981 -108.565 525.167 -107.805 524.504C-107.045 523.841 -106.152 523.297 -105.128 522.871C-104.094 522.444 -102.996 522.092 -101.836 521.816C-100.473 521.48 -99.3774 521.191 -98.5485 520.95C-97.721 520.699 -97.1342 520.418 -96.7882 520.107C-96.4422 519.796 -96.3042 519.388 -96.3742 518.882L-96.3871 518.789C-96.5229 517.809 -96.9375 517.094 -97.631 516.643C-98.3141 516.191 -99.218 516.042 -100.343 516.198C-101.529 516.363 -102.437 516.757 -103.066 517.38C-103.696 517.993 -104.07 518.708 -104.188 519.523L-110.355 519.873C-110.246 518.385 -109.81 517.053 -109.048 515.874C-108.287 514.686 -107.229 513.708 -105.873 512.942C-104.509 512.164 -102.877 511.644 -100.979 511.381C-99.6579 511.198 -98.3725 511.177 -97.1224 511.319C-95.862 511.46 -94.7172 511.791 -93.6882 512.311C-92.6489 512.829 -91.785 513.561 -91.0966 514.507C-90.4097 515.442 -89.9683 516.617 -89.7724 518.03L-87.5507 534.065L-93.8034 534.931L-94.2602 531.635L-94.4459 531.66C-94.7248 532.456 -95.1447 533.182 -95.7058 533.838C-96.2683 534.484 -96.9763 535.029 -97.8296 535.473C-98.6844 535.907 -99.6999 536.206 -100.876 536.369ZM-99.6185 531.557C-98.6486 531.422 -97.8186 531.113 -97.1286 530.628C-96.44 530.133 -95.93 529.526 -95.5984 528.807C-95.2669 528.088 -95.159 527.311 -95.2748 526.475L-95.6244 523.952C-95.8122 524.115 -96.0788 524.278 -96.4242 524.442C-96.7607 524.593 -97.1443 524.746 -97.5752 524.901C-98.0074 525.045 -98.4404 525.184 -98.874 525.317C-99.3091 525.441 -99.7037 525.553 -100.058 525.655C-100.816 525.876 -101.467 526.15 -102.01 526.478C-102.554 526.805 -102.956 527.203 -103.217 527.67C-103.48 528.127 -103.568 528.665 -103.483 529.284C-103.358 530.182 -102.938 530.823 -102.222 531.208C-101.498 531.58 -100.63 531.697 -99.6185 531.557ZM-73.0846 507.831L-72.3984 512.784L-86.7147 514.767L-87.401 509.815L-73.0846 507.831ZM-84.94 503.669L-78.3467 502.755L-75.2758 524.919C-75.1914 525.527 -75.0328 525.989 -74.7999 526.304C-74.5684 526.608 -74.2783 526.805 -73.9295 526.893C-73.5704 526.98 -73.1691 526.993 -72.7254 526.931C-72.4158 526.888 -72.1099 526.82 -71.8075 526.725C-71.5065 526.62 -71.2756 526.541 -71.1148 526.487L-69.398 531.25C-69.7139 531.399 -70.1618 531.582 -70.7417 531.799C-71.3201 532.026 -72.0354 532.215 -72.8875 532.364C-74.4679 532.646 -75.8901 532.628 -77.1542 532.309C-78.408 531.988 -79.4358 531.363 -80.2377 530.433C-81.0396 529.503 -81.5434 528.258 -81.7489 526.699L-84.94 503.669ZM-58.6546 530.518C-60.1713 530.729 -61.5595 530.653 -62.819 530.291C-64.0799 529.919 -65.1282 529.26 -65.9639 528.313C-66.7907 527.355 -67.3128 526.092 -67.5301 524.524C-67.7131 523.203 -67.6243 522.06 -67.2637 521.095C-66.9032 520.13 -66.3429 519.317 -65.5829 518.654C-64.8229 517.991 -63.9308 517.447 -62.9067 517.021C-61.8722 516.594 -60.7747 516.242 -59.6142 515.965C-58.2515 515.629 -57.1558 515.341 -56.3268 515.1C-55.4994 514.848 -54.9126 514.567 -54.5666 514.257C-54.2205 513.946 -54.0825 513.537 -54.1526 513.032L-54.1655 512.939C-54.3013 511.959 -54.7159 511.243 -55.4093 510.793C-56.0925 510.34 -56.9963 510.192 -58.121 510.348C-59.3076 510.512 -60.2152 510.906 -60.844 511.53C-61.4741 512.143 -61.8484 512.857 -61.9667 513.673L-68.1333 514.023C-68.0239 512.535 -67.5881 511.202 -66.826 510.024C-66.0652 508.835 -65.0071 507.858 -63.6515 507.092C-62.287 506.314 -60.6555 505.793 -58.757 505.53C-57.4363 505.347 -56.1509 505.327 -54.9008 505.469C-53.6403 505.61 -52.4956 505.94 -51.4666 506.46C-50.4273 506.979 -49.5634 507.711 -48.875 508.657C-48.188 509.592 -47.7466 510.767 -47.5508 512.18L-45.329 528.215L-51.5818 529.081L-52.0386 525.784L-52.2243 525.81C-52.5031 526.606 -52.9231 527.332 -53.4842 527.988C-54.0467 528.634 -54.7547 529.179 -55.608 529.623C-56.4628 530.057 -57.4783 530.355 -58.6546 530.518ZM-57.3969 525.706C-56.427 525.572 -55.597 525.263 -54.907 524.778C-54.2184 524.283 -53.7084 523.676 -53.3768 522.957C-53.0453 522.238 -52.9374 521.46 -53.0532 520.625L-53.4028 518.102C-53.5905 518.265 -53.8571 518.428 -54.2025 518.591C-54.5391 518.743 -54.9227 518.896 -55.3535 519.051C-55.7858 519.195 -56.2187 519.333 -56.6524 519.467C-57.0875 519.591 -57.482 519.703 -57.836 519.805C-58.5942 520.025 -59.245 520.3 -59.7885 520.627C-60.332 520.955 -60.7343 521.353 -60.9956 521.82C-61.2583 522.277 -61.3467 522.815 -61.2609 523.434C-61.1365 524.332 -60.7165 524.973 -60.0007 525.357C-59.276 525.73 -58.408 525.847 -57.3969 525.706ZM-23.2855 525.618C-24.8022 525.828 -26.1903 525.752 -27.4498 525.39C-28.7108 525.018 -29.7591 524.359 -30.5948 523.412C-31.4216 522.454 -31.9437 521.191 -32.161 519.623C-32.344 518.302 -32.2552 517.159 -31.8946 516.194C-31.5341 515.23 -30.9738 514.416 -30.2138 513.753C-29.4538 513.09 -28.5617 512.546 -27.5376 512.12C-26.5031 511.693 -25.4056 511.341 -24.245 511.065C-22.8824 510.729 -21.7867 510.44 -20.9577 510.199C-20.1302 509.948 -19.5435 509.667 -19.1974 509.356C-18.8514 509.045 -18.7134 508.637 -18.7835 508.131L-18.7963 508.038C-18.9322 507.058 -19.3468 506.343 -20.0402 505.892C-20.7233 505.44 -21.6272 505.291 -22.7519 505.447C-23.9385 505.612 -24.8461 506.006 -25.4748 506.629C-26.105 507.242 -26.4792 507.957 -26.5976 508.772L-32.7642 509.122C-32.6548 507.634 -32.219 506.302 -31.4569 505.123C-30.6961 503.935 -29.638 502.957 -28.2824 502.191C-26.9179 501.413 -25.2864 500.893 -23.3879 500.63C-22.0672 500.447 -20.7818 500.426 -19.5317 500.568C-18.2712 500.709 -17.1265 501.04 -16.0975 501.56C-15.0582 502.078 -14.1943 502.81 -13.5059 503.756C-12.8189 504.691 -12.3775 505.866 -12.1816 507.279L-9.95993 523.314L-16.2127 524.18L-16.6695 520.884L-16.8552 520.909C-17.134 521.705 -17.554 522.431 -18.1151 523.087C-18.6776 523.733 -19.3855 524.278 -20.2389 524.722C-21.0937 525.156 -22.1092 525.455 -23.2855 525.618ZM-22.0277 520.806C-21.0578 520.671 -20.2279 520.362 -19.5379 519.877C-18.8493 519.382 -18.3392 518.775 -18.0077 518.056C-17.6762 517.337 -17.5683 516.56 -17.6841 515.724L-18.0336 513.201C-18.2214 513.364 -18.488 513.527 -18.8334 513.691C-19.1699 513.842 -19.5536 513.995 -19.9844 514.15C-20.4167 514.294 -20.8496 514.433 -21.2833 514.566C-21.7184 514.69 -22.1129 514.802 -22.4669 514.904C-23.225 515.125 -23.8759 515.399 -24.4194 515.727C-24.9629 516.054 -25.3652 516.452 -25.6265 516.919C-25.8891 517.376 -25.9776 517.914 -25.8918 518.533C-25.7674 519.431 -25.3473 520.072 -24.6315 520.457C-23.9068 520.829 -23.0389 520.946 -22.0277 520.806ZM-4.84473 522.605L-8.13871 498.832L-1.74665 497.946L-1.17192 502.094L-0.924289 502.06C-0.695374 500.524 -0.122354 499.309 0.79477 498.415C1.71046 497.509 2.83383 496.965 4.16486 496.78C4.49504 496.735 4.85388 496.706 5.24136 496.694C5.62885 496.683 5.97205 496.693 6.27097 496.725L7.08159 502.575C6.75918 502.525 6.31955 502.502 5.76268 502.506C5.20581 502.509 4.70038 502.543 4.24639 502.605C3.27649 502.74 2.43907 503.072 1.73415 503.6C1.03812 504.117 0.519732 504.778 0.178991 505.583C-0.151432 506.385 -0.249448 507.272 -0.115058 508.242L1.74853 521.691L-4.84473 522.605ZM22.7805 519.25C20.3351 519.589 18.1616 519.386 16.26 518.64C14.3672 517.882 12.8197 516.656 11.6174 514.961C10.4136 513.256 9.63803 511.149 9.29062 508.642C8.95179 506.197 9.12905 503.985 9.8224 502.006C10.5157 500.028 11.6525 498.403 13.2327 497.133C14.8231 495.861 16.7843 495.063 19.1162 494.74C20.6845 494.523 22.1796 494.573 23.6013 494.892C25.0319 495.198 26.3221 495.782 27.472 496.643C28.6322 497.502 29.6011 498.651 30.3787 500.089C31.155 501.517 31.6832 503.242 31.9634 505.264L32.2143 507.075L12.1405 509.856L11.5743 505.77L25.4418 503.849C25.3103 502.9 24.9874 502.087 24.4732 501.412C23.959 500.736 23.307 500.243 22.5172 499.932C21.7363 499.609 20.8661 499.514 19.9065 499.647C18.9056 499.786 18.0504 500.141 17.3409 500.712C16.6403 501.272 16.1269 501.969 15.8008 502.803C15.4732 503.626 15.3693 504.508 15.4891 505.449L16.0274 509.333C16.1904 510.51 16.5479 511.496 17.0999 512.292C17.6622 513.087 18.378 513.661 19.2471 514.014C20.1163 514.367 21.1029 514.467 22.2069 514.314C22.9395 514.212 23.5959 514.016 24.176 513.725C24.7562 513.435 25.2344 513.053 25.6105 512.58C25.9867 512.107 26.2468 511.556 26.3909 510.926L32.5447 510.484C32.4381 511.992 31.9809 513.359 31.1728 514.586C30.3737 515.801 29.2631 516.817 27.841 517.634C26.4278 518.44 24.7409 518.979 22.7805 519.25ZM48.1412 515.263L43.7493 483.566L50.3425 482.653L51.9938 494.57L52.195 494.542C52.3953 493.862 52.7231 493.154 53.1784 492.418C53.6427 491.67 54.2878 491.013 55.1136 490.446C55.9484 489.868 57.0313 489.487 58.3623 489.302C60.0958 489.062 61.758 489.294 63.349 489.999C64.9385 490.694 66.2976 491.889 67.4263 493.583C68.5535 495.267 69.3058 497.471 69.6833 500.195C70.0507 502.847 69.9328 505.145 69.3294 507.09C68.7349 509.024 67.7702 510.561 66.4351 511.703C65.1089 512.833 63.543 513.524 61.7373 513.774C60.4579 513.951 59.34 513.89 58.3837 513.592C57.4378 513.292 56.6367 512.861 55.9806 512.3C55.323 511.728 54.7989 511.133 54.4081 510.514L54.1141 510.555L54.6416 514.363L48.1412 515.263ZM52.9482 502.483C53.1441 503.896 53.511 505.102 54.0489 506.1C54.5868 507.098 55.268 507.84 56.0923 508.325C56.9153 508.8 57.8582 508.964 58.9209 508.816C59.994 508.668 60.8613 508.248 61.5227 507.557C62.1827 506.855 62.6306 505.952 62.8666 504.847C63.1114 503.73 63.138 502.48 62.9464 501.097C62.7563 499.725 62.3981 498.544 61.872 497.555C61.3458 496.566 60.6705 495.828 59.8461 495.343C59.0217 494.858 58.0678 494.691 56.9844 494.841C55.9114 494.989 55.0427 495.399 54.3784 496.069C53.7245 496.738 53.2736 497.621 53.0259 498.718C52.7783 499.814 52.7523 501.069 52.9482 502.483ZM86.6237 510.404C84.1783 510.743 82.0048 510.54 80.1031 509.793C78.2104 509.036 76.6629 507.809 75.4605 506.115C74.2568 504.41 73.4812 502.303 73.1338 499.796C72.795 497.351 72.9722 495.139 73.6656 493.16C74.3589 491.182 75.4957 489.557 77.0758 488.287C78.6663 487.015 80.6275 486.217 82.9594 485.894C84.5277 485.677 86.0228 485.727 87.4445 486.046C88.8751 486.352 90.1653 486.936 91.3152 487.796C92.4753 488.656 93.4443 489.805 94.2219 491.243C94.9981 492.67 95.5264 494.396 95.8066 496.418L96.0575 498.229L75.9837 501.01L75.4175 496.924L89.285 495.003C89.1535 494.053 88.8306 493.241 88.3164 492.566C87.8021 491.89 87.1501 491.397 86.3604 491.086C85.5795 490.763 84.7093 490.668 83.7497 490.801C82.7488 490.939 81.8936 491.295 81.1841 491.866C80.4835 492.426 79.9701 493.123 79.644 493.957C79.3164 494.78 79.2125 495.662 79.3323 496.603L79.8706 500.487C80.0335 501.664 80.391 502.65 80.9431 503.446C81.5054 504.241 82.2212 504.815 83.0903 505.168C83.9594 505.521 84.946 505.621 86.0501 505.468C86.7827 505.366 87.439 505.17 88.0192 504.879C88.5994 504.589 89.0776 504.207 89.4537 503.734C89.8299 503.261 90.09 502.71 90.2341 502.08L96.3879 501.638C96.2813 503.146 95.824 504.513 95.016 505.74C94.2169 506.955 93.1062 507.971 91.6841 508.788C90.2709 509.594 88.5841 510.133 86.6237 510.404ZM103.975 475.221L108.367 506.918L101.773 507.832L97.3814 476.135L103.975 475.221ZM124.454 505.163C122.05 505.496 119.9 505.273 118.004 504.495C116.117 503.704 114.572 502.457 113.368 500.752C112.163 499.036 111.392 496.961 111.055 494.526C110.714 492.07 110.891 489.858 111.586 487.89C112.28 485.912 113.427 484.291 115.03 483.028C116.641 481.753 118.648 480.949 121.052 480.616C123.457 480.283 125.602 480.511 127.489 481.301C129.384 482.08 130.935 483.327 132.14 485.042C133.344 486.747 134.116 488.828 134.456 491.283C134.793 493.719 134.615 495.925 133.922 497.904C133.227 499.872 132.074 501.493 130.463 502.768C128.861 504.031 126.858 504.829 124.454 505.163ZM123.777 500.051C124.871 499.899 125.741 499.463 126.388 498.743C127.033 498.012 127.466 497.079 127.688 495.944C127.919 494.808 127.939 493.548 127.748 492.166C127.556 490.783 127.195 489.576 126.663 488.546C126.141 487.514 125.47 486.734 124.651 486.206C123.831 485.678 122.874 485.49 121.78 485.642C120.676 485.795 119.791 486.238 119.125 486.972C118.47 487.704 118.026 488.638 117.794 489.775C117.573 490.91 117.558 492.168 117.75 493.551C117.941 494.934 118.298 496.141 118.819 497.173C119.351 498.203 120.032 498.982 120.862 499.508C121.701 500.023 122.673 500.204 123.777 500.051ZM145.066 487.826L146.97 501.569L140.377 502.483L137.083 478.71L143.367 477.839L143.948 482.034L144.227 481.995C144.561 480.54 145.292 479.324 146.419 478.347C147.544 477.361 148.989 476.745 150.753 476.501C152.404 476.272 153.893 476.433 155.221 476.986C156.549 477.538 157.647 478.437 158.513 479.684C159.379 480.921 159.94 482.463 160.195 484.31L162.293 499.446L155.7 500.36L153.765 486.4C153.574 484.943 153.045 483.86 152.179 483.149C151.311 482.428 150.217 482.159 148.897 482.342C148.009 482.465 147.252 482.764 146.623 483.24C146.006 483.715 145.557 484.345 145.276 485.131C145.005 485.904 144.935 486.803 145.066 487.826ZM179.503 506.652C177.367 506.948 175.495 506.908 173.887 506.532C172.29 506.164 170.973 505.542 169.937 504.665C168.901 503.789 168.162 502.745 167.721 501.534L173.705 499.868C173.956 500.317 174.312 500.72 174.771 501.077C175.231 501.434 175.808 501.691 176.503 501.847C177.209 502.012 178.042 502.028 179.002 501.895C180.436 501.696 181.569 501.182 182.4 500.351C183.243 499.53 183.552 498.304 183.326 496.674L182.724 492.325L182.445 492.363C182.248 493.064 181.901 493.748 181.404 494.416C180.908 495.085 180.232 495.667 179.375 496.165C178.519 496.662 177.461 496.998 176.202 497.172C174.417 497.419 172.735 497.232 171.155 496.609C169.585 495.975 168.247 494.862 167.143 493.269C166.048 491.665 165.318 489.547 164.954 486.916C164.581 484.223 164.707 481.913 165.334 479.985C165.961 478.058 166.94 476.545 168.27 475.446C169.611 474.345 171.153 473.674 172.897 473.432C174.228 473.248 175.374 473.32 176.334 473.65C177.294 473.969 178.093 474.426 178.733 475.021C179.381 475.605 179.9 476.195 180.288 476.793L180.535 476.759L179.982 472.766L186.529 471.859L189.855 495.864C190.135 497.886 189.874 499.647 189.073 501.146C188.271 502.646 187.04 503.857 185.38 504.781C183.732 505.714 181.773 506.338 179.503 506.652ZM177.605 491.93C178.668 491.783 179.529 491.395 180.189 490.767C180.858 490.128 181.319 489.286 181.574 488.241C181.838 487.184 181.873 485.959 181.68 484.567C181.487 483.174 181.124 481.994 180.59 481.026C180.055 480.049 179.377 479.328 178.555 478.863C177.734 478.399 176.792 478.24 175.729 478.387C174.645 478.537 173.773 478.958 173.112 479.649C172.449 480.33 171.998 481.213 171.759 482.297C171.52 483.382 171.495 484.6 171.682 485.952C171.872 487.324 172.227 488.484 172.748 489.432C173.277 490.368 173.946 491.059 174.754 491.505C175.572 491.938 176.522 492.08 177.605 491.93ZM214.508 467.982L215.194 472.935L200.877 474.919L200.191 469.966L214.508 467.982ZM202.652 463.82L209.246 462.906L212.316 485.07C212.401 485.678 212.559 486.14 212.792 486.455C213.024 486.759 213.314 486.956 213.663 487.044C214.022 487.131 214.423 487.144 214.867 487.082C215.176 487.039 215.482 486.971 215.785 486.876C216.086 486.772 216.317 486.692 216.477 486.638L218.194 491.401C217.878 491.55 217.43 491.733 216.851 491.95C216.272 492.177 215.557 492.366 214.705 492.515C213.124 492.797 211.702 492.779 210.438 492.46C209.184 492.139 208.156 491.514 207.354 490.584C206.553 489.654 206.049 488.409 205.843 486.85L202.652 463.82ZM232.647 490.171C230.242 490.504 228.093 490.282 226.197 489.503C224.31 488.713 222.765 487.466 221.561 485.76C220.356 484.045 219.585 481.97 219.247 479.535C218.907 477.079 219.084 474.867 219.779 472.899C220.473 470.92 221.62 469.3 223.223 468.037C224.834 466.762 226.841 465.958 229.245 465.625C231.649 465.292 233.795 465.52 235.682 466.31C237.577 467.089 239.128 468.336 240.333 470.051C241.537 471.756 242.309 473.837 242.649 476.292C242.986 478.727 242.808 480.934 242.115 482.913C241.42 484.881 240.267 486.502 238.656 487.777C237.054 489.04 235.051 489.838 232.647 490.171ZM231.97 485.06C233.064 484.908 233.934 484.472 234.581 483.751C235.226 483.02 235.659 482.088 235.881 480.953C236.112 479.816 236.132 478.557 235.941 477.174C235.749 475.792 235.387 474.585 234.856 473.555C234.334 472.523 233.663 471.743 232.844 471.215C232.024 470.687 231.067 470.499 229.973 470.65C228.869 470.803 227.984 471.247 227.318 471.981C226.663 472.713 226.219 473.647 225.987 474.783C225.766 475.918 225.751 477.177 225.943 478.56C226.134 479.942 226.491 481.15 227.012 482.182C227.544 483.212 228.225 483.991 229.055 484.517C229.894 485.032 230.866 485.213 231.97 485.06ZM263.963 494.445C263.127 494.561 262.334 494.602 261.583 494.57C260.843 494.546 260.223 494.469 259.721 494.339L260.525 489.211C261.331 489.341 262.046 489.374 262.668 489.308C263.3 489.242 263.822 489.022 264.233 488.65C264.654 488.276 264.958 487.698 265.144 486.915L265.391 485.855L253.475 462.583L260.409 461.622L267.75 478.398L267.997 478.364L270.546 460.217L277.527 459.25L271.937 486.873C271.67 488.214 271.221 489.412 270.589 490.467C269.969 491.531 269.117 492.401 268.033 493.077C266.95 493.763 265.593 494.219 263.963 494.445ZM294.234 481.638C291.83 481.971 289.68 481.748 287.784 480.97C285.898 480.18 284.352 478.932 283.149 477.227C281.943 475.511 281.172 473.436 280.835 471.001C280.495 468.545 280.672 466.334 281.367 464.365C282.06 462.387 283.208 460.766 284.81 459.503C286.421 458.228 288.429 457.424 290.833 457.091C293.237 456.758 295.382 456.986 297.269 457.777C299.165 458.555 300.715 459.802 301.92 461.517C303.124 463.223 303.896 465.303 304.236 467.759C304.574 470.194 304.396 472.4 303.702 474.379C303.008 476.347 301.855 477.969 300.243 479.243C298.641 480.507 296.638 481.305 294.234 481.638ZM293.557 476.526C294.651 476.374 295.521 475.938 296.168 475.218C296.813 474.487 297.247 473.554 297.468 472.419C297.7 471.283 297.72 470.023 297.528 468.641C297.337 467.258 296.975 466.052 296.443 465.021C295.921 463.989 295.251 463.209 294.431 462.681C293.611 462.153 292.654 461.965 291.561 462.117C290.457 462.27 289.572 462.713 288.906 463.447C288.25 464.179 287.806 465.114 287.575 466.25C287.353 467.385 287.338 468.644 287.53 470.026C287.722 471.409 288.078 472.616 288.6 473.648C289.132 474.678 289.813 475.457 290.643 475.983C291.482 476.498 292.453 476.679 293.557 476.526ZM324 466.724L322.109 453.073L328.702 452.159L331.996 475.932L325.666 476.809L325.067 472.491L324.82 472.526C324.476 473.993 323.739 475.236 322.607 476.255C321.487 477.273 320.034 477.905 318.249 478.153C316.66 478.373 315.211 478.205 313.904 477.65C312.597 477.095 311.51 476.2 310.645 474.963C309.79 473.725 309.229 472.178 308.961 470.322L306.864 455.185L313.457 454.272L315.391 468.232C315.596 469.634 316.126 470.691 316.982 471.403C317.838 472.115 318.89 472.385 320.139 472.212C320.933 472.102 321.651 471.818 322.292 471.361C322.932 470.894 323.413 470.27 323.736 469.489C324.07 468.707 324.158 467.785 324 466.724ZM345.148 477.219L388.732 471.18L382.693 427.597L339.109 433.636L345.148 477.219Z" fill="white"/>
<path d="M426.289 453.501C425.831 452.071 424.536 450.375 422.355 449.166C421.282 448.568 420.228 448.228 419.228 448.158L419.129 447.443C420.991 446.716 422.702 445.159 423.669 443.237C424.159 442.266 424.431 441.343 424.476 440.416L425.192 440.317C425.72 441.998 427.313 443.722 429.296 444.749C430.269 445.257 431.248 445.555 432.214 445.63L432.313 446.345C430.476 446.999 428.512 448.991 427.66 450.862C427.235 451.807 427.022 452.652 427.005 453.402L426.289 453.501Z" fill="white"/>
<path d="M475.751 456.013L468.57 457.009L475.12 423.795L483.756 422.599L499.075 452.782L491.894 453.777L480.566 430.423L480.318 430.457L475.751 456.013ZM473.576 443.617L490.539 441.266L491.264 446.497L474.301 448.848L473.576 443.617ZM504.968 419.659L509.36 451.357L502.767 452.27L498.375 420.573L504.968 419.659ZM516.843 418.014L521.235 449.711L514.641 450.625L510.249 418.928L516.843 418.014ZM541.909 455.933C541.073 456.048 540.28 456.09 539.529 456.057C538.789 456.034 538.169 455.957 537.667 455.826L538.471 450.699C539.278 450.829 539.992 450.861 540.614 450.796C541.246 450.73 541.768 450.51 542.179 450.138C542.6 449.764 542.904 449.185 543.09 448.402L543.337 447.343L531.421 424.071L538.355 423.11L545.696 439.886L545.943 439.852L548.493 421.705L555.473 420.738L549.883 448.36C549.616 449.701 549.167 450.899 548.535 451.954C547.915 453.018 547.063 453.888 545.979 454.564C544.896 455.251 543.539 455.707 541.909 455.933ZM572.18 443.125C569.776 443.459 567.626 443.236 565.73 442.457C563.844 441.667 562.299 440.42 561.095 438.715C559.89 436.999 559.118 434.924 558.781 432.489C558.441 430.033 558.618 427.821 559.313 425.853C560.006 423.875 561.154 422.254 562.756 420.991C564.367 419.716 566.375 418.912 568.779 418.579C571.183 418.246 573.328 418.474 575.215 419.264C577.111 420.043 578.661 421.29 579.866 423.005C581.07 424.71 581.842 426.791 582.182 429.246C582.52 431.681 582.342 433.888 581.648 435.867C580.954 437.835 579.801 439.456 578.19 440.731C576.587 441.994 574.584 442.792 572.18 443.125ZM571.503 438.014C572.597 437.862 573.467 437.426 574.114 436.706C574.759 435.975 575.193 435.042 575.414 433.907C575.646 432.771 575.666 431.511 575.474 430.128C575.283 428.746 574.921 427.539 574.389 426.509C573.868 425.477 573.197 424.697 572.377 424.169C571.557 423.641 570.6 423.453 569.507 423.605C568.403 423.757 567.518 424.201 566.852 424.935C566.196 425.667 565.752 426.601 565.521 427.738C565.299 428.872 565.284 430.131 565.476 431.514C565.668 432.896 566.024 434.104 566.546 435.136C567.078 436.166 567.759 436.945 568.589 437.471C569.428 437.986 570.399 438.167 571.503 438.014ZM601.946 428.211L600.055 414.561L606.648 413.647L609.942 437.42L603.612 438.297L603.013 433.979L602.766 434.013C602.422 435.481 601.685 436.724 600.554 437.743C599.433 438.76 597.98 439.393 596.195 439.64C594.606 439.86 593.157 439.693 591.85 439.138C590.543 438.583 589.457 437.687 588.591 436.451C587.736 435.212 587.175 433.665 586.907 431.81L584.81 416.673L591.403 415.759L593.337 429.72C593.542 431.122 594.072 432.179 594.928 432.891C595.784 433.603 596.836 433.873 598.085 433.7C598.879 433.59 599.597 433.306 600.238 432.849C600.878 432.382 601.36 431.758 601.683 430.977C602.016 430.195 602.104 429.273 601.946 428.211ZM615.216 436.689L611.922 412.916L618.314 412.031L618.888 416.179L619.136 416.144C619.365 414.609 619.938 413.394 620.855 412.499C621.771 411.594 622.894 411.049 624.225 410.865C624.555 410.819 624.914 410.79 625.302 410.778C625.689 410.767 626.032 410.777 626.331 410.809L627.142 416.66C626.82 416.61 626.38 416.586 625.823 416.59C625.266 416.594 624.761 416.627 624.307 416.69C623.337 416.824 622.499 417.156 621.795 417.685C621.099 418.202 620.58 418.862 620.239 419.667C619.909 420.47 619.811 421.356 619.945 422.326L621.809 435.776L615.216 436.689ZM651.95 431.994C650.144 432.244 648.445 432.006 646.851 431.28C645.266 430.543 643.919 429.326 642.811 427.628C641.712 425.919 640.979 423.739 640.612 421.087C640.234 418.363 640.359 416.038 640.986 414.111C641.611 412.173 642.589 410.655 643.919 409.555C645.259 408.444 646.8 407.768 648.544 407.526C649.875 407.342 651.016 407.415 651.966 407.746C652.925 408.066 653.725 408.523 654.364 409.118C655.013 409.701 655.526 410.292 655.904 410.892L656.105 410.864L654.454 398.947L661.032 398.035L665.424 429.732L658.923 430.633L658.396 426.826L658.117 426.864C657.899 427.568 657.551 428.284 657.074 429.012C656.605 429.729 655.951 430.361 655.112 430.909C654.284 431.455 653.23 431.816 651.95 431.994ZM653.313 426.457C654.375 426.31 655.233 425.897 655.885 425.218C656.547 424.526 657.001 423.628 657.247 422.521C657.504 421.413 657.534 420.152 657.338 418.738C657.142 417.324 656.776 416.124 656.239 415.136C655.703 414.148 655.024 413.422 654.202 412.957C653.381 412.493 652.439 412.334 651.376 412.482C650.293 412.632 649.42 413.052 648.759 413.743C648.097 414.434 647.648 415.327 647.411 416.422C647.173 417.517 647.15 418.751 647.34 420.123C647.531 421.506 647.892 422.702 648.421 423.712C648.959 424.71 649.635 425.458 650.451 425.955C651.275 426.44 652.229 426.607 653.313 426.457ZM677.686 428.491C676.169 428.701 674.781 428.625 673.521 428.263C672.26 427.891 671.212 427.232 670.376 426.286C669.549 425.328 669.027 424.064 668.81 422.496C668.627 421.175 668.716 420.032 669.076 419.068C669.437 418.103 669.997 417.289 670.757 416.626C671.517 415.964 672.409 415.419 673.433 414.994C674.468 414.566 675.565 414.214 676.726 413.938C678.089 413.602 679.184 413.313 680.013 413.072C680.841 412.821 681.428 412.54 681.774 412.229C682.12 411.918 682.258 411.51 682.188 411.004L682.175 410.911C682.039 409.931 681.624 409.216 680.931 408.765C680.248 408.313 679.344 408.165 678.219 408.32C677.033 408.485 676.125 408.879 675.496 409.502C674.866 410.115 674.492 410.83 674.373 411.645L668.207 411.995C668.316 410.508 668.752 409.175 669.514 407.997C670.275 406.808 671.333 405.831 672.689 405.064C674.053 404.286 675.685 403.766 677.583 403.503C678.904 403.32 680.189 403.299 681.439 403.442C682.7 403.583 683.844 403.913 684.874 404.433C685.913 404.951 686.777 405.683 687.465 406.629C688.152 407.565 688.593 408.739 688.789 410.153L691.011 426.187L684.758 427.053L684.302 423.757L684.116 423.782C683.837 424.578 683.417 425.304 682.856 425.96C682.293 426.606 681.585 427.151 680.732 427.595C679.877 428.029 678.862 428.328 677.686 428.491ZM678.943 423.679C679.913 423.545 680.743 423.235 681.433 422.75C682.122 422.255 682.632 421.648 682.963 420.929C683.295 420.21 683.403 419.433 683.287 418.597L682.937 416.074C682.75 416.237 682.483 416.4 682.138 416.564C681.801 416.716 681.417 416.869 680.987 417.023C680.554 417.167 680.121 417.306 679.688 417.44C679.253 417.563 678.858 417.675 678.504 417.777C677.746 417.998 677.095 418.272 676.552 418.6C676.008 418.927 675.606 419.325 675.345 419.792C675.082 420.249 674.993 420.787 675.079 421.406C675.204 422.304 675.624 422.945 676.339 423.33C677.064 423.703 677.932 423.819 678.943 423.679ZM705.477 399.953L706.163 404.906L691.847 406.89L691.161 401.937L705.477 399.953ZM693.622 395.791L700.215 394.877L703.286 417.041C703.37 417.649 703.529 418.111 703.762 418.426C703.993 418.73 704.283 418.927 704.632 419.015C704.991 419.102 705.393 419.115 705.836 419.053C706.146 419.011 706.452 418.942 706.754 418.847C707.055 418.743 707.286 418.663 707.447 418.609L709.164 423.372C708.848 423.521 708.4 423.704 707.82 423.921C707.242 424.148 706.526 424.337 705.674 424.486C704.094 424.769 702.672 424.75 701.408 424.431C700.154 424.11 699.126 423.485 698.324 422.555C697.522 421.625 697.018 420.38 696.813 418.821L693.622 395.791ZM719.907 422.641C718.39 422.851 717.002 422.775 715.743 422.413C714.482 422.041 713.434 421.382 712.598 420.435C711.771 419.477 711.249 418.214 711.032 416.646C710.849 415.325 710.937 414.182 711.298 413.217C711.659 412.253 712.219 411.439 712.979 410.776C713.739 410.113 714.631 409.569 715.655 409.143C716.69 408.716 717.787 408.364 718.948 408.088C720.31 407.752 721.406 407.463 722.235 407.222C723.062 406.971 723.649 406.69 723.995 406.379C724.341 406.068 724.479 405.66 724.409 405.154L724.396 405.061C724.26 404.081 723.846 403.365 723.152 402.915C722.469 402.463 721.565 402.314 720.441 402.47C719.254 402.635 718.346 403.029 717.718 403.652C717.088 404.265 716.713 404.979 716.595 405.795L710.428 406.145C710.538 404.657 710.974 403.325 711.736 402.146C712.496 400.958 713.555 399.98 714.91 399.214C716.275 398.436 717.906 397.916 719.805 397.653C721.125 397.47 722.411 397.449 723.661 397.591C724.921 397.732 726.066 398.063 727.095 398.583C728.134 399.101 728.998 399.833 729.687 400.779C730.374 401.714 730.815 402.889 731.011 404.302L733.233 420.337L726.98 421.203L726.523 417.906L726.337 417.932C726.059 418.728 725.639 419.454 725.078 420.11C724.515 420.756 723.807 421.301 722.954 421.745C722.099 422.179 721.083 422.478 719.907 422.641ZM721.165 417.829C722.135 417.694 722.965 417.385 723.655 416.9C724.343 416.405 724.853 415.798 725.185 415.079C725.516 414.36 725.624 413.583 725.509 412.747L725.159 410.224C724.971 410.387 724.705 410.55 724.359 410.714C724.023 410.865 723.639 411.018 723.208 411.173C722.776 411.317 722.343 411.456 721.909 411.589C721.474 411.713 721.08 411.825 720.726 411.927C719.968 412.148 719.317 412.422 718.773 412.749C718.23 413.077 717.827 413.475 717.566 413.942C717.303 414.399 717.215 414.937 717.301 415.556C717.425 416.454 717.845 417.095 718.561 417.48C719.286 417.852 720.154 417.969 721.165 417.829ZM755.276 417.74C753.76 417.95 752.371 417.874 751.112 417.512C749.851 417.14 748.803 416.481 747.967 415.535C747.14 414.577 746.618 413.313 746.401 411.745C746.218 410.424 746.307 409.281 746.667 408.317C747.028 407.352 747.588 406.538 748.348 405.875C749.108 405.213 750 404.668 751.024 404.243C752.059 403.815 753.156 403.463 754.317 403.187C755.679 402.851 756.775 402.562 757.604 402.321C758.432 402.07 759.018 401.789 759.364 401.478C759.71 401.167 759.848 400.759 759.778 400.253L759.765 400.16C759.63 399.18 759.215 398.465 758.522 398.014C757.838 397.562 756.935 397.414 755.81 397.569C754.623 397.734 753.716 398.128 753.087 398.751C752.457 399.364 752.083 400.079 751.964 400.894L745.798 401.244C745.907 399.757 746.343 398.424 747.105 397.246C747.866 396.057 748.924 395.08 750.279 394.313C751.644 393.535 753.275 393.015 755.174 392.752C756.495 392.569 757.78 392.548 759.03 392.691C760.291 392.832 761.435 393.162 762.464 393.682C763.504 394.2 764.367 394.932 765.056 395.878C765.743 396.814 766.184 397.988 766.38 399.402L768.602 415.436L762.349 416.302L761.892 413.006L761.707 413.031C761.428 413.827 761.008 414.553 760.447 415.209C759.884 415.855 759.176 416.4 758.323 416.844C757.468 417.278 756.453 417.577 755.276 417.74ZM756.534 412.928C757.504 412.794 758.334 412.484 759.024 411.999C759.712 411.504 760.222 410.897 760.554 410.178C760.886 409.459 760.993 408.682 760.878 407.846L760.528 405.323C760.34 405.486 760.074 405.649 759.728 405.813C759.392 405.965 759.008 406.118 758.577 406.272C758.145 406.416 757.712 406.555 757.278 406.689C756.843 406.812 756.449 406.924 756.095 407.026C755.337 407.247 754.686 407.521 754.142 407.849C753.599 408.176 753.197 408.574 752.935 409.041C752.673 409.498 752.584 410.036 752.67 410.655C752.794 411.553 753.214 412.194 753.93 412.579C754.655 412.952 755.523 413.068 756.534 412.928ZM773.717 414.727L770.423 390.954L776.815 390.069L777.39 394.217L777.637 394.182C777.866 392.647 778.439 391.432 779.357 390.537C780.272 389.632 781.396 389.087 782.727 388.903C783.057 388.857 783.416 388.828 783.803 388.816C784.191 388.805 784.534 388.815 784.833 388.847L785.643 394.698C785.321 394.648 784.881 394.624 784.324 394.628C783.768 394.632 783.262 394.665 782.808 394.728C781.838 394.862 781.001 395.194 780.296 395.723C779.6 396.24 779.081 396.9 778.741 397.705C778.41 398.508 778.312 399.394 778.447 400.364L780.31 413.814L773.717 414.727ZM801.342 411.373C798.897 411.712 796.723 411.508 794.822 410.762C792.929 410.004 791.381 408.778 790.179 407.083C788.975 405.378 788.2 403.272 787.852 400.764C787.514 398.319 787.691 396.107 788.384 394.129C789.077 392.15 790.214 390.526 791.794 389.255C793.385 387.983 795.346 387.185 797.678 386.862C799.246 386.645 800.741 386.696 802.163 387.014C803.594 387.32 804.884 387.904 806.034 388.765C807.194 389.624 808.163 390.773 808.94 392.211C809.717 393.639 810.245 395.364 810.525 397.386L810.776 399.197L790.702 401.978L790.136 397.893L804.004 395.971C803.872 395.022 803.549 394.209 803.035 393.534C802.521 392.859 801.869 392.365 801.079 392.054C800.298 391.731 799.428 391.636 798.468 391.769C797.467 391.908 796.612 392.263 795.903 392.834C795.202 393.394 794.689 394.091 794.363 394.925C794.035 395.749 793.931 396.631 794.051 397.571L794.589 401.456C794.752 402.632 795.11 403.618 795.662 404.415C796.224 405.21 796.94 405.783 797.809 406.136C798.678 406.489 799.665 406.589 800.769 406.436C801.501 406.334 802.158 406.138 802.738 405.848C803.318 405.557 803.796 405.175 804.172 404.702C804.548 404.23 804.809 403.678 804.953 403.048L811.106 402.606C811 404.114 810.543 405.481 809.735 406.708C808.935 407.923 807.825 408.939 806.403 409.757C804.99 410.562 803.303 411.101 801.342 411.373ZM826.703 407.385L822.311 375.688L828.904 374.775L830.556 386.692L830.757 386.664C830.957 385.984 831.285 385.277 831.74 384.54C832.204 383.793 832.849 383.135 833.675 382.569C834.51 381.99 835.593 381.609 836.924 381.424C838.658 381.184 840.32 381.417 841.911 382.122C843.5 382.816 844.859 384.011 845.988 385.705C847.115 387.389 847.868 389.593 848.245 392.317C848.612 394.969 848.494 397.268 847.891 399.213C847.297 401.146 846.332 402.683 844.997 403.825C843.671 404.956 842.105 405.646 840.299 405.896C839.02 406.073 837.902 406.013 836.945 405.714C836 405.414 835.198 404.983 834.542 404.422C833.885 403.851 833.361 403.256 832.97 402.637L832.676 402.677L833.203 406.485L826.703 407.385ZM831.51 394.605C831.706 396.018 832.073 397.224 832.611 398.222C833.149 399.22 833.83 399.962 834.654 400.447C835.477 400.922 836.42 401.086 837.483 400.939C838.556 400.79 839.423 400.37 840.084 399.679C840.744 398.978 841.192 398.074 841.428 396.969C841.673 395.852 841.7 394.602 841.508 393.219C841.318 391.847 840.96 390.666 840.434 389.677C839.908 388.688 839.232 387.951 838.408 387.465C837.583 386.98 836.63 386.813 835.546 386.963C834.473 387.112 833.604 387.521 832.94 388.192C832.286 388.861 831.835 389.743 831.588 390.84C831.34 391.936 831.314 393.191 831.51 394.605ZM865.185 402.527C862.74 402.865 860.567 402.662 858.665 401.916C856.772 401.158 855.225 399.932 854.022 398.237C852.819 396.532 852.043 394.426 851.696 391.918C851.357 389.473 851.534 387.261 852.227 385.282C852.921 383.304 854.057 381.679 855.638 380.409C857.228 379.137 859.189 378.339 861.521 378.016C863.089 377.799 864.584 377.849 866.006 378.168C867.437 378.474 868.727 379.058 869.877 379.919C871.037 380.778 872.006 381.927 872.784 383.365C873.56 384.793 874.088 386.518 874.368 388.54L874.619 390.351L854.545 393.132L853.979 389.046L867.847 387.125C867.715 386.176 867.392 385.363 866.878 384.688C866.364 384.013 865.712 383.519 864.922 383.208C864.141 382.885 863.271 382.79 862.311 382.923C861.311 383.062 860.455 383.417 859.746 383.988C859.045 384.548 858.532 385.245 858.206 386.079C857.878 386.902 857.774 387.784 857.894 388.725L858.432 392.61C858.595 393.786 858.953 394.772 859.505 395.568C860.067 396.363 860.783 396.937 861.652 397.29C862.521 397.643 863.508 397.743 864.612 397.59C865.344 397.488 866.001 397.292 866.581 397.001C867.161 396.711 867.639 396.329 868.015 395.856C868.392 395.383 868.652 394.832 868.796 394.202L874.95 393.76C874.843 395.268 874.386 396.635 873.578 397.862C872.779 399.077 871.668 400.093 870.246 400.91C868.833 401.716 867.146 402.255 865.185 402.527ZM882.536 367.343L886.928 399.041L880.335 399.954L875.943 368.257L882.536 367.343ZM903.015 397.285C900.611 397.618 898.461 397.395 896.566 396.617C894.679 395.827 893.134 394.579 891.93 392.874C890.725 391.158 889.954 389.083 889.616 386.648C889.276 384.192 889.453 381.981 890.148 380.012C890.841 378.034 891.989 376.413 893.591 375.15C895.202 373.875 897.21 373.071 899.614 372.738C902.018 372.405 904.164 372.633 906.05 373.424C907.946 374.202 909.496 375.449 910.702 377.164C911.905 378.87 912.677 380.95 913.018 383.406C913.355 385.841 913.177 388.047 912.484 390.026C911.789 391.994 910.636 393.616 909.025 394.89C907.423 396.154 905.42 396.952 903.015 397.285ZM902.339 392.173C903.432 392.022 904.303 391.585 904.949 390.865C905.595 390.134 906.028 389.201 906.25 388.066C906.481 386.93 906.501 385.67 906.31 384.288C906.118 382.905 905.756 381.699 905.224 380.668C904.703 379.636 904.032 378.856 903.212 378.328C902.393 377.8 901.436 377.612 900.342 377.764C899.238 377.917 898.353 378.36 897.687 379.094C897.031 379.826 896.588 380.761 896.356 381.897C896.135 383.032 896.12 384.291 896.311 385.673C896.503 387.056 896.86 388.263 897.381 389.295C897.913 390.325 898.594 391.104 899.424 391.63C900.263 392.145 901.235 392.326 902.339 392.173ZM923.628 379.948L925.532 393.692L918.939 394.605L915.645 370.832L921.929 369.962L922.51 374.156L922.788 374.117C923.123 372.662 923.854 371.446 924.98 370.469C926.106 369.483 927.55 368.867 929.315 368.623C930.966 368.394 932.455 368.556 933.783 369.108C935.111 369.66 936.208 370.56 937.075 371.807C937.941 373.043 938.501 374.585 938.757 376.432L940.855 391.569L934.261 392.482L932.327 378.522C932.136 377.065 931.607 375.982 930.741 375.271C929.873 374.55 928.779 374.281 927.458 374.464C926.571 374.587 925.813 374.887 925.185 375.363C924.567 375.837 924.118 376.467 923.838 377.253C923.567 378.027 923.497 378.925 923.628 379.948ZM958.065 398.775C955.929 399.071 954.057 399.03 952.448 398.654C950.852 398.286 949.535 397.664 948.499 396.788C947.462 395.911 946.724 394.867 946.282 393.656L952.267 391.991C952.518 392.44 952.874 392.842 953.333 393.199C953.793 393.556 954.37 393.813 955.065 393.969C955.771 394.134 956.604 394.15 957.564 394.017C958.998 393.818 960.131 393.304 960.962 392.474C961.805 391.652 962.114 390.426 961.888 388.796L961.285 384.447L961.007 384.486C960.809 385.186 960.462 385.87 959.966 386.539C959.47 387.207 958.793 387.789 957.937 388.287C957.08 388.784 956.023 389.12 954.764 389.294C952.979 389.542 951.297 389.354 949.717 388.732C948.146 388.097 946.809 386.984 945.705 385.391C944.61 383.787 943.88 381.669 943.515 379.038C943.142 376.345 943.269 374.035 943.896 372.108C944.523 370.18 945.501 368.667 946.832 367.568C948.173 366.467 949.715 365.796 951.459 365.554C952.79 365.37 953.936 365.443 954.896 365.772C955.855 366.092 956.655 366.549 957.295 367.144C957.943 367.727 958.462 368.317 958.849 368.916L959.097 368.881L958.544 364.888L965.091 363.981L968.417 387.986C968.697 390.008 968.436 391.769 967.634 393.269C966.832 394.768 965.602 395.979 963.942 396.903C962.294 397.836 960.335 398.46 958.065 398.775ZM956.167 384.052C957.23 383.905 958.091 383.517 958.751 382.89C959.419 382.25 959.881 381.408 960.136 380.363C960.4 379.306 960.435 378.082 960.242 376.689C960.049 375.296 959.686 374.116 959.152 373.149C958.617 372.171 957.939 371.45 957.117 370.986C956.296 370.521 955.353 370.362 954.291 370.51C953.207 370.66 952.335 371.08 951.673 371.771C951.011 372.452 950.56 373.335 950.321 374.42C950.082 375.504 950.056 376.722 950.244 378.074C950.434 379.446 950.789 380.607 951.31 381.554C951.839 382.491 952.508 383.181 953.316 383.627C954.133 384.06 955.084 384.202 956.167 384.052ZM993.069 360.104L993.756 365.057L979.439 367.041L978.753 362.088L993.069 360.104ZM981.214 355.942L987.807 355.029L990.878 377.192C990.963 377.801 991.121 378.262 991.354 378.577C991.586 378.882 991.876 379.078 992.224 379.166C992.584 379.253 992.985 379.266 993.429 379.205C993.738 379.162 994.044 379.093 994.347 378.999C994.647 378.894 994.878 378.814 995.039 378.761L996.756 383.523C996.44 383.672 995.992 383.855 995.412 384.072C994.834 384.299 994.119 384.488 993.266 384.638C991.686 384.92 990.264 384.901 989 384.582C987.746 384.262 986.718 383.636 985.916 382.706C985.114 381.776 984.611 380.532 984.405 378.972L981.214 355.942ZM1011.21 382.294C1008.8 382.627 1006.65 382.404 1004.76 381.626C1002.87 380.835 1001.33 379.588 1000.12 377.883C998.918 376.167 998.147 374.092 997.809 371.657C997.469 369.201 997.646 366.989 998.341 365.021C999.034 363.043 1000.18 361.422 1001.78 360.159C1003.4 358.884 1005.4 358.08 1007.81 357.747C1010.21 357.414 1012.36 357.642 1014.24 358.432C1016.14 359.211 1017.69 360.458 1018.89 362.173C1020.1 363.878 1020.87 365.959 1021.21 368.414C1021.55 370.849 1021.37 373.056 1020.68 375.035C1019.98 377.003 1018.83 378.624 1017.22 379.899C1015.62 381.162 1013.61 381.96 1011.21 382.294ZM1010.53 377.182C1011.63 377.03 1012.5 376.594 1013.14 375.874C1013.79 375.143 1014.22 374.21 1014.44 373.075C1014.67 371.939 1014.69 370.679 1014.5 369.297C1014.31 367.914 1013.95 366.707 1013.42 365.677C1012.9 364.645 1012.23 363.865 1011.41 363.337C1010.59 362.809 1009.63 362.621 1008.54 362.773C1007.43 362.926 1006.55 363.369 1005.88 364.103C1005.22 364.835 1004.78 365.769 1004.55 366.906C1004.33 368.041 1004.31 369.299 1004.5 370.682C1004.7 372.065 1005.05 373.272 1005.57 374.304C1006.11 375.334 1006.79 376.113 1007.62 376.639C1008.46 377.154 1009.43 377.335 1010.53 377.182ZM1042.52 386.567C1041.69 386.683 1040.9 386.724 1040.14 386.692C1039.4 386.668 1038.78 386.591 1038.28 386.461L1039.09 381.333C1039.89 381.463 1040.61 381.496 1041.23 381.431C1041.86 381.364 1042.38 381.145 1042.79 380.772C1043.22 380.398 1043.52 379.82 1043.71 379.037L1043.95 377.977L1032.04 354.705L1038.97 353.744L1046.31 370.521L1046.56 370.486L1049.11 352.34L1056.09 351.372L1050.5 378.995C1050.23 380.336 1049.78 381.534 1049.15 382.589C1048.53 383.653 1047.68 384.523 1046.59 385.199C1045.51 385.885 1044.16 386.341 1042.52 386.567ZM1072.8 373.76C1070.39 374.093 1068.24 373.87 1066.35 373.092C1064.46 372.302 1062.91 371.054 1061.71 369.349C1060.51 367.634 1059.73 365.558 1059.4 363.123C1059.06 360.668 1059.23 358.456 1059.93 356.488C1060.62 354.509 1061.77 352.888 1063.37 351.625C1064.98 350.35 1066.99 349.546 1069.39 349.213C1071.8 348.88 1073.94 349.109 1075.83 349.899C1077.73 350.677 1079.28 351.924 1080.48 353.64C1081.69 355.345 1082.46 357.425 1082.8 359.881C1083.14 362.316 1082.96 364.523 1082.26 366.501C1081.57 368.469 1080.42 370.091 1078.81 371.366C1077.2 372.629 1075.2 373.427 1072.8 373.76ZM1072.12 368.648C1073.21 368.497 1074.08 368.061 1074.73 367.34C1075.38 366.609 1075.81 365.676 1076.03 364.541C1076.26 363.405 1076.28 362.146 1076.09 360.763C1075.9 359.38 1075.54 358.174 1075 357.143C1074.48 356.111 1073.81 355.331 1072.99 354.804C1072.17 354.276 1071.22 354.087 1070.12 354.239C1069.02 354.392 1068.13 354.835 1067.47 355.569C1066.81 356.301 1066.37 357.236 1066.14 358.372C1065.91 359.507 1065.9 360.766 1066.09 362.148C1066.28 363.531 1066.64 364.738 1067.16 365.77C1067.69 366.801 1068.37 367.579 1069.2 368.106C1070.04 368.62 1071.01 368.801 1072.12 368.648ZM1102.56 358.846L1100.67 345.195L1107.26 344.282L1110.56 368.054L1104.23 368.932L1103.63 364.613L1103.38 364.648C1103.04 366.115 1102.3 367.358 1101.17 368.377C1100.05 369.395 1098.6 370.027 1096.81 370.275C1095.22 370.495 1093.77 370.328 1092.47 369.773C1091.16 369.218 1090.07 368.322 1089.21 367.085C1088.35 365.847 1087.79 364.3 1087.52 362.444L1085.43 347.307L1092.02 346.394L1093.95 360.354C1094.16 361.756 1094.69 362.813 1095.54 363.525C1096.4 364.238 1097.45 364.507 1098.7 364.334C1099.49 364.224 1100.21 363.941 1100.85 363.484C1101.49 363.016 1101.98 362.392 1102.3 361.611C1102.63 360.829 1102.72 359.907 1102.56 358.846ZM1123.71 369.341L1167.29 363.302L1161.25 319.719L1117.67 325.758L1123.71 369.341Z" fill="white"/>
<path d="M1204.85 345.623C1204.39 344.193 1203.1 342.497 1200.92 341.289C1199.84 340.691 1198.79 340.351 1197.79 340.281L1197.69 339.565C1199.55 338.838 1201.26 337.281 1202.23 335.359C1202.72 334.388 1202.99 333.465 1203.04 332.538L1203.75 332.439C1204.28 334.12 1205.87 335.844 1207.86 336.871C1208.83 337.379 1209.81 337.677 1210.78 337.752L1210.87 338.468C1209.04 339.122 1207.07 341.113 1206.22 342.985C1205.8 343.929 1205.58 344.775 1205.57 345.524L1204.85 345.623Z" fill="white"/>
<path d="M1254.31 348.136L1247.13 349.131L1253.68 315.917L1262.32 314.721L1277.64 344.904L1270.46 345.899L1259.13 322.545L1258.88 322.579L1254.31 348.136ZM1252.14 335.739L1269.1 333.388L1269.83 338.62L1252.86 340.97L1252.14 335.739ZM1283.53 311.782L1287.92 343.479L1281.33 344.392L1276.94 312.695L1283.53 311.782ZM1295.4 310.136L1299.8 341.833L1293.2 342.747L1288.81 311.05L1295.4 310.136ZM1320.47 348.055C1319.64 348.171 1318.84 348.212 1318.09 348.18C1317.35 348.156 1316.73 348.079 1316.23 347.948L1317.03 342.821C1317.84 342.951 1318.55 342.983 1319.18 342.918C1319.81 342.852 1320.33 342.632 1320.74 342.26C1321.16 341.886 1321.47 341.307 1321.65 340.525L1321.9 339.465L1309.98 316.193L1316.92 315.232L1324.26 332.008L1324.51 331.974L1327.05 313.827L1334.03 312.86L1328.44 340.482C1328.18 341.823 1327.73 343.021 1327.1 344.076C1326.48 345.14 1325.62 346.01 1324.54 346.686C1323.46 347.373 1322.1 347.829 1320.47 348.055ZM1350.74 335.248C1348.34 335.581 1346.19 335.358 1344.29 334.58C1342.41 333.789 1340.86 332.542 1339.66 330.837C1338.45 329.121 1337.68 327.046 1337.34 324.611C1337 322.155 1337.18 319.943 1337.87 317.975C1338.57 315.997 1339.72 314.376 1341.32 313.113C1342.93 311.838 1344.94 311.034 1347.34 310.701C1349.74 310.368 1351.89 310.596 1353.78 311.387C1355.67 312.165 1357.22 313.412 1358.43 315.127C1359.63 316.832 1360.4 318.913 1360.74 321.369C1361.08 323.804 1360.9 326.01 1360.21 327.989C1359.52 329.957 1358.36 331.578 1356.75 332.853C1355.15 334.116 1353.15 334.915 1350.74 335.248ZM1350.07 330.136C1351.16 329.984 1352.03 329.548 1352.68 328.828C1353.32 328.097 1353.75 327.164 1353.98 326.029C1354.21 324.893 1354.23 323.633 1354.04 322.251C1353.84 320.868 1353.48 319.661 1352.95 318.631C1352.43 317.599 1351.76 316.819 1350.94 316.291C1350.12 315.763 1349.16 315.575 1348.07 315.727C1346.96 315.88 1346.08 316.323 1345.41 317.057C1344.76 317.789 1344.31 318.723 1344.08 319.86C1343.86 320.995 1343.85 322.253 1344.04 323.636C1344.23 325.019 1344.59 326.226 1345.11 327.258C1345.64 328.288 1346.32 329.067 1347.15 329.593C1347.99 330.108 1348.96 330.289 1350.07 330.136ZM1380.51 320.334L1378.62 306.683L1385.21 305.769L1388.5 329.542L1382.17 330.419L1381.58 326.101L1381.33 326.135C1380.98 327.603 1380.25 328.846 1379.12 329.865C1377.99 330.883 1376.54 331.515 1374.76 331.762C1373.17 331.983 1371.72 331.815 1370.41 331.26C1369.1 330.705 1368.02 329.809 1367.15 328.573C1366.3 327.335 1365.74 325.788 1365.47 323.932L1363.37 308.795L1369.96 307.882L1371.9 321.842C1372.1 323.244 1372.63 324.301 1373.49 325.013C1374.35 325.725 1375.4 325.995 1376.65 325.822C1377.44 325.712 1378.16 325.428 1378.8 324.971C1379.44 324.504 1379.92 323.88 1380.24 323.099C1380.58 322.317 1380.67 321.395 1380.51 320.334ZM1393.78 328.811L1390.48 305.039L1396.88 304.153L1397.45 308.301L1397.7 308.266C1397.93 306.731 1398.5 305.516 1399.42 304.621C1400.33 303.716 1401.46 303.171 1402.79 302.987C1403.12 302.941 1403.48 302.912 1403.86 302.901C1404.25 302.889 1404.59 302.899 1404.89 302.931L1405.7 308.782C1405.38 308.732 1404.94 308.709 1404.38 308.712C1403.83 308.716 1403.32 308.749 1402.87 308.812C1401.9 308.946 1401.06 309.278 1400.36 309.807C1399.66 310.324 1399.14 310.985 1398.8 311.789C1398.47 312.592 1398.37 313.478 1398.51 314.448L1400.37 327.898L1393.78 328.811ZM1430.51 324.116C1428.71 324.366 1427.01 324.128 1425.41 323.403C1423.83 322.665 1422.48 321.448 1421.37 319.751C1420.27 318.042 1419.54 315.861 1419.17 313.209C1418.8 310.485 1418.92 308.16 1419.55 306.233C1420.17 304.295 1421.15 302.777 1422.48 301.678C1423.82 300.567 1425.36 299.89 1427.11 299.649C1428.44 299.464 1429.58 299.537 1430.53 299.869C1431.49 300.188 1432.29 300.645 1432.93 301.24C1433.57 301.823 1434.09 302.414 1434.47 303.014L1434.67 302.986L1433.02 291.069L1439.59 290.157L1443.99 321.855L1437.48 322.755L1436.96 318.948L1436.68 318.987C1436.46 319.69 1436.11 320.406 1435.64 321.134C1435.17 321.851 1434.51 322.483 1433.67 323.031C1432.85 323.577 1431.79 323.939 1430.51 324.116ZM1431.87 318.58C1432.94 318.432 1433.79 318.019 1434.45 317.34C1435.11 316.649 1435.56 315.75 1435.81 314.643C1436.07 313.535 1436.1 312.274 1435.9 310.86C1435.7 309.447 1435.34 308.246 1434.8 307.258C1434.26 306.27 1433.59 305.544 1432.76 305.08C1431.94 304.615 1431 304.456 1429.94 304.604C1428.85 304.754 1427.98 305.174 1427.32 305.865C1426.66 306.557 1426.21 307.45 1425.97 308.545C1425.73 309.64 1425.71 310.873 1425.9 312.246C1426.09 313.628 1426.45 314.824 1426.98 315.834C1427.52 316.832 1428.2 317.58 1429.01 318.077C1429.84 318.562 1430.79 318.73 1431.87 318.58ZM1456.25 320.613C1454.73 320.823 1453.34 320.747 1452.08 320.386C1450.82 320.013 1449.77 319.354 1448.94 318.408C1448.11 317.45 1447.59 316.187 1447.37 314.618C1447.19 313.297 1447.28 312.155 1447.64 311.19C1448 310.225 1448.56 309.411 1449.32 308.749C1450.08 308.086 1450.97 307.542 1452 307.116C1453.03 306.688 1454.13 306.337 1455.29 306.06C1456.65 305.724 1457.75 305.436 1458.58 305.194C1459.4 304.943 1459.99 304.662 1460.34 304.351C1460.68 304.04 1460.82 303.632 1460.75 303.127L1460.74 303.034C1460.6 302.053 1460.19 301.338 1459.49 300.887C1458.81 300.435 1457.91 300.287 1456.78 300.443C1455.59 300.607 1454.69 301.001 1454.06 301.624C1453.43 302.238 1453.05 302.952 1452.94 303.768L1446.77 304.117C1446.88 302.63 1447.31 301.297 1448.08 300.119C1448.84 298.93 1449.89 297.953 1451.25 297.187C1452.61 296.409 1454.25 295.888 1456.14 295.625C1457.47 295.442 1458.75 295.422 1460 295.564C1461.26 295.705 1462.41 296.035 1463.44 296.555C1464.47 297.074 1465.34 297.806 1466.03 298.751C1466.71 299.687 1467.16 300.861 1467.35 302.275L1469.57 318.309L1463.32 319.176L1462.86 315.879L1462.68 315.905C1462.4 316.7 1461.98 317.426 1461.42 318.083C1460.86 318.728 1460.15 319.273 1459.29 319.718C1458.44 320.152 1457.42 320.45 1456.25 320.613ZM1457.51 315.801C1458.47 315.667 1459.3 315.357 1459.99 314.872C1460.68 314.377 1461.19 313.77 1461.53 313.051C1461.86 312.332 1461.96 311.555 1461.85 310.719L1461.5 308.197C1461.31 308.359 1461.04 308.522 1460.7 308.686C1460.36 308.838 1459.98 308.991 1459.55 309.145C1459.12 309.289 1458.68 309.428 1458.25 309.562C1457.81 309.685 1457.42 309.798 1457.07 309.899C1456.31 310.12 1455.66 310.394 1455.11 310.722C1454.57 311.05 1454.17 311.447 1453.91 311.914C1453.64 312.372 1453.56 312.91 1453.64 313.529C1453.77 314.426 1454.19 315.067 1454.9 315.452C1455.63 315.825 1456.49 315.941 1457.51 315.801ZM1484.04 292.075L1484.73 297.028L1470.41 299.012L1469.72 294.059L1484.04 292.075ZM1472.18 287.913L1478.78 287L1481.85 309.163C1481.93 309.772 1482.09 310.233 1482.32 310.548C1482.56 310.853 1482.85 311.049 1483.19 311.137C1483.55 311.224 1483.95 311.237 1484.4 311.176C1484.71 311.133 1485.01 311.064 1485.32 310.97C1485.62 310.865 1485.85 310.785 1486.01 310.732L1487.73 315.494C1487.41 315.643 1486.96 315.826 1486.38 316.043C1485.8 316.271 1485.09 316.459 1484.24 316.609C1482.66 316.891 1481.23 316.872 1479.97 316.553C1478.72 316.233 1477.69 315.607 1476.89 314.677C1476.08 313.747 1475.58 312.503 1475.37 310.943L1472.18 287.913ZM1498.47 314.763C1496.95 314.973 1495.56 314.897 1494.3 314.535C1493.04 314.163 1492 313.504 1491.16 312.558C1490.33 311.6 1489.81 310.336 1489.59 308.768C1489.41 307.447 1489.5 306.304 1489.86 305.34C1490.22 304.375 1490.78 303.561 1491.54 302.898C1492.3 302.236 1493.19 301.691 1494.22 301.266C1495.25 300.838 1496.35 300.486 1497.51 300.21C1498.87 299.874 1499.97 299.585 1500.8 299.344C1501.62 299.093 1502.21 298.812 1502.56 298.501C1502.9 298.19 1503.04 297.782 1502.97 297.276L1502.96 297.183C1502.82 296.203 1502.41 295.488 1501.71 295.037C1501.03 294.585 1500.13 294.437 1499 294.592C1497.82 294.757 1496.91 295.151 1496.28 295.774C1495.65 296.387 1495.28 297.102 1495.16 297.917L1488.99 298.267C1489.1 296.78 1489.54 295.447 1490.3 294.268C1491.06 293.08 1492.12 292.102 1493.47 291.336C1494.84 290.558 1496.47 290.038 1498.37 289.775C1499.69 289.592 1500.97 289.571 1502.22 289.714C1503.48 289.854 1504.63 290.185 1505.66 290.705C1506.7 291.223 1507.56 291.955 1508.25 292.901C1508.94 293.837 1509.38 295.011 1509.57 296.425L1511.79 312.459L1505.54 313.325L1505.08 310.029L1504.9 310.054C1504.62 310.85 1504.2 311.576 1503.64 312.232C1503.08 312.878 1502.37 313.423 1501.52 313.867C1500.66 314.301 1499.65 314.6 1498.47 314.763ZM1499.73 309.951C1500.7 309.816 1501.53 309.507 1502.22 309.022C1502.91 308.527 1503.42 307.92 1503.75 307.201C1504.08 306.482 1504.19 305.705 1504.07 304.869L1503.72 302.346C1503.53 302.509 1503.27 302.672 1502.92 302.836C1502.58 302.988 1502.2 303.141 1501.77 303.295C1501.34 303.439 1500.9 303.578 1500.47 303.712C1500.04 303.835 1499.64 303.947 1499.29 304.049C1498.53 304.27 1497.88 304.544 1497.33 304.872C1496.79 305.199 1496.39 305.597 1496.13 306.064C1495.87 306.521 1495.78 307.059 1495.86 307.678C1495.99 308.576 1496.41 309.217 1497.12 309.602C1497.85 309.975 1498.72 310.091 1499.73 309.951ZM1533.84 309.862C1532.32 310.072 1530.93 309.996 1529.67 309.635C1528.41 309.262 1527.36 308.603 1526.53 307.657C1525.7 306.699 1525.18 305.436 1524.96 303.867C1524.78 302.546 1524.87 301.404 1525.23 300.439C1525.59 299.474 1526.15 298.66 1526.91 297.998C1527.67 297.335 1528.56 296.791 1529.59 296.365C1530.62 295.937 1531.72 295.586 1532.88 295.309C1534.24 294.973 1535.34 294.685 1536.17 294.443C1536.99 294.192 1537.58 293.911 1537.93 293.6C1538.27 293.289 1538.41 292.881 1538.34 292.376L1538.33 292.283C1538.19 291.302 1537.78 290.587 1537.08 290.136C1536.4 289.684 1535.5 289.536 1534.37 289.692C1533.18 289.856 1532.28 290.25 1531.65 290.873C1531.02 291.487 1530.64 292.201 1530.53 293.017L1524.36 293.366C1524.47 291.879 1524.9 290.546 1525.67 289.368C1526.43 288.179 1527.49 287.202 1528.84 286.436C1530.21 285.658 1531.84 285.137 1533.74 284.874C1535.06 284.691 1536.34 284.671 1537.59 284.813C1538.85 284.954 1540 285.284 1541.03 285.804C1542.07 286.323 1542.93 287.055 1543.62 288C1544.3 288.936 1544.75 290.11 1544.94 291.524L1547.16 307.558L1540.91 308.425L1540.45 305.128L1540.27 305.154C1539.99 305.949 1539.57 306.675 1539.01 307.332C1538.45 307.977 1537.74 308.522 1536.88 308.967C1536.03 309.401 1535.01 309.699 1533.84 309.862ZM1535.1 305.05C1536.07 304.916 1536.9 304.606 1537.59 304.121C1538.27 303.626 1538.78 303.019 1539.12 302.3C1539.45 301.581 1539.56 300.804 1539.44 299.968L1539.09 297.446C1538.9 297.608 1538.64 297.771 1538.29 297.935C1537.95 298.087 1537.57 298.24 1537.14 298.394C1536.71 298.538 1536.27 298.677 1535.84 298.811C1535.41 298.934 1535.01 299.047 1534.66 299.148C1533.9 299.369 1533.25 299.643 1532.7 299.971C1532.16 300.299 1531.76 300.696 1531.5 301.163C1531.23 301.621 1531.15 302.159 1531.23 302.778C1531.36 303.675 1531.78 304.316 1532.49 304.701C1533.22 305.074 1534.08 305.19 1535.1 305.05ZM1552.28 306.849L1548.98 283.077L1555.38 282.191L1555.95 286.339L1556.2 286.304C1556.43 284.769 1557 283.554 1557.92 282.659C1558.83 281.754 1559.96 281.209 1561.29 281.025C1561.62 280.979 1561.98 280.95 1562.36 280.939C1562.75 280.927 1563.1 280.937 1563.39 280.969L1564.21 286.82C1563.88 286.77 1563.44 286.747 1562.89 286.75C1562.33 286.754 1561.82 286.787 1561.37 286.85C1560.4 286.984 1559.56 287.316 1558.86 287.845C1558.16 288.362 1557.64 289.023 1557.3 289.827C1556.97 290.63 1556.87 291.516 1557.01 292.486L1558.87 305.936L1552.28 306.849ZM1579.9 303.495C1577.46 303.834 1575.29 303.63 1573.38 302.884C1571.49 302.126 1569.94 300.9 1568.74 299.205C1567.54 297.5 1566.76 295.394 1566.41 292.887C1566.08 290.441 1566.25 288.229 1566.95 286.251C1567.64 284.272 1568.78 282.648 1570.36 281.377C1571.95 280.105 1573.91 279.308 1576.24 278.985C1577.81 278.767 1579.3 278.818 1580.72 279.136C1582.16 279.443 1583.45 280.026 1584.6 280.887C1585.76 281.746 1586.72 282.895 1587.5 284.333C1588.28 285.761 1588.81 287.486 1589.09 289.508L1589.34 291.319L1569.26 294.101L1568.7 290.015L1582.57 288.093C1582.43 287.144 1582.11 286.332 1581.6 285.656C1581.08 284.981 1580.43 284.488 1579.64 284.176C1578.86 283.853 1577.99 283.758 1577.03 283.891C1576.03 284.03 1575.17 284.385 1574.46 284.957C1573.76 285.516 1573.25 286.213 1572.92 287.047C1572.6 287.871 1572.49 288.753 1572.61 289.693L1573.15 293.578C1573.31 294.754 1573.67 295.74 1574.22 296.537C1574.79 297.332 1575.5 297.906 1576.37 298.258C1577.24 298.611 1578.23 298.711 1579.33 298.558C1580.06 298.457 1580.72 298.261 1581.3 297.97C1581.88 297.679 1582.36 297.297 1582.73 296.825C1583.11 296.352 1583.37 295.8 1583.51 295.171L1589.67 294.728C1589.56 296.236 1589.1 297.603 1588.3 298.83C1587.5 300.045 1586.39 301.061 1584.96 301.879C1583.55 302.685 1581.86 303.223 1579.9 303.495ZM1605.26 299.508L1600.87 267.81L1607.47 266.897L1609.12 278.814L1609.32 278.786C1609.52 278.107 1609.85 277.399 1610.3 276.663C1610.77 275.915 1611.41 275.257 1612.24 274.691C1613.07 274.112 1614.15 273.731 1615.49 273.547C1617.22 273.306 1618.88 273.539 1620.47 274.244C1622.06 274.938 1623.42 276.133 1624.55 277.827C1625.68 279.512 1626.43 281.716 1626.81 284.44C1627.17 287.091 1627.06 289.39 1626.45 291.335C1625.86 293.268 1624.89 294.806 1623.56 295.948C1622.23 297.078 1620.67 297.768 1618.86 298.018C1617.58 298.195 1616.46 298.135 1615.51 297.836C1614.56 297.536 1613.76 297.105 1613.1 296.544C1612.45 295.973 1611.92 295.378 1611.53 294.759L1611.24 294.8L1611.77 298.607L1605.26 299.508ZM1610.07 286.727C1610.27 288.141 1610.63 289.346 1611.17 290.344C1611.71 291.343 1612.39 292.084 1613.22 292.569C1614.04 293.044 1614.98 293.208 1616.04 293.061C1617.12 292.912 1617.98 292.492 1618.65 291.801C1619.31 291.1 1619.75 290.196 1619.99 289.091C1620.23 287.974 1620.26 286.724 1620.07 285.342C1619.88 283.969 1619.52 282.789 1619 281.799C1618.47 280.81 1617.79 280.073 1616.97 279.588C1616.15 279.102 1615.19 278.935 1614.11 279.085C1613.03 279.234 1612.17 279.643 1611.5 280.314C1610.85 280.983 1610.4 281.865 1610.15 282.962C1609.9 284.058 1609.88 285.313 1610.07 286.727ZM1643.75 294.649C1641.3 294.988 1639.13 294.784 1637.23 294.038C1635.33 293.28 1633.79 292.054 1632.58 290.359C1631.38 288.654 1630.6 286.548 1630.26 284.04C1629.92 281.595 1630.1 279.383 1630.79 277.405C1631.48 275.426 1632.62 273.802 1634.2 272.531C1635.79 271.259 1637.75 270.462 1640.08 270.138C1641.65 269.921 1643.15 269.972 1644.57 270.29C1646 270.596 1647.29 271.18 1648.44 272.041C1649.6 272.9 1650.57 274.049 1651.35 275.487C1652.12 276.915 1652.65 278.64 1652.93 280.662L1653.18 282.473L1633.11 285.255L1632.54 281.169L1646.41 279.247C1646.28 278.298 1645.95 277.485 1645.44 276.81C1644.93 276.135 1644.27 275.641 1643.48 275.33C1642.7 275.007 1641.83 274.912 1640.87 275.045C1639.87 275.184 1639.02 275.539 1638.31 276.11C1637.61 276.67 1637.09 277.367 1636.77 278.201C1636.44 279.025 1636.34 279.907 1636.46 280.847L1636.99 284.732C1637.16 285.908 1637.51 286.894 1638.07 287.691C1638.63 288.486 1639.34 289.059 1640.21 289.412C1641.08 289.765 1642.07 289.865 1643.17 289.712C1643.91 289.61 1644.56 289.414 1645.14 289.124C1645.72 288.833 1646.2 288.451 1646.58 287.978C1646.95 287.506 1647.21 286.954 1647.36 286.324L1653.51 285.882C1653.4 287.39 1652.95 288.757 1652.14 289.984C1651.34 291.199 1650.23 292.215 1648.81 293.033C1647.39 293.838 1645.71 294.377 1643.75 294.649ZM1661.1 259.466L1665.49 291.163L1658.9 292.076L1654.5 260.379L1661.1 259.466ZM1681.58 289.407C1679.17 289.74 1677.02 289.517 1675.13 288.739C1673.24 287.949 1671.7 286.701 1670.49 284.996C1669.29 283.281 1668.52 281.205 1668.18 278.77C1667.84 276.315 1668.01 274.103 1668.71 272.135C1669.4 270.156 1670.55 268.535 1672.15 267.272C1673.76 265.997 1675.77 265.193 1678.18 264.86C1680.58 264.527 1682.73 264.756 1684.61 265.546C1686.51 266.324 1688.06 267.571 1689.26 269.287C1690.47 270.992 1691.24 273.072 1691.58 275.528C1691.92 277.963 1691.74 280.17 1691.05 282.148C1690.35 284.116 1689.2 285.738 1687.59 287.013C1685.98 288.276 1683.98 289.074 1681.58 289.407ZM1680.9 284.295C1681.99 284.144 1682.86 283.708 1683.51 282.987C1684.16 282.256 1684.59 281.323 1684.81 280.188C1685.04 279.052 1685.06 277.793 1684.87 276.41C1684.68 275.027 1684.32 273.821 1683.79 272.79C1683.26 271.758 1682.59 270.978 1681.77 270.451C1680.95 269.923 1680 269.734 1678.9 269.886C1677.8 270.039 1676.91 270.482 1676.25 271.216C1675.59 271.948 1675.15 272.883 1674.92 274.019C1674.7 275.154 1674.68 276.413 1674.87 277.795C1675.06 279.178 1675.42 280.385 1675.94 281.417C1676.47 282.448 1677.16 283.226 1677.99 283.753C1678.82 284.267 1679.8 284.448 1680.9 284.295ZM1702.19 272.07L1704.09 285.814L1697.5 286.727L1694.21 262.955L1700.49 262.084L1701.07 266.278L1701.35 266.24C1701.68 264.784 1702.42 263.568 1703.54 262.592C1704.67 261.605 1706.11 260.989 1707.88 260.745C1709.53 260.516 1711.02 260.678 1712.34 261.23C1713.67 261.782 1714.77 262.682 1715.64 263.929C1716.5 265.165 1717.06 266.707 1717.32 268.554L1719.42 283.691L1712.82 284.604L1710.89 270.644C1710.7 269.188 1710.17 268.104 1709.3 267.393C1708.43 266.672 1707.34 266.403 1706.02 266.586C1705.13 266.709 1704.38 267.009 1703.75 267.485C1703.13 267.96 1702.68 268.59 1702.4 269.375C1702.13 270.149 1702.06 271.047 1702.19 272.07ZM1736.63 290.897C1734.49 291.193 1732.62 291.152 1731.01 290.776C1729.41 290.408 1728.1 289.786 1727.06 288.91C1726.02 288.033 1725.29 286.989 1724.84 285.778L1730.83 284.113C1731.08 284.562 1731.44 284.965 1731.89 285.322C1732.35 285.679 1732.93 285.935 1733.63 286.091C1734.33 286.256 1735.17 286.272 1736.13 286.139C1737.56 285.941 1738.69 285.426 1739.52 284.596C1740.37 283.774 1740.68 282.549 1740.45 280.918L1739.85 276.569L1739.57 276.608C1739.37 277.308 1739.02 277.993 1738.53 278.661C1738.03 279.329 1737.36 279.912 1736.5 280.409C1735.64 280.906 1734.58 281.242 1733.33 281.416C1731.54 281.664 1729.86 281.476 1728.28 280.854C1726.71 280.22 1725.37 279.106 1724.27 277.513C1723.17 275.909 1722.44 273.791 1722.08 271.16C1721.7 268.467 1721.83 266.157 1722.46 264.23C1723.08 262.303 1724.06 260.789 1725.39 259.69C1726.73 258.589 1728.28 257.918 1730.02 257.677C1731.35 257.492 1732.5 257.565 1733.46 257.894C1734.42 258.214 1735.22 258.671 1735.86 259.266C1736.5 259.849 1737.02 260.44 1737.41 261.038L1737.66 261.004L1737.11 257.01L1743.65 256.103L1746.98 280.108C1747.26 282.131 1747 283.891 1746.2 285.391C1745.39 286.89 1744.16 288.102 1742.5 289.026C1740.86 289.959 1738.9 290.582 1736.63 290.897ZM1734.73 276.174C1735.79 276.027 1736.65 275.639 1737.31 275.012C1737.98 274.372 1738.44 273.53 1738.7 272.485C1738.96 271.429 1739 270.204 1738.8 268.811C1738.61 267.418 1738.25 266.238 1737.71 265.271C1737.18 264.293 1736.5 263.572 1735.68 263.108C1734.86 262.643 1733.92 262.484 1732.85 262.632C1731.77 262.782 1730.9 263.202 1730.24 263.894C1729.57 264.574 1729.12 265.457 1728.88 266.542C1728.64 267.626 1728.62 268.845 1728.81 270.196C1729 271.569 1729.35 272.729 1729.87 273.677C1730.4 274.613 1731.07 275.304 1731.88 275.749C1732.7 276.183 1733.65 276.324 1734.73 276.174ZM1771.63 252.227L1772.32 257.179L1758 259.163L1757.31 254.21L1771.63 252.227ZM1759.78 248.064L1766.37 247.151L1769.44 269.314C1769.52 269.923 1769.68 270.385 1769.92 270.699C1770.15 271.004 1770.44 271.2 1770.79 271.289C1771.15 271.375 1771.55 271.388 1771.99 271.327C1772.3 271.284 1772.61 271.215 1772.91 271.121C1773.21 271.016 1773.44 270.937 1773.6 270.883L1775.32 275.645C1775 275.794 1774.55 275.977 1773.97 276.194C1773.4 276.422 1772.68 276.61 1771.83 276.76C1770.25 277.042 1768.83 277.023 1767.56 276.704C1766.31 276.384 1765.28 275.758 1764.48 274.828C1763.68 273.898 1763.17 272.654 1762.97 271.094L1759.78 248.064ZM1789.77 274.416C1787.37 274.749 1785.22 274.526 1783.32 273.748C1781.43 272.958 1779.89 271.71 1778.68 270.005C1777.48 268.289 1776.71 266.214 1776.37 263.779C1776.03 261.323 1776.21 259.111 1776.9 257.143C1777.6 255.165 1778.74 253.544 1780.35 252.281C1781.96 251.006 1783.96 250.202 1786.37 249.869C1788.77 249.536 1790.92 249.764 1792.81 250.555C1794.7 251.333 1796.25 252.58 1797.46 254.295C1798.66 256 1799.43 258.081 1799.77 260.537C1800.11 262.972 1799.93 265.178 1799.24 267.157C1798.54 269.125 1797.39 270.747 1795.78 272.021C1794.18 273.285 1792.17 274.083 1789.77 274.416ZM1789.09 269.304C1790.19 269.152 1791.06 268.716 1791.7 267.996C1792.35 267.265 1792.78 266.332 1793 265.197C1793.24 264.061 1793.26 262.801 1793.06 261.419C1792.87 260.036 1792.51 258.83 1791.98 257.799C1791.46 256.767 1790.79 255.987 1789.97 255.459C1789.15 254.931 1788.19 254.743 1787.1 254.895C1785.99 255.048 1785.11 255.491 1784.44 256.225C1783.79 256.957 1783.34 257.892 1783.11 259.028C1782.89 260.163 1782.87 261.421 1783.07 262.804C1783.26 264.187 1783.61 265.394 1784.14 266.426C1784.67 267.456 1785.35 268.235 1786.18 268.761C1787.02 269.276 1787.99 269.457 1789.09 269.304ZM1821.09 278.689C1820.25 278.805 1819.46 278.847 1818.71 278.814C1817.97 278.79 1817.35 278.713 1816.84 278.583L1817.65 273.455C1818.45 273.585 1819.17 273.618 1819.79 273.553C1820.42 273.486 1820.95 273.267 1821.36 272.894C1821.78 272.52 1822.08 271.942 1822.27 271.159L1822.51 270.099L1810.6 246.827L1817.53 245.866L1824.87 262.643L1825.12 262.608L1827.67 244.462L1834.65 243.495L1829.06 271.117C1828.79 272.458 1828.34 273.656 1827.71 274.711C1827.09 275.775 1826.24 276.645 1825.16 277.321C1824.07 278.007 1822.72 278.463 1821.09 278.689ZM1851.36 265.882C1848.95 266.215 1846.8 265.993 1844.91 265.214C1843.02 264.424 1841.48 263.176 1840.27 261.471C1839.07 259.756 1838.3 257.681 1837.96 255.246C1837.62 252.79 1837.8 250.578 1838.49 248.61C1839.18 246.631 1840.33 245.01 1841.93 243.747C1843.54 242.473 1845.55 241.669 1847.96 241.335C1850.36 241.002 1852.51 241.231 1854.39 242.021C1856.29 242.799 1857.84 244.046 1859.04 245.762C1860.25 247.467 1861.02 249.547 1861.36 252.003C1861.7 254.438 1861.52 256.645 1860.83 258.623C1860.13 260.591 1858.98 262.213 1857.37 263.488C1855.76 264.751 1853.76 265.549 1851.36 265.882ZM1850.68 260.77C1851.77 260.619 1852.64 260.183 1853.29 259.462C1853.94 258.731 1854.37 257.798 1854.59 256.664C1854.82 255.527 1854.84 254.268 1854.65 252.885C1854.46 251.503 1854.1 250.296 1853.57 249.265C1853.04 248.234 1852.37 247.454 1851.55 246.926C1850.73 246.398 1849.78 246.21 1848.68 246.361C1847.58 246.514 1846.7 246.958 1846.03 247.691C1845.37 248.424 1844.93 249.358 1844.7 250.494C1844.48 251.629 1844.46 252.888 1844.65 254.271C1844.85 255.653 1845.2 256.86 1845.72 257.892C1846.26 258.923 1846.94 259.701 1847.77 260.228C1848.61 260.743 1849.58 260.923 1850.68 260.77ZM1881.12 250.968L1879.23 237.317L1885.83 236.404L1889.12 260.177L1882.79 261.054L1882.19 256.736L1881.94 256.77C1881.6 258.237 1880.86 259.48 1879.73 260.499C1878.61 261.517 1877.16 262.15 1875.37 262.397C1873.78 262.617 1872.33 262.45 1871.03 261.895C1869.72 261.34 1868.63 260.444 1867.77 259.207C1866.91 257.969 1866.35 256.422 1866.08 254.566L1863.99 239.43L1870.58 238.516L1872.51 252.476C1872.72 253.878 1873.25 254.935 1874.11 255.648C1874.96 256.36 1876.01 256.629 1877.26 256.456C1878.06 256.346 1878.77 256.063 1879.42 255.606C1880.06 255.139 1880.54 254.515 1880.86 253.734C1881.19 252.951 1881.28 252.03 1881.12 250.968ZM1902.27 261.464L1945.86 255.425L1939.82 211.841L1896.23 217.88L1902.27 261.464Z" fill="white"/>
</g>
<defs>
<linearGradient id="paint0_linear_1_2327" x1="1369.58" y1="547.702" x2="1369.58" y2="647.702" gradientUnits="userSpaceOnUse">
<stop stop-color="#4A2CD7"/>
<stop offset="1" stop-color="#0594E0"/>
</linearGradient>
<clipPath id="clip0_1_2327">
<rect width="3990" height="90" fill="white" transform="translate(-630.42 547.702) rotate(-7.8887)"/>
</clipPath>
</defs>
</svg>
